<svg width="407" height="238" viewBox="0 0 407 238" fill="none" xmlns="http://www.w3.org/2000/svg">
<path opacity="0.6" d="M3.22736 204.917H68.7722C72.2343 204.917 75.5203 206.873 77.9849 210.445L85.5545 221.416C88.019 224.988 91.3051 226.944 94.7672 226.944H187.187C190.649 226.944 193.935 228.9 196.4 232.472C198.864 236.044 202.15 238 205.612 238H285.064C288.526 238 291.812 236.044 294.277 232.472L296.037 229.92C298.502 226.349 301.788 224.392 305.25 224.392H343.333C346.795 224.392 350.081 222.436 352.546 218.864L359.176 209.254C361.641 205.682 364.927 203.726 368.389 203.726H404.183C405.768 203.726 407 201.94 407 199.644C407 197.348 405.768 195.562 404.183 195.562H3.22736C1.46698 195.562 0 197.688 0 200.24C0 202.876 1.46698 204.917 3.22736 204.917Z" fill="url(#paint0_linear)"/>
<path opacity="0.6" d="M406.942 198.624C406.649 196.838 405.534 195.562 404.243 195.562H3.52148C3.63884 197.943 5.04715 199.814 6.74885 199.814H72.2937C75.7558 199.814 79.0418 201.77 81.5063 205.342L89.076 216.313C91.5405 219.885 94.8266 221.841 98.2887 221.841H190.709C194.171 221.841 197.457 223.797 199.921 227.369C202.386 230.941 205.672 232.897 209.134 232.897H288.586C292.048 232.897 295.334 230.941 297.798 227.369L299.559 224.818C302.023 221.246 305.309 219.29 308.772 219.29H346.854C350.316 219.29 353.603 217.334 356.067 213.762L359.177 209.254L362.698 204.152C365.162 200.58 368.448 198.624 371.91 198.624H406.942Z" fill="url(#paint1_linear)"/>
<path opacity="0.6" d="M406.942 198.624C406.649 196.838 405.534 195.562 404.243 195.562H3.52148C3.63884 197.943 5.04715 199.814 6.74885 199.814H72.2937C75.7558 199.814 79.0418 201.77 81.5063 205.342L89.076 216.313C91.5405 219.885 94.8266 221.841 98.2887 221.841H190.709C194.171 221.841 197.457 223.797 199.921 227.369C202.386 230.941 205.672 232.897 209.134 232.897H288.586C292.048 232.897 295.334 230.941 297.798 227.369L299.559 224.818C302.023 221.246 305.309 219.29 308.772 219.29H346.854C350.316 219.29 353.603 217.334 356.067 213.762L359.177 209.254L362.698 204.152C365.162 200.58 368.448 198.624 371.91 198.624H406.942Z" fill="url(#paint2_linear)"/>
<path opacity="0.6" d="M222.169 203.529H128.817L166.695 61.3015H260.047L222.169 203.529Z" fill="url(#paint3_linear)"/>
<path opacity="0.6" d="M210.928 203.529H117.576L155.455 61.3015H248.807L210.928 203.529Z" fill="url(#paint4_linear)"/>
<path opacity="0.6" d="M232.922 203.529H139.57L177.448 61.3015H270.8L232.922 203.529Z" fill="url(#paint5_linear)"/>
<path opacity="0.2" d="M200.811 70.5878C200.762 70.5878 200.664 70.5878 200.615 70.5389C200.224 70.4411 199.98 70.0501 200.078 69.6591L203.45 56.9515C203.548 56.5605 203.939 56.3161 204.33 56.4139C204.721 56.5116 204.965 56.9026 204.868 57.2936L201.495 70.0013C201.446 70.3923 201.153 70.5878 200.811 70.5878Z" fill="#008DA6"/>
<path opacity="0.2" d="M185.855 88.183C185.806 88.183 185.708 88.183 185.659 88.1341C185.268 88.0364 185.024 87.6454 185.122 87.2544L192.551 59.3954C192.648 59.0044 193.039 58.76 193.43 58.8577C193.821 58.9555 194.066 59.3465 193.968 59.7375L186.539 87.5965C186.49 87.9875 186.197 88.183 185.855 88.183Z" fill="#008DA6"/>
<path opacity="0.2" d="M240.351 74.4977C240.302 74.4977 240.204 74.4977 240.155 74.4488C239.764 74.351 239.52 73.9601 239.618 73.569L242.99 60.8614C243.088 60.4704 243.479 60.226 243.87 60.3238C244.261 60.4216 244.505 60.8126 244.408 61.2036L241.035 73.9112C240.937 74.3022 240.644 74.4977 240.351 74.4977Z" fill="#008DA6"/>
<path opacity="0.2" d="M165.573 131.682C165.524 131.682 165.426 131.682 165.378 131.633C164.987 131.535 164.742 131.144 164.84 130.753L168.212 118.046C168.31 117.655 168.701 117.41 169.092 117.508C169.483 117.606 169.727 117.997 169.63 118.388L166.257 131.095C166.208 131.486 165.915 131.682 165.573 131.682Z" fill="#008DA6"/>
<path opacity="0.2" d="M168.505 93.8036C168.456 93.8036 168.359 93.8036 168.31 93.7547C167.919 93.657 167.674 93.266 167.772 92.875L175.201 65.016C175.299 64.625 175.69 64.3806 176.081 64.4783C176.472 64.5761 176.716 64.9671 176.618 65.3581L169.189 93.2171C169.092 93.6081 168.798 93.8036 168.505 93.8036Z" fill="#008DA6"/>
<path opacity="0.2" d="M170.997 113.11C170.948 113.11 170.851 113.11 170.802 113.061C170.411 112.963 170.166 112.572 170.264 112.181L177.693 84.3219C177.791 83.9309 178.182 83.6865 178.573 83.7842C178.964 83.882 179.208 84.273 179.111 84.664L171.682 112.523C171.633 112.914 171.339 113.11 170.997 113.11Z" fill="#008DA6"/>
<path opacity="0.2" d="M185.806 127.283C185.757 127.283 185.659 127.283 185.61 127.234C185.219 127.137 184.975 126.746 185.073 126.355L192.502 98.4957C192.6 98.1047 192.991 97.8603 193.382 97.9581C193.773 98.0558 194.017 98.4468 193.919 98.8378L186.49 126.697C186.441 127.088 186.148 127.283 185.806 127.283Z" fill="#008DA6"/>
<path opacity="0.2" d="M202.423 146.882C202.374 146.882 202.277 146.882 202.228 146.833C201.837 146.736 201.592 146.345 201.69 145.954L209.119 118.095C209.217 117.704 209.608 117.459 209.999 117.557C210.39 117.655 210.634 118.046 210.536 118.437L203.107 146.296C203.059 146.638 202.765 146.882 202.423 146.882Z" fill="#008DA6"/>
<path opacity="0.2" d="M195.533 90.4801C195.484 90.4801 195.386 90.4801 195.338 90.4312C194.947 90.3335 194.702 89.9425 194.8 89.5515L198.172 76.8439C198.27 76.4529 198.661 76.2085 199.052 76.3062C199.443 76.404 199.687 76.795 199.59 77.186L196.217 89.8936C196.12 90.2846 195.826 90.4801 195.533 90.4801Z" fill="#008DA6"/>
<path opacity="0.2" d="M178.524 154.653C178.475 154.653 178.377 154.653 178.328 154.605C177.937 154.507 177.693 154.116 177.791 153.725L181.163 141.017C181.261 140.626 181.652 140.382 182.043 140.48C182.434 140.577 182.678 140.968 182.58 141.359L179.208 154.067C179.159 154.458 178.866 154.653 178.524 154.653Z" fill="#008DA6"/>
<path d="M302.522 61.3012H186.834C190.695 61.3012 193.823 58.1732 193.823 54.312C193.823 50.4509 196.951 47.3229 200.812 47.3229C201.497 47.3229 202.181 47.4206 202.816 47.6161C202.816 47.5184 202.816 47.4206 202.816 47.3229C202.816 39.6005 209.072 33.3445 216.795 33.3445C217.626 33.3445 218.456 33.4422 219.287 33.54C220.656 21.0767 231.213 11.3994 244.067 11.3994C257.215 11.3994 268.016 21.6144 268.945 34.5664C270.704 33.7844 272.61 33.3445 274.663 33.3445C282.385 33.3445 288.642 39.6005 288.642 47.3229C288.642 55.0452 294.8 61.3012 302.522 61.3012Z" fill="#344563"/>
<path d="M233.07 200.939L175.446 143.363H133.511L75.8867 200.939H233.07Z" fill="#C1C7D0"/>
<path d="M156.434 149.179L155.31 150.304L205.993 200.939H208.193L156.434 149.179Z" fill="#A5ADBA"/>
<path d="M149.102 156.511L147.978 157.635L191.331 200.939H193.579L149.102 156.511Z" fill="#A5ADBA"/>
<path d="M141.771 163.793L140.695 164.917L176.717 200.939H178.965L141.771 163.793Z" fill="#A5ADBA"/>
<path d="M134.488 171.125L133.364 172.249L162.054 200.939H164.302L134.488 171.125Z" fill="#A5ADBA"/>
<path d="M127.157 178.456L126.033 179.58L147.44 200.939H149.688L127.157 178.456Z" fill="#A5ADBA"/>
<path d="M119.826 185.787L118.702 186.862L132.778 200.938H135.026L119.826 185.787Z" fill="#A5ADBA"/>
<path d="M112.494 193.07L111.419 194.194L118.164 200.939H120.412L112.494 193.07Z" fill="#A5ADBA"/>
<path d="M105.75 200.939L105.212 200.401L104.626 200.939H105.75Z" fill="#A5ADBA"/>
<path d="M220.851 49.4736L212.444 81.6337L209.267 76.9905L226.52 77.1371L231.554 77.186L229.648 81.4382L215.67 112.621L223.392 79.3854L226.52 83.6864L209.267 83.8331L203.695 83.8819L206.041 79.1899L220.851 49.4736Z" fill="white"/>
<path d="M142.357 200.938L237.42 105.925L332.483 200.938H142.357Z" fill="url(#paint6_linear)"/>
<path d="M237.519 131.367L236.413 132.473L304.841 200.902L305.947 199.796L237.519 131.367Z" fill="#C1C7D0"/>
<path d="M230.188 138.671L229.064 139.795L290.256 200.938H292.455L230.188 138.671Z" fill="#C1C7D0"/>
<path d="M222.905 146.002L221.781 147.127L275.593 200.938H277.841L222.905 146.002Z" fill="#C1C7D0"/>
<path d="M215.574 153.334L214.45 154.458L260.979 200.938H263.179L215.574 153.334Z" fill="#C1C7D0"/>
<path d="M208.243 160.665L207.119 161.74L246.317 200.938H248.565L208.243 160.665Z" fill="#C1C7D0"/>
<path d="M200.912 167.948L199.836 169.072L231.703 200.938H233.951L200.912 167.948Z" fill="#C1C7D0"/>
<path d="M193.629 175.279L192.504 176.403L217.04 200.938H219.288L193.629 175.279Z" fill="#C1C7D0"/>
<path d="M186.297 182.61L185.173 183.734L202.426 200.938H204.675L186.297 182.61Z" fill="#C1C7D0"/>
<path d="M154.477 164.184L175.445 143.217H133.51L154.477 164.184Z" fill="url(#paint7_linear)"/>
<path d="M253.304 44.1949C253.304 53.6279 260.978 61.3013 270.411 61.3013H128.672C133.413 61.3013 137.225 57.489 137.225 52.7481C137.225 48.0072 141.037 44.1949 145.778 44.1949C146.609 44.1949 147.44 44.2927 148.222 44.5371C148.222 44.4393 148.222 44.2927 148.222 44.1949C148.222 34.762 155.896 27.0885 165.328 27.0885C166.355 27.0885 167.381 27.1863 168.359 27.3329C170.069 12.0838 183.021 0.207031 198.759 0.207031C214.888 0.207031 228.133 12.7191 229.209 28.6037C231.359 27.6262 233.705 27.0885 236.198 27.0885C245.68 27.0885 253.304 34.762 253.304 44.1949Z" fill="url(#paint8_linear)"/>
<path opacity="0.6" d="M199.053 38.0855C197.587 38.0855 196.365 36.9125 196.267 35.4463L195.388 21.2235C195.241 19.1219 196.952 17.3135 199.053 17.3135C201.155 17.3135 202.817 19.073 202.719 21.2235L201.839 35.4951C201.79 36.9614 200.568 38.0855 199.053 38.0855Z" fill="#B3BAC5"/>
<path opacity="0.6" d="M199.297 47.6161C201.079 47.6161 202.523 46.1719 202.523 44.3903C202.523 42.6088 201.079 41.1646 199.297 41.1646C197.516 41.1646 196.071 42.6088 196.071 44.3903C196.071 46.1719 197.516 47.6161 199.297 47.6161Z" fill="#B3BAC5"/>
<path opacity="0.15" d="M154.577 163.94L136.493 181.046L117.578 159.297L133.56 143.412L154.577 163.94Z" fill="url(#paint9_linear)"/>
<path d="M190.891 197.224H174.517C172.953 197.224 171.731 198.495 171.731 200.01V200.938H193.725V200.01C193.677 198.495 192.455 197.224 190.891 197.224Z" fill="#FF991F"/>
<path d="M184.195 173.177H181.165C180.431 173.177 179.796 173.715 179.649 174.497L175.593 198.006H189.816L185.759 174.497C185.563 173.715 184.928 173.177 184.195 173.177Z" fill="#FF991F"/>
<path d="M178.526 181.046H186.835L186.297 177.82H179.063L178.526 181.046Z" fill="#FFC400"/>
<path d="M189.132 194.145L188.594 190.968H176.815L176.229 194.145H189.132Z" fill="#FFC400"/>
<path d="M351.691 197.224H335.318C333.754 197.224 332.532 198.495 332.532 200.01V200.938H354.526V200.01C354.477 198.495 353.255 197.224 351.691 197.224Z" fill="#FF991F"/>
<path d="M344.996 173.177H341.965C341.232 173.177 340.597 173.715 340.45 174.497L336.394 198.006H350.616L346.56 174.497C346.364 173.715 345.729 173.177 344.996 173.177Z" fill="#FF991F"/>
<path d="M339.325 181.046H347.683L347.096 177.82H339.912L339.325 181.046Z" fill="#FFC400"/>
<path d="M349.931 194.145L349.394 190.968H337.615L337.028 194.145H349.931Z" fill="#FFC400"/>
<defs>
<linearGradient id="paint0_linear" x1="0" y1="216.822" x2="407.012" y2="216.822" gradientUnits="userSpaceOnUse">
<stop stop-color="#79E2F2" stop-opacity="0"/>
<stop offset="1" stop-color="#79E2F2"/>
</linearGradient>
<linearGradient id="paint1_linear" x1="3.53604" y1="214.271" x2="410.548" y2="214.271" gradientUnits="userSpaceOnUse">
<stop stop-color="#79E2F2" stop-opacity="0"/>
<stop offset="1" stop-color="#79E2F2"/>
</linearGradient>
<linearGradient id="paint2_linear" x1="3.53604" y1="214.271" x2="410.548" y2="214.271" gradientUnits="userSpaceOnUse">
<stop stop-color="#79E2F2" stop-opacity="0"/>
<stop offset="1" stop-color="#79E2F2"/>
</linearGradient>
<linearGradient id="paint3_linear" x1="175.481" y1="203.529" x2="175.481" y2="61.3015" gradientUnits="userSpaceOnUse">
<stop offset="0.2586" stop-color="#79E2F2" stop-opacity="0"/>
<stop offset="1" stop-color="#79E2F2"/>
</linearGradient>
<linearGradient id="paint4_linear" x1="164.24" y1="203.529" x2="164.24" y2="61.3015" gradientUnits="userSpaceOnUse">
<stop offset="0.3119" stop-color="#79E2F2" stop-opacity="0"/>
<stop offset="0.9445" stop-color="#79E2F2" stop-opacity="0.9194"/>
<stop offset="1" stop-color="#79E2F2"/>
</linearGradient>
<linearGradient id="paint5_linear" x1="186.234" y1="203.529" x2="186.234" y2="61.3015" gradientUnits="userSpaceOnUse">
<stop offset="0.5028" stop-color="#79E2F2" stop-opacity="0"/>
<stop offset="0.9599" stop-color="#79E2F2" stop-opacity="0.9194"/>
<stop offset="1" stop-color="#79E2F2"/>
</linearGradient>
<linearGradient id="paint6_linear" x1="237.437" y1="200.962" x2="237.437" y2="105.901" gradientUnits="userSpaceOnUse">
<stop offset="0.126" stop-color="#DFE1E5"/>
<stop offset="0.7465" stop-color="#FAFBFC"/>
</linearGradient>
<linearGradient id="paint7_linear" x1="143.996" y1="153.692" x2="164.968" y2="132.72" gradientUnits="userSpaceOnUse">
<stop stop-color="#DFE1E5"/>
<stop offset="0.3584" stop-color="#E7E9EC"/>
<stop offset="0.8323" stop-color="#FAFBFC"/>
</linearGradient>
<linearGradient id="paint8_linear" x1="162.961" y1="95.5752" x2="237.373" y2="21.1624" gradientUnits="userSpaceOnUse">
<stop offset="0.5431" stop-color="#5E6C84"/>
<stop offset="0.7013" stop-color="#606E86"/>
<stop offset="0.7881" stop-color="#68768C"/>
<stop offset="0.8576" stop-color="#768296"/>
<stop offset="0.9178" stop-color="#8A94A5"/>
<stop offset="0.9716" stop-color="#A2ABB8"/>
<stop offset="1" stop-color="#B3BAC5"/>
</linearGradient>
<linearGradient id="paint9_linear" x1="126.689" y1="172.807" x2="144.008" y2="152.167" gradientUnits="userSpaceOnUse">
<stop offset="0.2586" stop-color="#091E42" stop-opacity="0"/>
<stop offset="1" stop-color="#091E42"/>
</linearGradient>
</defs>
</svg>
