<svg width="16" height="16" viewBox="0 0 16 16" fill="none" xmlns="http://www.w3.org/2000/svg">
<path d="M6.4 7.19999C7.72548 7.19999 8.8 6.12548 8.8 4.79999C8.8 3.47451 7.72548 2.39999 6.4 2.39999C5.07452 2.39999 4 3.47451 4 4.79999C4 6.12548 5.07452 7.19999 6.4 7.19999Z" fill="#EAEBEB"/>
<path d="M6.4 8.79999C9.05097 8.79999 11.2 10.949 11.2 13.6H1.6C1.6 10.949 3.74903 8.79999 6.4 8.79999Z" fill="#EAEBEB"/>
<path d="M12.8 5.59999C12.8 5.15817 12.4418 4.79999 12 4.79999C11.5582 4.79999 11.2 5.15817 11.2 5.59999V6.39999H10.4C9.95817 6.39999 9.6 6.75817 9.6 7.19999C9.6 7.64182 9.95817 7.99999 10.4 7.99999H11.2V8.79999C11.2 9.24182 11.5582 9.59999 12 9.59999C12.4418 9.59999 12.8 9.24182 12.8 8.79999V7.99999H13.6C14.0418 7.99999 14.4 7.64182 14.4 7.19999C14.4 6.75817 14.0418 6.39999 13.6 6.39999H12.8V5.59999Z" fill="#EAEBEB"/>
</svg>
