<svg xmlns="http://www.w3.org/2000/svg" width="14" height="12" viewBox="0 0 14 12">
    <g fill="none" fill-rule="evenodd">
        <g>
            <g>
                <g>
                    <path d="M0 0L20 0 20 20 0 20z" transform="translate(-893 -609) translate(859 174) matrix(0 1 1 0 31 431)"/>
                    <path fill="#333758" fill-rule="nonzero" d="M6.91 8.506c-.325-.326-.325-.853 0-1.179.326-.325.854-.325 1.18 0l5 5c.315.316.326.824.024 1.153l-4.583 5c-.311.339-.838.362-1.177.051-.34-.311-.363-.838-.052-1.177l4.045-4.412L6.91 8.506z" transform="translate(-893 -609) translate(859 174) matrix(0 1 1 0 31 431) matrix(0 -1 -1 0 22.917 22.917)"/>
                    <path fill="#333758" fill-rule="nonzero" d="M5.59 10.173c-.326.325-.854.325-1.18 0-.325-.326-.325-.853 0-1.179l5-5c.316-.315.824-.326 1.153-.025l5 4.583c.34.311.362.839.051 1.178-.31.339-.838.362-1.177.051l-4.412-4.044-4.436 4.436z" opacity=".3" transform="translate(-893 -609) translate(859 174) matrix(0 1 1 0 31 431) matrix(-1 0 0 1 20 0)"/>
                </g>
            </g>
        </g>
    </g>
</svg>
