<svg width="432" height="233" viewBox="0 0 432 233" fill="none" xmlns="http://www.w3.org/2000/svg">
<g clip-path="url(#clip0)">
<rect width="431.49" height="232.872" fill="white" fill-opacity="0.01"/>
<path opacity="0.15" d="M147.579 208.391L61.9473 231.65H0L93.4635 208.391H147.579Z" fill="url(#paint0_linear)"/>
<path opacity="0.15" d="M283.911 208.391L369.543 231.65H431.49L338.026 208.391H283.911Z" fill="url(#paint1_linear)"/>
<path opacity="0.15" d="M246.022 213.356C258.336 213.356 268.319 211.564 268.319 209.353C268.319 207.143 258.336 205.351 246.022 205.351C233.707 205.351 223.725 207.143 223.725 209.353C223.725 211.564 233.707 213.356 246.022 213.356Z" fill="url(#paint2_linear)"/>
<path opacity="0.15" d="M152.616 232.872C164.93 232.872 174.913 231.08 174.913 228.87C174.913 226.659 164.93 224.867 152.616 224.867C140.301 224.867 130.319 226.659 130.319 228.87C130.319 231.08 140.301 232.872 152.616 232.872Z" fill="url(#paint3_linear)"/>
<path d="M255.902 213.011C255.514 213.011 255.191 212.695 255.191 212.3V196.053C255.191 195.665 255.507 195.341 255.902 195.341C256.297 195.341 256.613 195.658 256.613 196.053V212.3C256.613 212.688 256.297 213.011 255.902 213.011Z" fill="#A5ADBA"/>
<path d="M246.395 209.382C246.007 209.382 245.684 209.066 245.684 208.671V194.63C245.684 194.242 246 193.919 246.395 193.919C246.791 193.919 247.107 194.235 247.107 194.63V208.671C247.107 209.066 246.791 209.382 246.395 209.382Z" fill="#A5ADBA"/>
<path d="M265.847 209.382C265.459 209.382 265.135 209.066 265.135 208.671V194.63C265.135 194.242 265.452 193.919 265.847 193.919C266.242 193.919 266.558 194.235 266.558 194.63V208.671C266.558 209.066 266.242 209.382 265.847 209.382Z" fill="#A5ADBA"/>
<path d="M255.902 197.203C262.287 197.203 267.464 196.015 267.464 194.551C267.464 193.087 262.287 191.9 255.902 191.9C249.517 191.9 244.34 193.087 244.34 194.551C244.34 196.015 249.517 197.203 255.902 197.203Z" fill="#C1C7D0"/>
<path d="M255.902 197.131C262.287 197.131 267.464 195.944 267.464 194.479C267.464 193.015 262.287 191.828 255.902 191.828C249.517 191.828 244.34 193.015 244.34 194.479C244.34 195.944 249.517 197.131 255.902 197.131Z" fill="#C1C7D0"/>
<path d="M255.902 197.059C262.287 197.059 267.464 195.872 267.464 194.407C267.464 192.943 262.287 191.756 255.902 191.756C249.517 191.756 244.34 192.943 244.34 194.407C244.34 195.872 249.517 197.059 255.902 197.059Z" fill="#C1C7D0"/>
<path d="M255.902 196.987C262.287 196.987 267.464 195.8 267.464 194.335C267.464 192.871 262.287 191.684 255.902 191.684C249.517 191.684 244.34 192.871 244.34 194.335C244.34 195.8 249.517 196.987 255.902 196.987Z" fill="#C1C7D0"/>
<path d="M255.902 196.908C262.287 196.908 267.464 195.721 267.464 194.256C267.464 192.792 262.287 191.605 255.902 191.605C249.517 191.605 244.34 192.792 244.34 194.256C244.34 195.721 249.517 196.908 255.902 196.908Z" fill="#C1C7D0"/>
<path d="M255.902 196.836C262.287 196.836 267.464 195.649 267.464 194.185C267.464 192.72 262.287 191.533 255.902 191.533C249.517 191.533 244.34 192.72 244.34 194.185C244.34 195.649 249.517 196.836 255.902 196.836Z" fill="#C1C7D0"/>
<path d="M255.902 196.764C262.287 196.764 267.464 195.577 267.464 194.113C267.464 192.648 262.287 191.461 255.902 191.461C249.517 191.461 244.34 192.648 244.34 194.113C244.34 195.577 249.517 196.764 255.902 196.764Z" fill="#C1C7D0"/>
<path d="M255.902 196.692C262.287 196.692 267.464 195.505 267.464 194.041C267.464 192.576 262.287 191.389 255.902 191.389C249.517 191.389 244.34 192.576 244.34 194.041C244.34 195.505 249.517 196.692 255.902 196.692Z" fill="#C1C7D0"/>
<path d="M255.902 196.621C262.287 196.621 267.464 195.433 267.464 193.969C267.464 192.505 262.287 191.318 255.902 191.318C249.517 191.318 244.34 192.505 244.34 193.969C244.34 195.433 249.517 196.621 255.902 196.621Z" fill="#C1C7D0"/>
<path d="M255.902 196.541C262.287 196.541 267.464 195.354 267.464 193.89C267.464 192.425 262.287 191.238 255.902 191.238C249.517 191.238 244.34 192.425 244.34 193.89C244.34 195.354 249.517 196.541 255.902 196.541Z" fill="#C1C7D0"/>
<path d="M255.902 196.47C262.287 196.47 267.464 195.283 267.464 193.818C267.464 192.354 262.287 191.167 255.902 191.167C249.517 191.167 244.34 192.354 244.34 193.818C244.34 195.283 249.517 196.47 255.902 196.47Z" fill="#C1C7D0"/>
<path d="M255.902 196.398C262.287 196.398 267.464 195.211 267.464 193.746C267.464 192.282 262.287 191.095 255.902 191.095C249.517 191.095 244.34 192.282 244.34 193.746C244.34 195.211 249.517 196.398 255.902 196.398Z" fill="#C1C7D0"/>
<path d="M255.902 196.326C262.287 196.326 267.464 195.139 267.464 193.674C267.464 192.21 262.287 191.023 255.902 191.023C249.517 191.023 244.34 192.21 244.34 193.674C244.34 195.139 249.517 196.326 255.902 196.326Z" fill="#C1C7D0"/>
<path d="M255.902 196.247C262.287 196.247 267.464 195.06 267.464 193.595C267.464 192.131 262.287 190.944 255.902 190.944C249.517 190.944 244.34 192.131 244.34 193.595C244.34 195.06 249.517 196.247 255.902 196.247Z" fill="#C1C7D0"/>
<path d="M255.902 196.175C262.287 196.175 267.464 194.988 267.464 193.523C267.464 192.059 262.287 190.872 255.902 190.872C249.517 190.872 244.34 192.059 244.34 193.523C244.34 194.988 249.517 196.175 255.902 196.175Z" fill="#C1C7D0"/>
<path d="M255.902 196.103C262.287 196.103 267.464 194.916 267.464 193.452C267.464 191.987 262.287 190.8 255.902 190.8C249.517 190.8 244.34 191.987 244.34 193.452C244.34 194.916 249.517 196.103 255.902 196.103Z" fill="#C1C7D0"/>
<path d="M255.902 196.031C262.287 196.031 267.464 194.844 267.464 193.38C267.464 191.915 262.287 190.728 255.902 190.728C249.517 190.728 244.34 191.915 244.34 193.38C244.34 194.844 249.517 196.031 255.902 196.031Z" fill="#C1C7D0"/>
<path d="M255.902 195.959C262.287 195.959 267.464 194.772 267.464 193.308C267.464 191.843 262.287 190.656 255.902 190.656C249.517 190.656 244.34 191.843 244.34 193.308C244.34 194.772 249.517 195.959 255.902 195.959Z" fill="#C1C7D0"/>
<path d="M255.902 195.88C262.287 195.88 267.464 194.693 267.464 193.229C267.464 191.765 262.287 190.577 255.902 190.577C249.517 190.577 244.34 191.765 244.34 193.229C244.34 194.693 249.517 195.88 255.902 195.88Z" fill="#C1C7D0"/>
<path d="M255.902 195.808C262.287 195.808 267.464 194.621 267.464 193.157C267.464 191.693 262.287 190.505 255.902 190.505C249.517 190.505 244.34 191.693 244.34 193.157C244.34 194.621 249.517 195.808 255.902 195.808Z" fill="#C1C7D0"/>
<path d="M255.902 195.737C262.287 195.737 267.464 194.549 267.464 193.085C267.464 191.621 262.287 190.434 255.902 190.434C249.517 190.434 244.34 191.621 244.34 193.085C244.34 194.549 249.517 195.737 255.902 195.737Z" fill="#C1C7D0"/>
<path d="M255.902 195.665C262.287 195.665 267.464 194.478 267.464 193.013C267.464 191.549 262.287 190.362 255.902 190.362C249.517 190.362 244.34 191.549 244.34 193.013C244.34 194.478 249.517 195.665 255.902 195.665Z" fill="#C1C7D0"/>
<path d="M255.902 195.586C262.287 195.586 267.464 194.399 267.464 192.934C267.464 191.47 262.287 190.283 255.902 190.283C249.517 190.283 244.34 191.47 244.34 192.934C244.34 194.399 249.517 195.586 255.902 195.586Z" fill="#C1C7D0"/>
<path d="M255.902 195.514C262.287 195.514 267.464 194.327 267.464 192.862C267.464 191.398 262.287 190.211 255.902 190.211C249.517 190.211 244.34 191.398 244.34 192.862C244.34 194.327 249.517 195.514 255.902 195.514Z" fill="#C1C7D0"/>
<path d="M255.902 195.442C262.287 195.442 267.464 194.255 267.464 192.791C267.464 191.326 262.287 190.139 255.902 190.139C249.517 190.139 244.34 191.326 244.34 192.791C244.34 194.255 249.517 195.442 255.902 195.442Z" fill="#C1C7D0"/>
<path d="M255.902 195.37C262.287 195.37 267.464 194.183 267.464 192.719C267.464 191.254 262.287 190.067 255.902 190.067C249.517 190.067 244.34 191.254 244.34 192.719C244.34 194.183 249.517 195.37 255.902 195.37Z" fill="#C1C7D0"/>
<path d="M255.902 195.298C262.287 195.298 267.464 194.111 267.464 192.647C267.464 191.182 262.287 189.995 255.902 189.995C249.517 189.995 244.34 191.182 244.34 192.647C244.34 194.111 249.517 195.298 255.902 195.298Z" fill="#C1C7D0"/>
<path d="M255.902 195.219C262.287 195.219 267.464 194.032 267.464 192.568C267.464 191.103 262.287 189.916 255.902 189.916C249.517 189.916 244.34 191.103 244.34 192.568C244.34 194.032 249.517 195.219 255.902 195.219Z" fill="#C1C7D0"/>
<path d="M255.902 195.147C262.287 195.147 267.464 193.96 267.464 192.496C267.464 191.031 262.287 189.844 255.902 189.844C249.517 189.844 244.34 191.031 244.34 192.496C244.34 193.96 249.517 195.147 255.902 195.147Z" fill="#C1C7D0"/>
<path d="M255.902 195.076C262.287 195.076 267.464 193.888 267.464 192.424C267.464 190.96 262.287 189.773 255.902 189.773C249.517 189.773 244.34 190.96 244.34 192.424C244.34 193.888 249.517 195.076 255.902 195.076Z" fill="#C1C7D0"/>
<path d="M255.902 195.004C262.287 195.004 267.464 193.817 267.464 192.352C267.464 190.888 262.287 189.701 255.902 189.701C249.517 189.701 244.34 190.888 244.34 192.352C244.34 193.817 249.517 195.004 255.902 195.004Z" fill="#C1C7D0"/>
<path d="M255.902 194.925C262.287 194.925 267.464 193.738 267.464 192.273C267.464 190.809 262.287 189.622 255.902 189.622C249.517 189.622 244.34 190.809 244.34 192.273C244.34 193.738 249.517 194.925 255.902 194.925Z" fill="#C1C7D0"/>
<path d="M255.902 194.853C262.287 194.853 267.464 193.666 267.464 192.201C267.464 190.737 262.287 189.55 255.902 189.55C249.517 189.55 244.34 190.737 244.34 192.201C244.34 193.666 249.517 194.853 255.902 194.853Z" fill="#C1C7D0"/>
<path d="M255.902 194.781C262.287 194.781 267.464 193.594 267.464 192.129C267.464 190.665 262.287 189.478 255.902 189.478C249.517 189.478 244.34 190.665 244.34 192.129C244.34 193.594 249.517 194.781 255.902 194.781Z" fill="#C1C7D0"/>
<path d="M255.902 194.709C262.287 194.709 267.464 193.522 267.464 192.058C267.464 190.593 262.287 189.406 255.902 189.406C249.517 189.406 244.34 190.593 244.34 192.058C244.34 193.522 249.517 194.709 255.902 194.709Z" fill="#C1C7D0"/>
<path d="M255.902 194.63C262.287 194.63 267.464 193.443 267.464 191.979C267.464 190.514 262.287 189.327 255.902 189.327C249.517 189.327 244.34 190.514 244.34 191.979C244.34 193.443 249.517 194.63 255.902 194.63Z" fill="#C1C7D0"/>
<path d="M255.902 194.63C262.287 194.63 267.464 193.443 267.464 191.979C267.464 190.514 262.287 189.327 255.902 189.327C249.517 189.327 244.34 190.514 244.34 191.979C244.34 193.443 249.517 194.63 255.902 194.63Z" fill="#C1C7D0"/>
<path d="M284.91 183.686C320.12 191.67 355.33 199.66 390.546 207.643C390.546 147.658 390.546 87.6719 390.546 27.6863C355.337 35.6695 320.127 43.6599 284.91 51.6432C284.91 95.6624 284.91 139.674 284.91 183.686Z" fill="url(#paint4_linear)"/>
<path d="M313.121 45.2479V82.8072H314.587V44.9174C314.098 45.0251 313.61 45.1401 313.121 45.2479Z" fill="#FFAB00"/>
<path d="M304.88 167.828C309.442 168.561 311.727 168.934 316.29 169.667C316.29 176.17 311.138 180.503 304.88 179.26C298.621 178.024 293.469 172.031 293.469 165.988C293.469 159.945 298.621 155.619 304.88 156.395C304.88 160.965 304.88 163.25 304.88 167.828Z" fill="#FF991F"/>
<path d="M342.889 67.8195L292.954 74.8492L293.159 76.3079L343.094 69.2781L342.889 67.8195Z" fill="#FF991F"/>
<path d="M383.153 56.7097L292.97 70.6527L293.196 72.1085L383.378 58.1655L383.153 56.7097Z" fill="#FF991F"/>
<path d="M383.13 51.2683L292.949 66.4675L293.194 67.9201L383.375 52.7209L383.13 51.2683Z" fill="#FF991F"/>
<path d="M383.093 45.8144L292.92 62.2778L293.183 63.7198L383.356 47.2564L383.093 45.8144Z" fill="#FF991F"/>
<path d="M293.13 147.79L292.979 149.248L348.659 154.986L348.809 153.527L293.13 147.79Z" fill="#FF991F"/>
<path d="M293.128 143.574L292.998 145.041L383.177 153.071L383.307 151.604L293.128 143.574Z" fill="#FF991F"/>
<path d="M293.126 139.411L293.016 140.872L383.194 147.646L383.304 146.184L293.126 139.411Z" fill="#FF991F"/>
<path d="M293.108 135.24L293.018 136.703L383.192 142.214L383.281 140.751L293.108 135.24Z" fill="#FF991F"/>
<path d="M307.107 165.852C307.107 161.246 307.107 158.946 307.107 154.34C310.132 154.692 313.035 156.259 315.176 158.745C317.318 161.231 318.518 164.443 318.518 167.612C313.948 166.908 311.67 166.556 307.107 165.852Z" fill="#FFAB00"/>
<path d="M383.139 70.0396L292.967 80.8843L293.142 82.3396L383.314 71.4949L383.139 70.0396Z" fill="#FF991F"/>
<path d="M293.799 81.6288H292.333V127.401H293.799V81.6288Z" fill="#FF991F"/>
<path d="M328.757 82.0887V95.2313C317.742 95.9067 306.74 96.575 295.725 97.2504V85.4085C306.74 84.3019 317.742 83.2025 328.757 82.0887Z" fill="#FFAB00"/>
<path d="M326.702 102.18H325.236V128.472H326.702V102.18Z" fill="#FF991F"/>
<path d="M326.702 77.6624H325.236V89.03H326.702V77.6624Z" fill="#FF991F"/>
<path d="M345.679 75.3845H344.213V129.09H345.679V75.3845Z" fill="#FF991F"/>
<path d="M364.657 115.056H363.184V73.0995L364.657 73.0923V115.056Z" fill="#FF991F"/>
<path d="M383.979 70.7714H382.513V130.333H383.979V70.7714Z" fill="#FF991F"/>
<path d="M326.034 89.763L325.905 88.2971C332.228 87.751 338.551 87.2121 344.875 86.6588L383.174 83.3606L383.303 84.8265L345.004 88.1247C338.681 88.678 332.364 89.2241 326.034 89.763Z" fill="#FF991F"/>
<path d="M326.07 102.913L325.941 101.447C332.307 101.152 338.609 100.858 344.911 100.556L383.21 98.7665L383.282 100.232L344.983 102.022C338.674 102.323 332.379 102.618 326.07 102.913Z" fill="#FF991F"/>
<path d="M293.073 116.285L293.059 114.819C303.622 114.74 314.17 114.668 324.733 114.597L344.939 114.453C351.262 114.41 357.586 114.367 363.909 114.316L363.924 115.782C357.593 115.832 351.277 115.876 344.946 115.919L324.74 116.062C314.185 116.141 303.629 116.206 293.073 116.285Z" fill="#FF991F"/>
<path d="M293.091 126.649L293.043 128.122L383.221 131.054L383.269 129.582L293.091 126.649Z" fill="#FF991F"/>
<path d="M292.333 104.486V91.2001L326.709 88.2396V102.891L292.333 104.486ZM293.799 92.5438V102.949L325.236 101.483V89.842L293.799 92.5438Z" fill="#FF991F"/>
<path d="M383.245 114.92V130.333C376.8 130.117 370.362 129.916 363.916 129.708V115.056C370.362 115.006 376.8 114.963 383.245 114.92Z" fill="#FFE380"/>
<path d="M383.979 131.087L383.217 131.059C376.865 130.85 370.52 130.649 364.168 130.441L363.176 130.412V114.316L383.971 114.172V131.087H383.979ZM364.657 128.996C370.613 129.19 376.556 129.377 382.513 129.571V115.66L364.657 115.782V128.996Z" fill="#FF991F"/>
<path d="M364.657 130.455L363.902 130.434C358.003 130.247 352.11 130.06 346.218 129.866L292.34 128.113V103.013L325.243 101.476V89.8348L292.34 92.6731V80.9749L383.986 69.9449V115.653L364.657 115.782V130.455ZM293.799 126.69L346.254 128.4C351.895 128.587 357.536 128.767 363.176 128.946V114.323L382.506 114.194V71.5976L293.799 82.2755V91.0635L326.702 88.2252V102.877L293.799 104.414V126.69Z" fill="#FF991F"/>
<path d="M320.918 72.582V85.7246C309.988 86.8311 299.073 87.9234 288.144 89.0299V77.188C299.073 75.6503 309.996 74.1198 320.918 72.582Z" fill="url(#paint5_linear)"/>
<path d="M162.776 51.6504V157.279V183.686H268.412V157.279V51.6504H162.776Z" fill="url(#paint6_linear)"/>
<path d="M208.685 134.364C204.661 134.364 201.385 131.088 201.385 127.064V124.505H203.073V127.064C203.073 130.153 205.588 132.676 208.685 132.676V134.364Z" fill="#4C9AFF"/>
<path d="M215.979 139.969H214.29C214.29 136.879 211.775 134.357 208.678 134.357V132.668C212.709 132.676 215.979 135.945 215.979 139.969Z" fill="#4C9AFF"/>
<path d="M186.941 134.019C182.917 134.019 179.641 130.743 179.641 126.719V124.161H181.329V126.719C181.329 129.808 183.844 132.331 186.941 132.331V134.019Z" fill="#FFAB00"/>
<path d="M194.235 139.631H192.546C192.546 136.541 190.031 134.019 186.934 134.019V132.331C190.965 132.331 194.235 135.607 194.235 139.631Z" fill="#FFAB00"/>
<path d="M202.232 125.346C199.301 125.346 196.922 122.961 196.922 120.036C196.922 117.111 199.308 114.726 202.232 114.726C205.164 114.726 207.542 117.111 207.542 120.036C207.542 122.961 205.157 125.346 202.232 125.346ZM202.232 116.414C200.235 116.414 198.611 118.038 198.611 120.036C198.611 122.034 200.235 123.658 202.232 123.658C204.23 123.658 205.854 122.034 205.854 120.036C205.854 118.038 204.23 116.414 202.232 116.414Z" fill="#4C9AFF"/>
<path d="M215.138 82.7138C219.88 82.7138 223.725 78.8694 223.725 74.127C223.725 69.3846 219.88 65.5402 215.138 65.5402C210.395 65.5402 206.551 69.3846 206.551 74.127C206.551 78.8694 210.395 82.7138 215.138 82.7138Z" fill="#0065FF"/>
<path d="M180.489 125.131C177.557 125.131 175.178 122.745 175.178 119.82C175.178 116.896 177.564 114.51 180.489 114.51C183.413 114.51 185.799 116.896 185.799 119.82C185.799 122.745 183.413 125.131 180.489 125.131ZM180.489 116.192C178.491 116.192 176.867 117.816 176.867 119.813C176.867 121.811 178.491 123.435 180.489 123.435C182.486 123.435 184.11 121.811 184.11 119.813C184.11 117.816 182.486 116.192 180.489 116.192Z" fill="#FFAB00"/>
<path d="M204.266 160.577C197.806 160.577 192.553 155.325 192.553 148.858V101.353H194.242V148.858C194.242 154.383 198.74 158.889 204.273 158.889V160.577H204.266Z" fill="#FFAB00"/>
<path d="M215.979 170.608H214.29C214.29 165.083 209.792 160.577 204.259 160.577V158.889C210.726 158.889 215.979 164.149 215.979 170.608Z" fill="#FFAB00"/>
<path d="M226.01 160.577V158.889C231.536 158.889 236.041 154.391 236.041 148.858V135.011H237.73V148.858C237.722 155.325 232.47 160.577 226.01 160.577Z" fill="#36B37E"/>
<path d="M215.979 170.608H214.29C214.29 164.149 219.543 158.896 226.003 158.896V160.584C220.477 160.577 215.979 165.076 215.979 170.608Z" fill="#36B37E"/>
<path d="M236.882 126.474C236.415 126.474 236.041 126.093 236.041 125.634V117.19C236.041 116.723 236.422 116.35 236.882 116.35C237.342 116.35 237.722 116.731 237.722 117.19V125.634C237.722 126.101 237.349 126.474 236.882 126.474Z" fill="#36B37E"/>
<path d="M203.073 115.567H201.385V113.008C201.385 108.985 204.661 105.708 208.685 105.708V107.397C205.595 107.397 203.073 109.911 203.073 113.008V115.567Z" fill="#4C9AFF"/>
<path d="M208.685 107.396V105.708C211.775 105.708 214.297 103.193 214.297 100.096H215.986C215.978 104.127 212.709 107.396 208.685 107.396Z" fill="#4C9AFF"/>
<path d="M215.979 86.3856H214.29V157.696H215.979V86.3856Z" fill="#4C9AFF"/>
<path d="M215.979 157.703H214.29V183.693H215.979V157.703Z" fill="#4C9AFF"/>
<path d="M236.881 135.859C233.95 135.859 231.571 133.473 231.571 130.549C231.571 127.624 233.957 125.238 236.881 125.238C239.806 125.238 242.192 127.624 242.192 130.549C242.192 133.473 239.813 135.859 236.881 135.859ZM236.881 126.927C234.884 126.927 233.26 128.551 233.26 130.549C233.26 132.546 234.884 134.17 236.881 134.17C238.879 134.17 240.503 132.546 240.503 130.549C240.503 128.551 238.879 126.927 236.881 126.927Z" fill="#36B37E"/>
<path d="M193.394 102.201C190.462 102.201 188.084 99.8155 188.084 96.891C188.084 93.9664 190.469 91.5808 193.394 91.5808C196.318 91.5808 198.704 93.9664 198.704 96.891C198.704 99.8155 196.326 102.201 193.394 102.201ZM193.394 93.2694C191.396 93.2694 189.772 94.8934 189.772 96.891C189.772 98.8886 191.396 100.513 193.394 100.513C195.392 100.513 197.015 98.8886 197.015 96.891C197.015 94.8934 195.392 93.2694 193.394 93.2694Z" fill="#FFAB00"/>
<path d="M215.138 87.2336C207.909 87.2336 202.031 81.3557 202.031 74.127C202.031 66.8982 207.909 61.0204 215.138 61.0204C222.367 61.0204 228.244 66.8982 228.244 74.127C228.244 81.3557 222.367 87.2336 215.138 87.2336ZM215.138 62.709C208.843 62.709 203.72 67.8324 203.72 74.127C203.72 80.4216 208.843 85.5449 215.138 85.5449C221.432 85.5449 226.556 80.4216 226.556 74.127C226.556 67.8324 221.432 62.709 215.138 62.709Z" fill="#4C9AFF"/>
<path d="M40.6489 207.643C75.9016 199.646 111.032 191.684 146.285 183.686C146.285 139.638 146.285 95.6911 146.285 51.6432C111.032 43.6456 75.9016 35.6839 40.6489 27.6863C40.6489 87.7007 40.6489 147.636 40.6489 207.643Z" fill="#0065FF"/>
<path d="M90.1151 185.619C79.775 187.646 69.7079 189.614 59.3965 191.634C56.86 192.122 54.3163 192.632 51.6791 193.143C50.7235 193.329 49.9546 192.517 49.9546 191.325C49.9546 189.895 49.9546 188.486 49.9546 187.1C49.9546 173.871 49.9546 160.7 49.9546 147.5C49.9546 134.105 49.9546 120.755 49.9546 107.353C49.9546 100.757 49.9546 94.1534 49.9546 87.5139C49.9546 86.3282 50.7235 85.4228 51.6791 85.5019C55.4732 85.8109 59.1522 86.127 62.8528 86.436C70.6564 87.0899 78.2732 87.7222 86.0983 88.3761C92.6301 88.8216 91.8037 88.5342 91.8396 94.9654C91.8396 104.709 91.8396 114.402 91.8396 124.11C91.8396 138.575 91.8396 152.968 91.8396 167.447C91.8396 171.334 91.8396 175.236 91.8396 179.167C91.8396 180.539 91.8396 181.933 91.8396 183.363C91.8396 184.426 91.0708 185.432 90.1151 185.619Z" fill="#FFC400"/>
<path d="M91.8395 148.189C88.3832 148.498 84.9269 148.814 81.406 149.131C79.9904 149.26 78.5102 149.389 76.9581 149.533C76.2395 149.598 75.6575 150.338 75.6575 151.186C75.6575 155.842 75.6575 159.701 75.6575 164.357C75.6575 165.205 76.2395 165.816 76.9581 165.722C78.5102 165.521 79.9904 165.327 81.406 165.147C84.9485 164.688 88.376 164.242 91.8395 163.797C91.8395 158.587 91.8395 153.385 91.8395 148.189Z" fill="#FFAB00"/>
<path d="M136.685 176.508C123.765 179.037 111.169 181.502 98.249 184.031C97.2933 184.218 96.5244 183.521 96.5244 182.472C96.5244 179.634 96.5244 176.824 96.5244 174.036C96.5244 164.35 96.5244 154.721 96.5244 145.064C96.5244 131.217 96.5244 117.428 96.5244 103.567C96.5244 99.442 96.5244 95.3102 96.5244 91.1426C96.5244 90.0935 97.2933 89.3102 98.249 89.3893C100.886 89.6049 103.43 89.8276 105.966 90.036C116.278 90.8983 126.345 91.739 136.685 92.5941C137.641 92.6731 138.409 93.4851 138.409 94.3977C138.409 97.2144 138.409 100.002 138.409 102.762C138.409 120.137 138.409 137.396 138.409 154.764C138.409 159.902 138.409 165.047 138.409 170.235C138.409 171.629 138.409 173.052 138.409 174.51C138.409 175.43 137.641 176.321 136.685 176.508Z" fill="#4C9AFF"/>
<path opacity="0.5" d="M115.847 146.026C114.295 146.17 112.814 146.299 111.399 146.429C109.983 146.558 108.632 146.68 107.325 146.795C106.017 146.91 104.759 147.025 103.531 147.14C102.302 147.248 101.102 147.363 99.9234 147.464C98.7808 147.564 97.6527 147.672 96.5317 147.773C96.5317 147.988 96.5317 148.204 96.5317 148.419C96.5317 149.547 96.5317 150.676 96.5317 151.818C96.5317 152.961 96.5317 154.117 96.5317 155.282C96.5317 156.446 96.5317 157.631 96.5317 158.824C96.5317 160.017 96.5317 161.231 96.5317 162.453C96.5317 162.697 96.5317 162.941 96.5317 163.186C97.6599 163.042 98.788 162.891 99.9234 162.747C101.109 162.597 102.302 162.438 103.531 162.28C104.759 162.122 106.017 161.957 107.325 161.792C108.632 161.619 109.983 161.447 111.399 161.267C112.814 161.08 114.295 160.894 115.847 160.692C116.565 160.599 117.147 159.909 117.147 159.147C117.147 157.567 117.147 156.252 117.147 155.023C117.147 153.794 117.147 152.652 117.147 151.423C117.147 150.194 117.147 148.879 117.147 147.298C117.147 146.522 116.565 145.962 115.847 146.026Z" fill="#0065FF"/>
<path d="M50.0262 78.5836L49.8811 80.0494L91.7611 84.1949L91.9062 82.7291L50.0262 78.5836Z" fill="#4C9AFF"/>
<path d="M96.597 83.1999L96.4519 84.6658L138.332 88.8113L138.477 87.3454L96.597 83.1999Z" fill="#4C9AFF"/>
<path d="M50.0426 74.5159L49.8823 75.9802L68.4833 78.016L68.6436 76.5517L50.0426 74.5159Z" fill="#4C9AFF"/>
<path d="M96.6046 79.6146L96.4443 81.079L115.045 83.1148L115.206 81.6504L96.6046 79.6146Z" fill="#4C9AFF"/>
<path d="M88.1245 106.24C76.5197 105.859 65.2598 105.492 53.655 105.111C53.0227 105.09 52.5053 104.436 52.5053 103.646C52.5053 102.424 52.5053 101.346 52.5053 100.355C52.5053 98.3641 52.5053 96.6827 52.5053 94.6922C52.4119 88.9365 52.2826 90.0719 57.5999 90.3449C67.8682 91.0851 77.8347 91.8036 88.1245 92.5437C88.7568 92.5868 89.2742 93.2048 89.2742 93.9162C89.2742 95.921 89.2742 97.5881 89.2742 99.4563C89.267 101.325 89.2742 102.984 89.2742 104.996C89.2742 105.701 88.7568 106.261 88.1245 106.24Z" fill="#FFF0B2"/>
<path d="M88.1244 122.472C76.5196 122.63 65.2597 122.788 53.6549 122.946C53.0226 122.953 52.5052 122.321 52.5052 121.538C52.5052 120.316 52.5052 119.238 52.5052 118.247C52.5052 116.256 52.5052 114.575 52.5052 112.584C52.4118 106.857 52.2752 107.964 57.5998 108C67.8681 108.259 77.8345 108.517 88.1244 108.776C88.7567 108.79 89.2741 109.38 89.2741 110.098C89.2741 112.103 89.2741 113.77 89.2741 115.638C89.2669 117.507 89.2741 119.166 89.2741 121.178C89.2741 121.875 88.7567 122.457 88.1244 122.472Z" fill="#FFF0B2"/>
<path d="M88.1245 139.236C77.8419 139.868 67.8683 140.486 57.6 141.119C56.3425 141.198 55.0347 141.277 53.6551 141.363C53.0227 141.399 52.5054 140.795 52.5054 140.005C52.5054 137.784 52.5054 135.945 52.5054 133.883C52.5126 131.813 52.5054 129.981 52.5054 127.761C52.5054 126.97 53.0227 126.323 53.6551 126.309C55.0347 126.28 56.3425 126.252 57.6 126.223C67.8683 125.993 77.8347 125.77 88.1245 125.533C88.7569 125.519 89.2742 126.086 89.2742 126.798C89.2814 128.802 89.2742 130.47 89.2742 132.338C89.2671 134.206 89.2742 135.866 89.2742 137.878C89.2742 138.589 88.7569 139.2 88.1245 139.236Z" fill="#FFAB00"/>
<path d="M134.091 150.589C125.015 151.574 116.227 152.529 107.181 153.507C104.702 153.773 102.215 154.046 99.6284 154.326C98.9961 154.398 98.4787 153.888 98.4787 153.198C98.4787 150.561 98.4787 148.642 98.4787 146.17C98.4931 140.379 97.753 141.234 103.573 140.81C113.842 140.098 123.808 139.408 134.098 138.697C134.73 138.654 135.248 139.121 135.248 139.739C135.248 142.089 135.248 143.806 135.248 146.005C135.248 147.004 135.248 148.067 135.248 149.353C135.24 149.964 134.723 150.517 134.091 150.589Z" fill="#2684FF"/>
<path d="M134.702 121.832C124.419 121.976 114.446 122.113 104.177 122.249C98.4216 122.292 99.0826 123.14 99.0826 117.32C99.0826 114.855 99.0826 112.937 99.0826 110.3C99.0826 109.61 99.6 109.056 100.232 109.078C103.947 109.171 107.533 109.265 111.155 109.358C117.744 109.524 124.146 109.689 130.757 109.861C132.014 109.89 133.322 109.926 134.702 109.962C135.334 109.976 135.852 110.494 135.852 111.112C135.852 114.64 135.852 117.183 135.852 120.704C135.852 121.315 135.334 121.818 134.702 121.832Z" fill="#B2D4FF"/>
<path d="M134.702 135.895C124.419 136.513 114.446 137.116 104.177 137.734C98.4216 138.036 99.0826 138.884 99.0826 133.042C99.0826 130.57 99.0826 128.659 99.0826 126.022C99.0826 125.332 99.6 124.757 100.232 124.743C102.819 124.685 105.305 124.635 107.784 124.585C116.831 124.398 125.619 124.211 134.695 124.017C135.327 124.003 135.844 124.491 135.844 125.109C135.844 127.459 135.844 129.162 135.844 131.361C135.844 132.359 135.844 133.423 135.844 134.702C135.852 135.327 135.334 135.859 134.702 135.895Z" fill="#B2D4FF"/>
<path d="M134.702 107.763C123.097 107.382 111.837 107.016 100.232 106.635C99.5999 106.613 99.0825 106.038 99.0825 105.341C99.0825 102.704 99.0825 100.793 99.0825 98.321C99.0825 97.2072 99.0825 96.0072 99.0825 94.5701C99.0825 93.8803 99.5999 93.3557 100.232 93.3988C106.067 93.8156 111.7 94.2252 117.463 94.642C121.911 94.9653 126.251 95.2743 130.757 95.5976C132.014 95.6911 133.322 95.7845 134.702 95.8779C135.334 95.921 135.851 96.4599 135.851 97.0779C135.851 100.606 135.851 103.15 135.851 106.671C135.851 107.303 135.334 107.784 134.702 107.763Z" fill="#B2D4FF"/>
<path d="M61.2356 97.9833C61.2356 99.0827 60.8692 100.053 60.2728 100.75C59.6764 101.447 58.8572 101.856 57.9518 101.82C57.0464 101.785 56.2272 101.296 55.6308 100.541C55.0344 99.7869 54.668 98.7594 54.668 97.6384C54.668 96.5247 55.0344 95.533 55.6308 94.836C56.2272 94.139 57.0464 93.7438 57.9518 93.8013C58.8572 93.8588 59.6764 94.3546 60.2728 95.1163C60.8692 95.8708 61.2356 96.8839 61.2356 97.9833Z" fill="#FFC400"/>
<path d="M61.2356 115.459C61.2356 116.558 60.8692 117.55 60.2728 118.268C59.6764 118.987 58.8572 119.44 57.9518 119.447C57.0464 119.454 56.2272 119.008 55.6308 118.275C55.0344 117.55 54.668 116.537 54.668 115.416C54.668 114.302 55.0344 113.289 55.6308 112.57C56.2272 111.852 57.0464 111.413 57.9518 111.428C58.8572 111.442 59.6764 111.902 60.2728 112.635C60.8692 113.368 61.2356 114.367 61.2356 115.459Z" fill="#FFC400"/>
<path d="M108.158 100.434C108.158 101.397 107.792 102.244 107.195 102.848C106.599 103.452 105.78 103.811 104.874 103.775C103.969 103.739 103.15 103.308 102.553 102.64C101.957 101.971 101.59 101.066 101.59 100.089C101.59 99.1115 101.957 98.242 102.553 97.6384C103.15 97.0349 103.969 96.6899 104.874 96.7474C105.78 96.8049 106.599 97.2504 107.195 97.9115C107.792 98.5869 108.158 99.478 108.158 100.434Z" fill="#4C9AFF"/>
<path d="M108.158 115.739C108.158 116.702 107.792 117.564 107.195 118.196C106.599 118.829 105.78 119.224 104.874 119.231C103.969 119.238 103.15 118.843 102.553 118.204C101.957 117.564 101.59 116.68 101.59 115.696C101.59 114.719 101.957 113.835 102.553 113.202C103.15 112.57 103.969 112.189 104.874 112.204C105.78 112.218 106.599 112.62 107.195 113.26C107.792 113.907 108.158 114.776 108.158 115.739Z" fill="#4C9AFF"/>
<path d="M108.158 131.037C108.158 132 107.792 132.884 107.195 133.545C106.599 134.206 105.78 134.637 104.874 134.687C103.969 134.731 103.15 134.378 102.553 133.768C101.957 133.157 101.59 132.287 101.59 131.31C101.59 130.333 101.957 129.428 102.553 128.774C103.15 128.113 103.969 127.696 104.874 127.667C105.78 127.638 106.599 128.005 107.195 128.616C107.792 129.219 108.158 130.074 108.158 131.037Z" fill="#4C9AFF"/>
<path d="M65.5699 94.1504L65.4802 95.6135L85.8128 96.8602L85.9025 95.3972L65.5699 94.1504Z" fill="#FFC400"/>
<path d="M65.559 97.4729L65.4819 98.9438L85.8103 100.009L85.8874 98.5375L65.559 97.4729Z" fill="#FFC400"/>
<path d="M65.5513 100.797L65.4878 102.262L78.3457 102.819L78.4092 101.355L65.5513 100.797Z" fill="#FFC400"/>
<path d="M111.895 96.9908L111.805 98.4539L132.138 99.7006L132.228 98.2375L111.895 96.9908Z" fill="#4C9AFF"/>
<path d="M111.891 99.9005L111.814 101.371L132.143 102.436L132.22 100.965L111.891 99.9005Z" fill="#4C9AFF"/>
<path d="M111.878 102.806L111.815 104.271L124.673 104.828L124.736 103.364L111.878 102.806Z" fill="#4C9AFF"/>
<path d="M65.5325 110.989L65.509 112.462L85.8423 112.785L85.8657 111.312L65.5325 110.989Z" fill="#FFC400"/>
<path d="M65.5296 114.33L65.5193 115.796L85.8546 115.939L85.8649 114.473L65.5296 114.33Z" fill="#FFC400"/>
<path d="M78.3793 117.632L65.5242 117.656L65.527 119.122L78.3821 119.098L78.3793 117.632Z" fill="#FFC400"/>
<path d="M111.866 111.734L111.842 113.207L132.176 113.533L132.199 112.06L111.866 111.734Z" fill="#4C9AFF"/>
<path d="M111.855 114.655L111.845 116.121L132.18 116.263L132.19 114.797L111.855 114.655Z" fill="#4C9AFF"/>
<path d="M124.705 117.545L111.85 117.57L111.853 119.036L124.708 119.011L124.705 117.545Z" fill="#4C9AFF"/>
<path d="M132.156 126.594L111.823 127.235L111.87 128.7L132.202 128.06L132.156 126.594Z" fill="#4C9AFF"/>
<path d="M132.167 129.319L111.833 130.155L111.894 131.627L132.227 130.791L132.167 129.319Z" fill="#4C9AFF"/>
<path d="M124.687 132.427L111.826 133.067L111.899 134.538L124.76 133.898L124.687 132.427Z" fill="#4C9AFF"/>
<path d="M123.435 155.691C115.811 156.568 108.438 157.416 100.879 158.285C97.1208 158.716 93.4345 159.14 89.6046 159.586C88.2106 159.744 86.7591 159.916 85.2357 160.089C84.5315 160.168 83.9639 159.571 83.9639 158.745C83.9639 154.225 83.9639 150.482 83.9639 145.969C83.9639 145.15 84.5315 144.438 85.2357 144.388C86.7663 144.273 88.2178 144.165 89.6046 144.058C95.7483 143.591 101.691 143.138 107.791 142.678C113.008 142.283 118.132 141.895 123.442 141.492C124.146 141.442 124.714 141.995 124.714 142.735C124.714 144.266 124.714 145.545 124.714 146.731C124.706 149.361 124.714 151.401 124.714 154.211C124.706 154.951 124.139 155.612 123.435 155.691Z" fill="white"/>
<path d="M94.62 151.344C94.62 152.486 94.2105 153.557 93.5566 154.369C92.9027 155.188 91.9901 155.749 90.9913 155.856C89.9853 155.964 89.0799 155.591 88.426 154.901C87.7721 154.211 87.3625 153.198 87.3625 152.034C87.3625 150.87 87.7721 149.785 88.426 148.965C89.0799 148.146 89.9925 147.607 90.9913 147.521C91.9973 147.435 92.9027 147.823 93.5566 148.513C94.2176 149.21 94.62 150.201 94.62 151.344Z" fill="#0065FF"/>
<path d="M99.4129 148.247L99.2907 147.442L99.2764 146.623L121.76 144.676L121.897 146.299L99.4129 148.247Z" fill="#0065FF"/>
<path d="M121.752 147.936L99.2192 150.082L99.3739 151.706L121.907 149.56L121.752 147.936Z" fill="#0065FF"/>
<path d="M114.096 151.989L99.2095 153.536L99.3781 155.159L114.265 153.611L114.096 151.989Z" fill="#0065FF"/>
<path d="M303.305 13.4515H302.551V75.1043H303.305V13.4515Z" fill="#0065FF"/>
<path d="M269.72 134.45C270.309 135.334 270.934 136.398 271.502 137.641C272.314 139.416 272.788 141.061 273.076 142.412C273.14 142.563 273.205 142.75 273.248 142.972C273.284 143.166 273.306 143.36 273.306 143.555V156.51L271.509 156.481C271.437 155.289 271.344 154.326 271.279 153.679C270.906 150.05 270.446 148.441 270.417 145.408C270.41 144.711 270.431 144.144 270.446 143.792C270.424 143.619 270.381 143.368 270.295 143.073C270.029 142.175 269.569 141.586 269.404 141.37C268.793 140.565 267.464 138.582 265.667 135.873L269.72 134.45Z" fill="#CF9E76"/>
<path d="M242.889 113.526L242.91 106.527" stroke="#36B37E" stroke-width="0.75212" stroke-miterlimit="10"/>
<path d="M260.048 181.243C260.048 183.054 260.221 184.477 260.386 185.461C260.53 186.309 260.731 187.265 260.975 188.961C261.069 189.636 261.14 190.189 261.184 190.563C260.975 190.57 260.795 190.577 260.673 190.585C260.156 190.606 260.005 190.599 259.732 190.642C259.595 190.664 259.488 190.7 259.265 190.764C258.999 190.843 258.92 190.886 258.898 190.958C258.891 190.987 258.877 191.066 258.985 191.21C259.358 191.72 259.976 191.684 260.831 192.151C261.248 192.374 261.298 192.489 261.643 192.589C261.873 192.654 262.319 192.791 262.678 192.575C262.786 192.51 263.224 192.331 263.152 191.619C263.102 191.123 263.059 190.498 263.052 189.787C263.037 188.422 263.174 187.473 263.44 185.533C263.548 184.735 263.742 183.306 264.043 181.064C262.721 181.128 261.385 181.186 260.048 181.243Z" fill="#6C798F"/>
<path d="M264.007 181.322C264.244 179.411 264.331 177.183 264.072 174.719C264 174.007 263.899 173.325 263.784 172.671C264.302 170.81 264.517 169.272 264.625 168.194C264.747 166.937 264.949 163.911 264.963 162.726C264.963 162.575 264.977 162.029 265.064 161.31C265.085 161.152 265.107 160.994 265.15 160.743C265.444 159.083 266.752 152.012 266.407 149.44C266.235 148.139 265.962 147.083 265.753 146.364C265.689 146.077 265.595 145.761 265.473 145.423C265.322 145.02 265.157 144.675 264.999 144.381C264.805 144.446 264.489 144.532 264.093 144.611C263.756 144.675 263.49 144.704 263.346 144.726C262.541 144.841 261.018 145.02 256.893 145.337C256.699 145.581 256.419 145.955 256.117 146.422C255.04 148.125 254.652 149.677 254.486 150.352C251.691 161.849 251.131 166.347 251.131 166.347C250.721 168.625 250.319 170.91 249.909 173.188C249.873 174.503 249.808 175.861 249.729 177.248C249.636 178.822 249.514 180.345 249.37 181.818C250.606 181.962 251.835 182.105 253.071 182.256C253.308 180.898 253.365 179.777 253.365 178.994C253.365 177.42 253.171 176.472 253.466 174.949C253.61 174.208 253.811 173.612 253.969 173.224C254.285 172.635 254.731 171.751 255.169 170.652C256.146 168.216 256.311 166.721 256.764 165.032C257.72 161.454 259.638 158.299 260.105 158.458C260.745 158.666 257.993 164.975 259.624 171.384C259.696 171.658 260.07 172.584 260.192 173.892C260.307 175.085 260.163 175.89 260.062 176.867C259.962 177.887 259.89 179.368 260.048 181.236C261.37 181.272 262.685 181.293 264.007 181.322Z" fill="#CF9E76"/>
<path d="M268.678 134.501C267.989 133.746 267.536 132.927 265.941 132.266C264.08 131.497 260.99 131.634 258.439 131.476C255.931 131.317 254.609 131.238 252.92 130.534C251.627 129.995 250.908 129.42 248.724 128.486C247.574 127.998 246.604 127.653 245.943 127.444C245.943 126.733 245.907 125.576 245.634 124.189C245.174 121.796 244.441 120.826 243.967 118.491C243.802 117.665 243.608 116.4 243.636 114.783C243.421 114.769 243.119 114.74 242.738 114.683C242.724 114.683 242.674 114.676 242.602 114.661C242.357 114.618 242.005 114.561 241.56 114.453C241.438 116.242 241.387 118.218 241.481 120.352C241.617 123.579 242.041 126.46 242.551 128.917C246.324 132.438 249.371 134.026 251.577 134.817C252.575 135.176 254.904 135.974 255.945 138.036C256.298 138.726 256.326 139.344 256.384 140.055C256.477 141.219 256.456 143.339 255.284 145.969C256.872 146.127 258.482 146.271 260.106 146.414C262.125 146.587 264.123 146.745 266.099 146.882C266.02 144.661 266.178 141.679 267.177 138.345C267.622 136.886 268.147 135.607 268.678 134.501Z" fill="#CF9E76"/>
<path d="M260.199 127.2C260.3 127.286 261.651 128.486 261.385 130.204C261.234 131.217 260.602 131.856 260.372 132.065C262.297 132.309 264.216 132.546 266.142 132.79C266.034 132.676 265.445 132.014 265.495 131.016C265.545 130.11 266.084 129.55 266.214 129.42C264.209 128.687 262.204 127.947 260.199 127.2Z" fill="#B08874"/>
<path d="M264.92 121.179C264.266 120.431 262.161 120.783 260.838 121.523C260.3 121.825 259.329 122.371 258.855 123.442C258.518 124.211 258.496 125.095 257.763 125.547C257.555 125.677 257.404 125.698 257.217 125.9C256.872 126.273 256.779 126.884 256.908 127.351C256.965 127.559 257.138 127.976 258.712 128.831C258.805 128.882 258.898 128.932 259.006 128.989C260.034 129.521 261.291 129.205 261.952 128.264C265.301 123.449 265.452 121.789 264.92 121.179Z" fill="#172B4D"/>
<path d="M262.635 121.006C261.823 121.674 260.896 123.061 260.494 123.794C260.436 123.923 260.415 123.988 260.127 124.11C259.84 124.232 259.466 124.261 259.516 124.47C259.567 124.678 259.947 124.987 259.976 125.167L259.337 127.969L260.436 128.515L264.158 130.355C264.122 130.197 263.052 126.23 263.08 126.007C263.109 125.785 263.195 125.332 262.951 125.195C262.707 125.059 262.498 122.774 262.405 122.465C262.312 122.149 262.347 122.07 262.455 121.667C262.563 121.258 262.635 121.006 262.635 121.006Z" fill="#CF9E76"/>
<path d="M262.606 121.028C262.175 122.163 262.312 122.996 262.441 123.737C262.541 124.29 262.908 126.388 261.816 128.105C261.234 129.018 261.629 130.254 262.621 130.692C263.203 130.944 263.734 131.174 264.295 131.253C264.74 131.31 265.48 131.404 266.221 131.131C267.557 130.635 268.118 129.234 268.427 128.443C268.534 128.163 269.088 126.719 268.728 124.908C268.642 124.477 268.513 124.082 268.412 123.83C267.844 122.429 265.301 120.072 262.606 121.028Z" fill="#172B4D"/>
<path d="M242.896 110.767C242.788 110.838 242.767 110.767 242.472 110.86C242.422 110.874 242.063 110.996 241.804 111.241C241.516 111.514 241.445 111.844 241.344 112.333C241.294 112.592 241.2 113.073 241.308 113.698C241.358 113.986 241.437 114.431 241.746 114.877C242.163 115.466 242.961 116.005 243.349 115.789C243.557 115.674 243.543 115.394 243.643 114.805C243.845 113.562 244.096 113.612 244.189 112.8C244.29 111.967 244.01 112.024 243.751 109.983C243.651 109.186 243.615 108.568 243.464 108.553C243.356 108.546 243.241 108.855 243.198 108.992C242.882 109.861 243.234 110.529 242.896 110.767Z" fill="#CF9E76"/>
<path d="M251.576 134.824C253.524 135.773 255.191 136.541 255.945 138.043C255.945 138.043 256.362 138.927 256.384 140.062C256.47 144.309 249.917 164.774 249.363 166.484C250.887 167.512 253.459 168.97 256.951 169.717C261.105 170.616 264.561 170.084 266.465 169.646C267.061 164.3 266.86 160.024 266.839 157.193C266.788 149.957 265.754 146.371 266.896 140.3C267.723 137.634 268.915 135.643 269.713 134.458C269.275 133.897 268.52 133.085 267.37 132.46C266.501 131.993 265.682 131.777 264.568 131.612C261.859 131.21 260.616 131.562 258.432 131.483C256.261 131.397 254.666 130.944 253.33 130.563L251.576 134.824Z" fill="url(#paint7_linear)"/>
<path d="M266.709 166.951C266.752 166.319 266.788 165.708 266.817 165.112C264.496 165.428 261.665 165.665 258.51 165.061C255.356 164.458 252.711 163.502 250.613 162.553C250.434 163.136 250.268 163.66 250.117 164.134C252.244 165.327 254.968 166.398 258.101 167.023C261.392 167.684 264.266 167.382 266.709 166.951Z" fill="#6C798F"/>
<path d="M258.51 161.21C255.859 160.7 253.567 159.945 251.655 159.155C251.469 159.765 251.289 160.355 251.116 160.922C253.071 161.842 255.442 162.647 258.101 163.179C261.464 163.854 264.388 163.768 266.867 163.459C266.882 162.884 266.889 162.324 266.889 161.792C264.554 161.907 261.708 161.821 258.51 161.21Z" fill="#6C798F"/>
<path d="M249.471 180.374C249.284 182.795 249.219 184.75 249.191 186.043C249.119 189.054 249.227 190.132 248.386 190.965C247.172 192.165 244.966 191.907 244.966 192.345C244.966 192.568 245.526 192.726 245.785 192.798C246.819 193.092 247.294 192.762 248.53 192.747C249.952 192.733 250.463 193.164 250.937 192.769C251.31 192.46 251.354 191.892 251.325 191.44C251.296 191.238 251.26 190.937 251.246 190.563C251.196 189.241 251.885 186.862 252.108 186.259C252.525 185.123 252.992 183.471 253.193 181.236C251.95 180.941 250.714 180.661 249.471 180.374Z" fill="#6C798F"/>
<path d="M247.208 191.67C247.746 191.72 248.3 191.713 248.846 191.691C249.227 191.677 249.658 191.397 249.974 191.145C250.312 190.872 250.714 190.707 251.145 190.635C251.188 190.628 251.224 190.62 251.253 190.613C251.267 190.951 251.303 191.238 251.325 191.425C251.354 191.878 251.311 192.446 250.937 192.755C250.463 193.15 249.952 192.719 248.53 192.733C247.301 192.747 246.819 193.078 245.785 192.783C245.533 192.711 244.966 192.546 244.966 192.331C244.958 192.029 246.108 192.072 247.208 191.67Z" fill="#172B4D"/>
<path d="M259.732 190.642C259.869 190.606 259.991 190.592 260.285 190.577C260.429 190.57 260.501 190.57 260.594 190.57C260.717 190.57 260.824 190.577 260.925 190.585C260.652 190.635 260.422 190.743 260.415 190.865C260.4 190.994 260.637 191.109 260.968 191.274C261.133 191.361 261.227 191.389 261.313 191.375C261.579 191.346 261.586 191.052 261.917 190.951C261.981 190.929 262.111 190.922 262.376 190.908C262.527 190.901 262.578 190.901 262.678 190.886C262.815 190.865 262.923 190.822 263.095 190.771C263.109 191.08 263.138 191.368 263.16 191.619C263.231 192.331 262.793 192.51 262.685 192.575C262.333 192.791 261.881 192.654 261.651 192.589C261.306 192.489 261.255 192.374 260.839 192.151C259.976 191.684 259.358 191.72 258.992 191.21C258.934 191.131 258.884 191.044 258.906 190.958C258.913 190.908 258.963 190.829 259.732 190.642Z" fill="#172B4D"/>
<path d="M273.147 155.784L273.198 156.022C273.535 157.71 273.722 159.277 273.305 160.951C273.305 160.951 272.479 161.892 272.005 161.77C271.66 161.677 271.401 161.382 271.358 161.03L271.056 158.522L270.805 159.816C270.805 159.816 270.539 159.959 270.467 159.895C270.287 159.729 270.352 159.047 270.352 159.047C270.352 157.911 270.582 156.79 271.028 155.749L271.437 154.793L273.147 155.784Z" fill="#CF9E76"/>
<path d="M360.762 6.08624C360.316 6.26588 361.387 8.09821 360.661 9.99522C359.943 11.8635 358.211 11.8563 357.881 13.6096C357.701 14.5509 357.967 15.8012 358.736 16.1749C359.727 16.6563 361.107 15.4635 361.272 15.3198C363.248 13.6096 363.528 10.2252 362.393 7.89702C361.912 6.89103 361.1 5.94971 360.762 6.08624Z" fill="#253858"/>
<path d="M359.806 13.0205C359.181 14.1055 358.542 15.3127 357.931 16.6277C357.212 18.1726 356.637 19.6384 356.17 20.9893C356.163 20.9893 352.851 20.1127 352.843 20.1055C351.737 19.8684 350.623 19.6313 349.517 19.2217C349.33 19.6456 348.863 20.2205 348.676 20.6444C350.882 21.8444 353.088 23.0444 355.287 24.2516C355.358 24.3091 356.077 24.8552 356.99 24.5893C357.837 24.345 358.168 23.5977 358.204 23.4971C359.72 21.0756 361.236 18.654 362.745 16.2325C363.018 13.7893 362.451 12.0648 361.617 11.8708C360.927 11.7199 360.144 12.5965 359.806 13.0205Z" fill="#C99F9B"/>
<path d="M361.79 8.68035C361.883 9.08275 361.962 9.57856 361.977 10.1462C361.998 11.0085 361.862 11.7342 361.711 12.2588C362.214 12.3953 363.026 12.5534 364.024 12.4456C364.887 12.3522 365.569 12.0935 366.008 11.8851C365.886 11.3893 365.756 10.5845 365.9 9.6073C366.065 8.45041 366.532 7.61688 366.827 7.16418C365.145 7.67436 363.464 8.17736 361.79 8.68035Z" fill="#E0ADA6"/>
<path d="M360.618 27.8156C349.552 31.5162 345.787 35.5545 345.687 36.6396C345.212 42.0001 344.745 47.3677 344.271 52.7282H348.338C349.574 49.7031 350.745 46.0671 351.514 41.8779C351.816 40.218 352.031 38.63 352.168 37.1354C355.94 36.2803 359.72 35.4252 363.493 34.5701C363.794 34.1965 365.454 32.0623 364.951 29.3102C364.736 28.1246 364.197 27.248 363.809 26.7306C363.011 26.9893 361.919 27.3773 360.618 27.8156Z" fill="url(#paint8_linear)"/>
<path d="M352.57 50.9534C352.57 45.9593 352.103 41.0228 352.455 35.9857C352.513 35.1234 353.023 34.3545 353.77 33.9234L366.561 26.6228L369.837 26.7737C370.197 26.8384 370.757 26.9893 371.253 27.4204C372.065 28.1246 372.216 29.1378 372.345 29.9713C372.46 30.7186 372.424 31.3509 372.374 31.7677C372.36 31.7749 372.338 31.7749 372.324 31.7821C369.643 32.9462 365.433 34.7785 362.752 35.9498L358.585 38.7881C358.671 40.1533 358.671 41.7414 358.477 43.4947C358.161 46.4048 357.421 48.8192 356.709 50.63C355.33 50.7378 353.95 50.8456 352.57 50.9534Z" fill="url(#paint9_linear)"/>
<path d="M348.985 18.8551L347.957 17.6551L346.635 17.3246C346.362 17.3174 346.153 17.2599 346.01 17.2024C345.801 17.1234 345.643 17.0084 345.514 17.0803C345.464 17.109 345.413 17.1665 345.406 17.2312C345.385 17.3533 345.507 17.4683 345.701 17.6336C345.866 17.7773 346.06 17.9354 346.276 18.115C345.952 18.23 345.629 18.3521 345.305 18.4671L344.371 18.1581L344.573 18.7114L346.987 19.933L348.74 20.6803L349.509 19.236L348.985 18.8551Z" fill="#C99F9B"/>
<path d="M352.499 54.1941C352.542 53.921 352.563 53.6336 352.556 53.3461C352.534 52.3689 352.542 51.3917 352.534 50.4216L356.688 50.4072C356.695 51.9306 356.587 53.5114 356.774 55.0276C356.896 56.0264 356.932 58.0096 355.631 58.2467C355.387 58.2899 355.042 58.3402 354.611 58.3402L354.496 58.8144C354.439 59.0444 353.979 59.4036 353.806 59.5689C353.512 59.8563 353.188 60.1222 352.858 60.3593C352.139 60.8767 351.342 61.3366 350.487 61.5665C350.113 61.6671 349.725 61.739 349.344 61.6599C349.243 61.6384 348.23 61.2 348.324 61.0851C349.294 59.9282 350.278 58.7785 351.083 57.4994C351.723 56.4719 352.319 55.3869 352.499 54.1941Z" fill="#344563"/>
<path d="M338.551 59.0516C340.678 58.3906 342.324 56.8241 344.027 55.466H344.041L344.472 51.4564L348.518 51.8876L348.015 56.5941C347.907 57.557 347.777 58.4409 347.461 59.3606C347.44 59.4181 347.418 59.4828 347.382 59.5331C347.066 60.0073 345.981 59.9786 345.521 59.8421C345.248 59.763 345.033 59.6409 344.867 59.5259C344.752 59.4468 343.423 60.0648 343.222 60.1223C342.618 60.3091 341.993 60.4528 341.368 60.5391C340.513 60.6612 339.643 60.6684 338.781 60.5678C338.393 60.5247 336.963 60.4672 336.913 59.8995C336.862 59.4037 338.206 59.1594 338.551 59.0516Z" fill="#344563"/>
<path d="M370.678 12.0144C372.079 13.0707 372.094 15.9665 371.706 17.6121C371.519 18.4097 371.203 19.0348 371.339 20.0552C371.454 20.939 371.792 21.1977 371.785 22.0959C371.778 23.03 371.418 23.0516 371.361 23.9857C371.289 25.2935 371.964 25.7821 371.648 26.5151C371.519 26.824 371.196 27.2192 370.312 27.4851C368.99 27.636 367.861 27.751 366.992 27.83C365.217 27.9953 364.649 28.024 363.981 27.9881C362.954 27.9306 362.099 27.7725 361.459 27.6216C361.15 27.3701 360.755 26.9677 360.59 26.3785C360.417 25.7821 360.597 25.43 360.69 24.7546C360.92 23.0372 360.058 22.7857 360.166 20.745C360.209 19.9402 360.352 19.6815 360.18 19.1139C359.986 18.4959 359.655 18.3234 359.39 17.5474C359.318 17.3534 359.152 16.8504 359.16 16.2468C359.174 15.2264 359.799 14.9318 360.008 13.7534C360.087 13.2935 360.072 12.9127 360.058 12.6755C360.295 12.3881 360.525 12.1941 360.69 12.0719C361.164 11.7198 361.488 11.6624 361.675 11.2815C361.703 11.2312 361.725 11.1665 361.782 10.8144C361.869 10.3258 361.905 9.92343 361.919 9.65756C362.638 9.51385 363.579 9.39888 364.671 9.49229C365.246 9.53541 365.756 9.62882 366.202 9.7366C366.209 10.0168 366.266 10.5055 366.59 10.9222C367.495 12.1222 369.378 11.03 370.678 12.0144Z" fill="url(#paint10_linear)"/>
<path d="M360.582 1.81091C360.065 2.35701 359.763 3.07558 359.727 3.82288L359.706 4.25402C359.706 4.25402 359.727 4.49833 359.131 5.31031C358.951 5.56181 359.921 5.82049 359.921 5.82049C359.878 6.33785 359.936 6.73306 360 6.99893C360.036 7.1642 360.065 7.20732 360.144 7.52348C360.309 8.18456 360.281 8.27797 360.36 8.40732C360.489 8.62288 360.863 8.8169 361.984 8.666C363.334 8.22049 364.276 8.18456 364.908 8.24923C365.116 8.27079 365.576 8.32827 366.029 8.09115C366.453 7.86839 366.69 7.47318 366.827 7.1642C367.128 6.81211 367.373 6.40253 367.538 5.9642C367.998 4.74264 367.912 3.35582 367.2 2.2636C367.028 1.99773 366.834 1.75342 366.611 1.53067C365.878 0.797732 364.815 0.495935 363.787 0.646834L362.393 0.855217C361.696 0.963002 361.064 1.30073 360.582 1.81091Z" fill="#E0ADA6"/>
<path d="M359.469 22.7786C352.082 19.9546 344.422 17.7702 336.683 16.2828C324.446 13.9331 311.893 13.2936 299.375 14.3714L299.26 13.0421C311.9 11.9498 324.575 12.5966 336.935 14.9678C344.745 16.4696 352.491 18.6756 359.943 21.5211L359.469 22.7786Z" fill="#0052CC"/>
<path d="M343.911 17.1305C343.797 17.1952 343.753 17.497 344.12 18.618L347.317 19.4228C346.951 18.8838 346.577 18.3449 346.211 17.8132C346.132 17.7198 345.701 17.1808 345.557 17.2599C345.442 17.3245 345.564 17.7341 345.615 17.9066C345.507 17.7413 345.399 17.6192 345.32 17.5329C345.226 17.4251 345.169 17.3748 345.097 17.3317C345.011 17.2742 344.896 17.2024 344.795 17.2311C344.666 17.2671 344.587 17.4898 344.616 17.7701C344.422 17.6335 344.335 17.4898 344.3 17.382C344.264 17.2886 344.256 17.2024 344.177 17.1521C344.098 17.0874 343.969 17.0946 343.911 17.1305Z" fill="#C99F9B"/>
<path d="M345.737 18.7617H346.132C346.757 18.7617 347.354 18.9845 347.828 19.3941L348.252 19.7605H346.642L345.737 18.7617Z" fill="#C99F9B"/>
<path d="M357.55 20.1701L356.4 19.2288L355.121 19.1354L354.173 18.7617L353.907 19.2216L354.913 19.9258L354.072 20.4144L353.152 20.2851L353.433 20.7665L355.876 21.4994L357.622 21.909L358.103 20.436L357.55 20.1701Z" fill="#E0ADA6"/>
<path d="M365.569 21.909C364.973 21.6503 364.448 21.4851 364.039 21.3845C362.386 20.9677 361.502 21.212 359.67 20.8527C359.03 20.7306 358.499 20.5725 358.103 20.436C357.945 20.9246 357.787 21.4204 357.622 21.909C358.499 22.4479 359.483 23.0012 360.583 23.5186C362.393 24.3737 364.111 24.9485 365.627 25.3438C366.101 25.4659 366.604 25.3006 366.92 24.9198C368.214 23.3318 369.054 21.8659 369.601 20.7665C371.684 16.5198 371.878 14.0408 370.959 13.1857C370.47 12.733 369.658 12.6539 369.098 12.8623C368.63 13.0348 368.329 13.4084 367.56 15.2479C366.913 16.7929 366.41 18.0288 365.957 19.9905C365.763 20.7737 365.641 21.4348 365.569 21.909Z" fill="#E0ADA6"/>
<path d="M359.224 3.32699C359.799 3.36292 360.388 3.41322 360.992 3.4707C361.596 3.52819 362.185 3.59286 362.76 3.66471C362.695 4.21082 362.63 4.75693 362.652 5.31022C362.702 6.3737 363.083 7.39405 363.327 8.42879C363.579 9.46352 363.679 10.606 363.205 11.5545C362.681 12.6036 362.422 12.812 362.451 13.5521C362.487 14.5366 363.313 15.636 364.312 15.8372C365.655 16.1102 366.949 14.709 367.488 14.1198C368.594 12.9198 368.817 11.7917 369.694 11.7054C370.125 11.6623 370.506 11.8923 370.757 12.0935C371.009 11.5545 371.497 10.2971 371.232 8.76651C371.066 7.82519 370.685 7.14974 370.585 6.97729C370.132 6.20843 369.873 6.1725 369.327 5.46112C368.781 4.74974 368.544 3.84435 368.257 2.99645C367.962 2.14136 367.567 1.26471 366.812 0.768903C366.345 0.459921 365.785 0.323394 365.239 0.222795C364.254 0.0287833 363.234 -0.0861868 362.25 0.107825C361.775 0.201238 360.92 0.44555 360.187 1.22878C359.447 2.02639 359.275 2.96052 359.224 3.32699Z" fill="#253858"/>
<path d="M146.213 162.97C146.63 163.25 147.478 163.746 148.671 163.89C150.036 164.055 151.099 163.667 151.566 163.459C151.38 163.006 151.085 162.115 151.164 160.973C151.257 159.737 151.739 158.853 152.005 158.436C150.158 158.156 148.311 157.868 146.457 157.588C146.378 159.385 146.292 161.174 146.213 162.97Z" fill="#B5917C"/>
<path d="M150.884 158.932C151.423 158.709 152.343 158.22 152.939 157.236C154.125 155.274 153.507 152.17 151.373 150.862C148.994 149.404 145.552 150.69 145.099 152.206C145.042 152.393 145.042 152.544 145.049 152.666C145.114 154.355 145.962 156.072 146.745 157.322C148.125 157.861 149.504 158.393 150.884 158.932Z" fill="url(#paint11_linear)"/>
<path d="M145.099 152.206C145.006 152.616 144.848 153.176 144.589 153.83C144.446 154.189 144.323 154.441 144.295 154.505C144.086 154.937 143.749 155.54 143.231 156.201C143.526 156.331 143.813 156.46 144.108 156.589C144.137 157.617 144.165 158.652 144.194 159.679C145.732 160.455 147.076 160.671 147.909 160.735C149.008 160.822 150.129 160.908 150.812 160.211C151.099 159.916 151.114 159.686 151.681 158.881C152.055 158.357 152.393 157.955 152.623 157.703C151.847 158.084 151.02 158.12 150.503 157.717C150.165 157.452 150.022 157.114 150.022 157.114C149.813 156.611 150.029 156.23 149.784 156.007C149.619 155.864 149.353 155.864 149.202 155.928C148.656 156.151 148.556 157.337 148.556 157.337H148.541C148.534 157.337 148.333 157.286 147.737 157.128C147.837 156.41 147.729 155.899 147.614 155.562C147.349 154.786 146.946 154.685 146.795 153.952C146.644 153.219 146.961 152.917 146.716 152.558C146.544 152.321 146.149 152.098 145.099 152.206Z" fill="#B5917C"/>
<path d="M119.72 156.841C119.432 157.401 121.135 159.083 117.686 157.085C117.478 156.963 116.508 156.647 116.07 155.655C115.617 154.62 116.436 153.952 115.89 153.047C115.595 152.558 115.193 152.486 115.042 151.897C114.934 151.48 114.984 150.956 115.186 150.884C115.416 150.805 115.66 151.38 116.486 152.235C117.305 153.083 117.471 152.946 118.067 153.694C118.311 154.003 118.434 154.211 118.965 154.879C119.246 155.231 119.274 155.253 119.361 155.389C119.547 155.698 119.957 156.388 119.72 156.841Z" fill="url(#paint12_linear)"/>
<path d="M142.757 181.61L162.639 223.207L166.606 222.668C165.471 217.545 163.847 211.883 161.511 205.904C160.563 203.49 159.578 201.205 158.565 199.049C158.084 194.378 157.128 189.377 155.483 184.189C155.267 183.507 155.044 182.838 154.814 182.177C150.79 181.99 146.774 181.804 142.757 181.61Z" fill="url(#paint13_linear)"/>
<path d="M117.076 156.819C116.486 156.597 115.279 156.058 114.352 154.843C113.914 154.261 113.741 153.801 113.396 152.867C113.202 152.343 113.138 152.026 113.296 151.811C113.476 151.567 113.864 151.574 114.144 151.574C114.826 151.581 115.337 151.854 115.437 151.911C116.501 152.508 117.14 153.593 118.06 154.8C119.397 156.568 120.173 157.056 120 157.351C119.899 157.538 119.44 157.696 117.076 156.819Z" fill="url(#paint14_linear)"/>
<path d="M142.757 181.408C142.829 186.668 142.85 191.993 142.822 197.389C142.771 207.693 142.549 217.761 142.168 227.569C143.655 227.569 145.143 227.569 146.63 227.569C147.945 223.459 149.167 218.285 149.626 212.249C149.871 209.016 149.864 206.034 149.713 203.361C150.525 198.187 151.775 194.68 152.81 192.381C153.291 191.303 154.448 188.889 154.778 185.483C154.908 184.11 154.872 182.968 154.814 182.206C150.79 181.94 146.774 181.674 142.757 181.408Z" fill="url(#paint15_linear)"/>
<path d="M142.879 227.325C142.879 227.332 142.872 227.339 142.865 227.346C142.786 227.382 142.563 226.685 142.247 226.541C141.643 226.268 140.644 228.079 138.877 229.243C138.079 229.768 137.289 230.055 136.663 230.213C136.426 230.271 136.261 230.486 136.261 230.731V231.234H147.004C147.025 230.594 146.982 229.768 146.766 228.834C146.63 228.259 146.457 227.749 146.278 227.332H142.879V227.325Z" fill="#42526E"/>
<path d="M146.953 229.279C145.775 229.279 144.819 230.228 144.79 231.399C145.53 231.399 146.271 231.399 147.011 231.399V229.279C146.989 229.279 146.968 229.279 146.953 229.279Z" fill="#B3BAC5"/>
<path d="M126.503 175.595C125.928 175.811 124.692 176.192 123.234 175.89C122.537 175.746 122.113 175.516 121.265 175.049C120.783 174.783 120.532 174.597 120.51 174.338C120.489 174.043 120.776 173.792 120.984 173.619C121.487 173.188 122.041 173.066 122.156 173.037C123.32 172.793 124.484 173.181 125.935 173.483C128.055 173.921 128.939 173.792 128.996 174.115C129.04 174.309 128.802 174.726 126.503 175.595Z" fill="url(#paint16_linear)"/>
<path d="M128.465 173.914C128.616 174.51 130.944 174.661 127.128 175.401C126.891 175.444 125.978 175.832 125.023 175.387C124.024 174.92 124.196 173.892 123.212 173.583C122.68 173.411 122.343 173.619 121.847 173.282C121.502 173.044 121.2 172.628 121.301 172.441C121.416 172.232 121.969 172.498 123.126 172.599C124.275 172.7 124.311 172.491 125.224 172.656C125.605 172.728 125.828 172.8 126.647 172.951C127.078 173.03 127.121 173.03 127.265 173.073C127.602 173.188 128.343 173.432 128.465 173.914Z" fill="#A27F68"/>
<path d="M151.15 163.488C148.893 163.66 147.27 164.458 146.242 164.925C144.043 165.931 141.758 166.757 139.617 167.885C136.994 169.272 132.92 171.047 126.661 172.649C126.941 173.634 127.229 174.618 127.509 175.61C128.838 175.638 130.764 175.595 133.056 175.265C133.876 175.143 135.305 174.906 139.516 173.677C144.74 172.153 145.186 171.744 146.616 171.212C147.629 170.831 148.132 170.731 149.102 170.443C151.416 169.761 152.58 169.401 153.298 168.697C153.679 168.323 154.189 167.677 154.498 166.563C154.671 166.189 155.138 165.076 154.642 164.271C154.031 163.272 152.314 163.401 151.15 163.488Z" fill="#00875A"/>
<path d="M163.099 222.862C163.099 222.87 163.099 222.877 163.092 222.884C163.028 222.941 162.632 222.316 162.295 222.259C161.641 222.144 161.123 224.141 159.693 225.708C159.047 226.419 158.35 226.886 157.789 227.195C157.574 227.31 157.466 227.555 157.531 227.792L157.653 228.28L168.065 225.629C167.928 225.004 167.684 224.213 167.246 223.358C166.973 222.834 166.678 222.388 166.398 222.022L163.099 222.862Z" fill="#42526E"/>
<path d="M167.526 223.746C166.383 224.041 165.686 225.191 165.959 226.333C166.678 226.154 167.389 225.967 168.108 225.787L167.583 223.739C167.561 223.739 167.547 223.739 167.526 223.746Z" fill="#B3BAC5"/>
<path d="M119.231 154.8C122.493 157.746 124.893 159.14 126.884 159.931C128.371 160.52 129.629 160.8 131.281 161.167C134.752 161.95 137.705 162.259 139.818 162.402C141.78 162.201 143.447 162.122 144.704 162.079C145.689 162.05 146.795 162.072 148.994 162.115C149.368 162.122 151.013 162.158 152.623 162.539C152.91 162.604 153.284 162.704 153.736 162.898C153.744 162.898 153.751 162.905 153.758 162.905C154.786 163.351 155.454 164.357 155.59 165.471C155.72 166.563 155.813 167.892 155.784 169.394C155.741 171.622 155.454 171.643 155.411 173.849C155.375 175.717 155.562 176.386 155.935 180.855C156.05 182.199 156.129 183.298 156.18 183.995C152.939 184.074 149.633 184.204 146.278 184.383C144.884 184.455 143.497 184.541 142.124 184.628C142.548 178.405 142.024 175.588 141.392 174.194C141.377 174.158 141.32 174.043 141.248 173.878C140.587 172.383 140.522 171.528 140.148 170.443C139.99 169.983 139.71 169.315 139.207 168.532C134.156 168.345 130.477 166.994 128.321 165.995C125.03 164.472 122.493 162.481 120.783 161.138C119.159 159.866 117.873 158.687 116.946 157.789C117.701 156.798 118.469 155.799 119.231 154.8Z" fill="url(#paint17_linear)"/>
</g>
<defs>
<linearGradient id="paint0_linear" x1="72.5957" y1="215.566" x2="75.7588" y2="227.371" gradientUnits="userSpaceOnUse">
<stop stop-color="#091E42" stop-opacity="0"/>
<stop offset="1" stop-color="#091E42"/>
</linearGradient>
<linearGradient id="paint1_linear" x1="358.931" y1="215.464" x2="355.726" y2="227.34" gradientUnits="userSpaceOnUse">
<stop stop-color="#091E42" stop-opacity="0"/>
<stop offset="1" stop-color="#091E42"/>
</linearGradient>
<linearGradient id="paint2_linear" x1="223.724" y1="209.354" x2="268.324" y2="209.354" gradientUnits="userSpaceOnUse">
<stop stop-color="#091E42" stop-opacity="0"/>
<stop offset="1" stop-color="#091E42"/>
</linearGradient>
<linearGradient id="paint3_linear" x1="130.316" y1="228.871" x2="174.915" y2="228.871" gradientUnits="userSpaceOnUse">
<stop stop-color="#091E42" stop-opacity="0"/>
<stop offset="1" stop-color="#091E42"/>
</linearGradient>
<linearGradient id="paint4_linear" x1="284.296" y1="183.075" x2="415.112" y2="52.2596" gradientUnits="userSpaceOnUse">
<stop stop-color="#FFAB00"/>
<stop offset="1" stop-color="#FFE380"/>
</linearGradient>
<linearGradient id="paint5_linear" x1="292.552" y1="93.437" x2="317.164" y2="68.8252" gradientUnits="userSpaceOnUse">
<stop offset="0.4301" stop-color="#FFE380"/>
<stop offset="0.5282" stop-color="#FFE895"/>
<stop offset="0.6433" stop-color="#FFEDA5"/>
<stop offset="0.7712" stop-color="#FFEFAF"/>
<stop offset="0.9363" stop-color="#FFF0B2"/>
</linearGradient>
<linearGradient id="paint6_linear" x1="156.177" y1="177.086" x2="275.014" y2="58.2489" gradientUnits="userSpaceOnUse">
<stop stop-color="#DFE1E5"/>
<stop offset="1" stop-color="white"/>
</linearGradient>
<linearGradient id="paint7_linear" x1="259.547" y1="170.205" x2="259.547" y2="130.56" gradientUnits="userSpaceOnUse">
<stop offset="0.2509" stop-color="#344563"/>
<stop offset="0.3615" stop-color="#3D4E6A"/>
<stop offset="0.7815" stop-color="#5E6C84"/>
<stop offset="0.8481" stop-color="#5A6881"/>
<stop offset="0.917" stop-color="#4D5D77"/>
<stop offset="0.9866" stop-color="#394A67"/>
<stop offset="1" stop-color="#344563"/>
</linearGradient>
<linearGradient id="paint8_linear" x1="354.659" y1="52.7317" x2="354.659" y2="26.732" gradientUnits="userSpaceOnUse">
<stop offset="0.5467" stop-color="#0052CC"/>
<stop offset="0.83" stop-color="#2684FF"/>
<stop offset="0.8841" stop-color="#2481FC"/>
<stop offset="0.9271" stop-color="#1C77F2"/>
<stop offset="0.9663" stop-color="#1067E1"/>
<stop offset="1" stop-color="#0052CC"/>
</linearGradient>
<linearGradient id="paint9_linear" x1="362.377" y1="50.9506" x2="362.377" y2="26.6184" gradientUnits="userSpaceOnUse">
<stop offset="0.4806" stop-color="#0052CC"/>
<stop offset="0.9257" stop-color="#2684FF"/>
<stop offset="0.9451" stop-color="#227FFA"/>
<stop offset="0.9685" stop-color="#1771EB"/>
<stop offset="0.9939" stop-color="#0559D3"/>
<stop offset="1" stop-color="#0052CC"/>
</linearGradient>
<linearGradient id="paint10_linear" x1="359.152" y1="18.7322" x2="371.925" y2="18.7322" gradientUnits="userSpaceOnUse">
<stop offset="0.5373" stop-color="#0065FF"/>
<stop offset="0.6894" stop-color="#0060F0"/>
<stop offset="0.9682" stop-color="#0052CC"/>
</linearGradient>
<linearGradient id="paint11_linear" x1="149.294" y1="158.934" x2="149.294" y2="150.225" gradientUnits="userSpaceOnUse">
<stop offset="0.3124" stop-color="#8C715D"/>
<stop offset="1" stop-color="#42526E"/>
</linearGradient>
<linearGradient id="paint12_linear" x1="119.892" y1="154.457" x2="114.986" y2="154.457" gradientUnits="userSpaceOnUse">
<stop stop-color="#A27F68"/>
<stop offset="0.8025" stop-color="#8C715D"/>
</linearGradient>
<linearGradient id="paint13_linear" x1="150.748" y1="203.573" x2="161.209" y2="199.766" gradientUnits="userSpaceOnUse">
<stop stop-color="#00875A"/>
<stop offset="0.799" stop-color="#36B37E"/>
</linearGradient>
<linearGradient id="paint14_linear" x1="113.23" y1="154.563" x2="120.044" y2="154.563" gradientUnits="userSpaceOnUse">
<stop offset="0.1975" stop-color="#8C715D"/>
<stop offset="1" stop-color="#A27F68"/>
</linearGradient>
<linearGradient id="paint15_linear" x1="142.168" y1="204.492" x2="154.859" y2="204.492" gradientUnits="userSpaceOnUse">
<stop stop-color="#00875A"/>
<stop offset="1" stop-color="#36B37E"/>
</linearGradient>
<linearGradient id="paint16_linear" x1="122.121" y1="176.422" x2="127.134" y2="172.048" gradientUnits="userSpaceOnUse">
<stop offset="0.1975" stop-color="#9C7761"/>
<stop offset="1" stop-color="#A27F68"/>
</linearGradient>
<linearGradient id="paint17_linear" x1="136.562" y1="184.631" x2="136.562" y2="154.802" gradientUnits="userSpaceOnUse">
<stop stop-color="#36B37E"/>
<stop offset="0.2267" stop-color="#39B681"/>
<stop offset="0.4211" stop-color="#42C18C"/>
<stop offset="0.603" stop-color="#51D39D"/>
<stop offset="0.6546" stop-color="#57D9A3"/>
</linearGradient>
<clipPath id="clip0">
<rect width="431.49" height="232.872" fill="white"/>
</clipPath>
</defs>
</svg>
