<svg width="50" height="50" viewBox="0 0 50 50" fill="none" xmlns="http://www.w3.org/2000/svg">
<g filter="url(#filter0_d)">
<rect x="41" y="9" width="32" height="32" rx="16" transform="rotate(90 41 9)" fill="white"/>
<path d="M24.499 27.0614C24.6942 27.2566 25.0108 27.2566 25.2061 27.0614L30.7454 21.522C31.1359 21.1315 31.7691 21.1315 32.1596 21.522L32.6307 21.9932C33.0213 22.3837 33.0213 23.0169 32.6308 23.4074L25.5596 30.4785C25.1691 30.869 24.5359 30.869 24.1454 30.4785L17.0743 23.4074C16.6838 23.0169 16.6838 22.3837 17.0743 21.9932L17.5454 21.522C17.9359 21.1315 18.5691 21.1315 18.9596 21.522L24.499 27.0614Z" fill="#989AAA"/>
</g>
<defs>
<filter id="filter0_d" x="0" y="0" width="50" height="50" filterUnits="userSpaceOnUse" color-interpolation-filters="sRGB">
<feFlood flood-opacity="0" result="BackgroundImageFix"/>
<feColorMatrix in="SourceAlpha" type="matrix" values="0 0 0 0 0 0 0 0 0 0 0 0 0 0 0 0 0 0 127 0" result="hardAlpha"/>
<feMorphology radius="1" operator="dilate" in="SourceAlpha" result="effect1_dropShadow"/>
<feOffset/>
<feGaussianBlur stdDeviation="4"/>
<feComposite in2="hardAlpha" operator="out"/>
<feColorMatrix type="matrix" values="0 0 0 0 0 0 0 0 0 0 0 0 0 0 0 0 0 0 0.06 0"/>
<feBlend mode="normal" in2="BackgroundImageFix" result="effect1_dropShadow"/>
<feBlend mode="normal" in="SourceGraphic" in2="effect1_dropShadow" result="shape"/>
</filter>
</defs>
</svg>
