<svg width="20" height="20" viewBox="0 0 20 20" fill="none" xmlns="http://www.w3.org/2000/svg">
<circle cx="10" cy="10" r="10" fill="#0EAD69" fill-opacity="0.1"/>
<circle cx="10" cy="10" r="9.5" stroke="#0EAD69" stroke-opacity="0.4"/>
<path opacity="0.3" fill-rule="evenodd" clip-rule="evenodd" d="M14.25 11.125C14.5952 11.125 14.875 10.8452 14.875 10.5C14.875 10.1548 14.5952 9.875 14.25 9.875H6.75C6.40482 9.875 6.125 10.1548 6.125 10.5C6.125 10.8452 6.40482 11.125 6.75 11.125H14.25Z" fill="#0EAD69"/>
<path d="M10.9419 13.8081C11.186 14.0521 11.186 14.4479 10.9419 14.6919C10.6979 14.936 10.3021 14.936 10.0581 14.6919L6.30806 10.9419C6.07145 10.7053 6.06317 10.3243 6.28928 10.0777L9.72678 6.32767C9.96002 6.07322 10.3554 6.05603 10.6098 6.28928C10.8643 6.52252 10.8815 6.91788 10.6482 7.17233L7.61509 10.4812L10.9419 13.8081Z" fill="#0EAD69"/>
</svg>
