<svg width="50" height="50" viewBox="0 0 50 50" fill="none" xmlns="http://www.w3.org/2000/svg">
<g filter="url(#filter0_d)">
<rect x="9" y="41" width="32" height="32" rx="16" transform="rotate(-90 9 41)" fill="white"/>
<path d="M25.501 22.9386C25.3058 22.7434 24.9892 22.7434 24.7939 22.9386L19.2546 28.478C18.8641 28.8685 18.2309 28.8685 17.8404 28.478L17.3693 28.0068C16.9787 27.6163 16.9787 26.9831 17.3692 26.5926L24.4404 19.5215C24.8309 19.131 25.4641 19.131 25.8546 19.5215L32.9257 26.5926C33.3162 26.9831 33.3162 27.6163 32.9257 28.0068L32.4546 28.478C32.0641 28.8685 31.4309 28.8685 31.0404 28.478L25.501 22.9386Z" fill="#989AAA"/>
</g>
<defs>
<filter id="filter0_d" x="0" y="0" width="50" height="50" filterUnits="userSpaceOnUse" color-interpolation-filters="sRGB">
<feFlood flood-opacity="0" result="BackgroundImageFix"/>
<feColorMatrix in="SourceAlpha" type="matrix" values="0 0 0 0 0 0 0 0 0 0 0 0 0 0 0 0 0 0 127 0" result="hardAlpha"/>
<feMorphology radius="1" operator="dilate" in="SourceAlpha" result="effect1_dropShadow"/>
<feOffset/>
<feGaussianBlur stdDeviation="4"/>
<feComposite in2="hardAlpha" operator="out"/>
<feColorMatrix type="matrix" values="0 0 0 0 0 0 0 0 0 0 0 0 0 0 0 0 0 0 0.06 0"/>
<feBlend mode="normal" in2="BackgroundImageFix" result="effect1_dropShadow"/>
<feBlend mode="normal" in="SourceGraphic" in2="effect1_dropShadow" result="shape"/>
</filter>
</defs>
</svg>
