<svg width="51" height="51" viewBox="0 0 51 51" fill="none" xmlns="http://www.w3.org/2000/svg">
<g filter="url(#filter0_d)">
<rect x="9.92188" y="9.18628" width="32" height="32" rx="16" fill="white"/>
<path d="M26.9833 25.6876C27.1785 25.4923 27.1785 25.1757 26.9833 24.9804L21.4439 19.4411C21.0534 19.0506 21.0534 18.4174 21.4439 18.0269L21.915 17.5558C22.3056 17.1652 22.9387 17.1652 23.3293 17.5558L30.4004 24.6269C30.7909 25.0174 30.7909 25.6506 30.4004 26.0411L23.3293 33.1122C22.9387 33.5028 22.3056 33.5028 21.915 33.1122L21.4439 32.6411C21.0534 32.2506 21.0534 31.6174 21.4439 31.2269L26.9833 25.6876Z" fill="#989AAA"/>
</g>
<defs>
<filter id="filter0_d" x="0.921875" y="0.186279" width="50" height="50" filterUnits="userSpaceOnUse" color-interpolation-filters="sRGB">
<feFlood flood-opacity="0" result="BackgroundImageFix"/>
<feColorMatrix in="SourceAlpha" type="matrix" values="0 0 0 0 0 0 0 0 0 0 0 0 0 0 0 0 0 0 127 0" result="hardAlpha"/>
<feMorphology radius="1" operator="dilate" in="SourceAlpha" result="effect1_dropShadow"/>
<feOffset/>
<feGaussianBlur stdDeviation="4"/>
<feComposite in2="hardAlpha" operator="out"/>
<feColorMatrix type="matrix" values="0 0 0 0 0 0 0 0 0 0 0 0 0 0 0 0 0 0 0.06 0"/>
<feBlend mode="normal" in2="BackgroundImageFix" result="effect1_dropShadow"/>
<feBlend mode="normal" in="SourceGraphic" in2="effect1_dropShadow" result="shape"/>
</filter>
</defs>
</svg>
