<svg width="24" height="24" viewBox="0 0 24 24" fill="none" xmlns="http://www.w3.org/2000/svg">
<path d="M22.5347 14.3734L15.8182 18.6028L16.0234 16.3405C15.0306 16.9656 14.2183 18.4371 14.2183 19.6103C14.2183 20.7836 15.0306 21.232 16.0234 20.6068L22.5347 16.5066C23.0311 16.194 23.4372 15.4584 23.4372 14.8718C23.4372 14.2851 23.0311 14.0609 22.5347 14.3734Z" fill="#C2B8B9"/>
<path d="M9.2029 5.02136L3.2959 11.1836L15.6082 18.937L23.3981 13.96L9.2029 5.02136Z" fill="#D6CED1"/>
<path d="M15.5317 21.2486C15.2942 21.0677 15.0408 20.8529 14.876 20.5915C14.8225 20.5829 14.773 20.5668 14.7288 20.5425C14.5215 20.428 14.4026 20.1266 14.4026 19.7155C14.4026 18.6774 15.1447 17.3331 16.0232 16.78L23.0664 12.3448C23.251 12.2287 23.3064 11.9848 23.1902 11.8002C23.1585 11.7498 23.117 11.7095 23.07 11.6792L23.0704 11.6789L9.68691 3.25131L8.94581 2.78467L1.60181 7.40917C0.703641 7.97472 4.6875e-05 9.2492 0 10.3107C0 11.3722 0.703641 12.6468 1.60191 13.2124L14.2385 21.1655C14.2735 21.1898 14.3094 21.213 14.3471 21.2339C14.7011 21.4292 15.1231 21.4412 15.5674 21.275C15.5556 21.2662 15.5435 21.2576 15.5317 21.2486Z" fill="#ECE7EA"/>
<path d="M11.4341 9.3474L7.52947 6.89917L4.20557 8.99247L8.16974 11.4573L11.4341 9.3474Z" fill="#F14742"/>
<path d="M23.534 14.0953C23.238 13.9319 22.8624 13.9678 22.5033 14.1938L15.8719 18.3697C15.6873 18.4859 15.6319 18.7297 15.7481 18.9143C15.8644 19.0988 16.1082 19.1542 16.2927 19.038L22.9242 14.8622C23.0642 14.774 23.1409 14.7804 23.1522 14.7867C23.1637 14.7931 23.2099 14.8544 23.2099 15.0199C23.2099 15.4647 22.8797 16.0629 22.5033 16.2999L16.0745 20.3482C15.7327 20.5634 15.4202 20.6226 15.2171 20.5105C15.0141 20.3985 14.8976 20.1025 14.8976 19.6985C14.8976 18.675 15.6293 17.3496 16.4954 16.8043L23.8153 12.195C23.9302 12.1227 23.9998 11.9965 23.9998 11.8608C23.9998 11.7252 23.9301 11.5989 23.8153 11.5267L9.74996 2.66964C9.62139 2.58864 9.4577 2.58864 9.32912 2.66964L1.92006 7.3351C0.867246 7.99806 0.0424805 9.49201 0.0424805 10.7362V10.9468C0.0424805 12.191 0.867246 13.685 1.92006 14.3479L12.9399 21.2871C13.1244 21.4033 13.3682 21.3479 13.4844 21.1634C13.6007 20.9788 13.5452 20.735 13.3607 20.6188L2.34095 13.6796C1.52312 13.1647 0.832277 11.9132 0.832277 10.9468V10.7362C0.832277 9.76984 1.52312 8.51837 2.34095 8.00345L9.53954 3.4705L22.8638 11.8607L16.0745 16.1359C14.9717 16.8304 14.1078 18.3952 14.1078 19.6985C14.1078 20.409 14.3662 20.943 14.8354 21.202C15.0238 21.3061 15.2317 21.3576 15.4519 21.3576C15.78 21.3576 16.1356 21.2431 16.4953 21.0165L22.9242 16.9682C23.5273 16.5885 23.9997 15.7326 23.9997 15.0199C23.9998 14.5957 23.83 14.2587 23.534 14.0953Z" fill="black"/>
<path d="M18.6638 12.2557C18.795 12.2557 18.9233 12.1904 18.9984 12.0712C19.1146 11.8867 19.0592 11.6429 18.8746 11.5267L9.7499 5.78086C9.56531 5.66465 9.32151 5.72011 9.20531 5.90461C9.0891 6.08915 9.14451 6.333 9.32906 6.4492L18.4538 12.195C18.5191 12.2361 18.5919 12.2557 18.6638 12.2557Z" fill="black"/>
<path d="M17.0858 13.3039C17.2173 13.3039 17.3458 13.2382 17.4207 13.1187C17.5366 12.9339 17.4807 12.6902 17.2959 12.5743L13.4411 10.1573C13.2563 10.0414 13.0126 10.0974 12.8968 10.2821C12.781 10.4669 12.8368 10.7106 13.0216 10.8264L16.8764 13.2434C16.9416 13.2844 17.0141 13.3039 17.0858 13.3039Z" fill="black"/>
<path d="M11.8317 11.1968C11.6467 11.0813 11.4031 11.1376 11.2875 11.3227C11.172 11.5077 11.2283 11.7513 11.4134 11.8668L15.2977 14.2921C15.3628 14.3327 15.435 14.3521 15.5065 14.3521C15.6382 14.3521 15.767 14.2862 15.8419 14.1663C15.9574 13.9813 15.9011 13.7377 15.716 13.6222L11.8317 11.1968Z" fill="black"/>
<path d="M7.68799 6.81417L4.40613 8.88098C4.29096 8.9535 4.22126 9.08015 4.22168 9.21628C4.2221 9.3524 4.29251 9.47864 4.40806 9.5505L8.32203 11.9841C8.38592 12.0238 8.4582 12.0436 8.53053 12.0436C8.60515 12.0436 8.67968 12.0225 8.74488 11.9804L9.61662 11.417C9.79981 11.2986 9.85231 11.0542 9.73395 10.871C9.61559 10.6878 9.37113 10.6353 9.18795 10.7536L8.52654 11.1811L5.36112 9.213L7.89898 7.6147L11.0183 9.57061L10.6547 9.80564C10.4715 9.92404 10.419 10.1684 10.5373 10.3516C10.6557 10.5348 10.9003 10.5873 11.0833 10.469L11.9679 9.89723C12.0813 9.82392 12.1494 9.69782 12.1485 9.56282C12.1475 9.42787 12.0777 9.30272 11.9634 9.231L8.10823 6.81375C7.97965 6.73312 7.81634 6.73336 7.68799 6.81417Z" fill="black"/>
<path d="M14.264 15.2135C14.3792 15.0283 14.3224 14.7848 14.1372 14.6697L10.2231 12.236C10.0378 12.1208 9.79431 12.1776 9.67924 12.3629C9.56406 12.5481 9.62083 12.7916 9.80608 12.9067L13.7202 15.3404C13.785 15.3808 13.8571 15.4 13.9283 15.4C14.0602 15.4 14.1892 15.3338 14.264 15.2135Z" fill="black"/>
<path d="M2.86088 10.1597C2.7457 10.345 2.80247 10.5885 2.98772 10.7036L12.6484 16.7103C12.7133 16.7507 12.7854 16.7699 12.8565 16.7699C12.9885 16.7699 13.1175 16.7038 13.1922 16.5835C13.3074 16.3982 13.2506 16.1548 13.0654 16.0396L3.40472 10.0328C3.21947 9.91768 2.97595 9.97454 2.86088 10.1597Z" fill="black"/>
</svg>
