<svg width="18" height="19" viewBox="0 0 18 19" fill="none" xmlns="http://www.w3.org/2000/svg">
<g clip-path="url(#clip0)">
<path d="M9.80859 13.7847C9.80859 14.5601 10.4394 15.1909 11.2148 15.1909H12.8672C13.6426 15.1909 14.2734 14.5601 14.2734 13.7847V12.1323C14.2734 11.3569 13.6426 10.7261 12.8672 10.7261H11.2148C10.4394 10.7261 9.80859 11.3569 9.80859 12.1323V13.7847ZM11.2148 12.1323H12.8672L12.8681 13.7846C12.8681 13.7846 12.8678 13.7847 12.8672 13.7847H11.2148V12.1323Z" fill="#202F44"/>
<path d="M13.5703 9.07373C13.9586 9.07373 14.2734 8.75893 14.2734 8.37061C14.2734 7.98228 13.9586 7.66748 13.5703 7.66748C13.182 7.66748 12.8672 7.98228 12.8672 8.37061C12.8672 8.75893 13.182 9.07373 13.5703 9.07373Z" fill="#202F44"/>
<path d="M10.5117 9.07373C10.9 9.07373 11.2148 8.75893 11.2148 8.37061C11.2148 7.98228 10.9 7.66748 10.5117 7.66748C10.1234 7.66748 9.80859 7.98228 9.80859 8.37061C9.80859 8.75893 10.1234 9.07373 10.5117 9.07373Z" fill="#202F44"/>
<path d="M17.2969 13.3628C17.6852 13.3628 18 13.048 18 12.6597V5.20654C18 3.65573 16.7383 2.39404 15.1875 2.39404H14.2734V1.69092C14.2734 1.30258 13.9586 0.987793 13.5703 0.987793C13.182 0.987793 12.8672 1.30258 12.8672 1.69092V2.39404H9.66797V1.69092C9.66797 1.30258 9.35318 0.987793 8.96484 0.987793C8.57651 0.987793 8.26172 1.30258 8.26172 1.69092V2.39404H5.09766V1.69092C5.09766 1.30258 4.78287 0.987793 4.39453 0.987793C4.0062 0.987793 3.69141 1.30258 3.69141 1.69092V2.39404H2.8125C1.26169 2.39404 0 3.65573 0 5.20654V16.1753C0 17.7261 1.26169 18.9878 2.8125 18.9878H15.1875C16.7383 18.9878 18 17.7261 18 16.1753C18 15.787 17.6852 15.4722 17.2969 15.4722C16.9085 15.4722 16.5938 15.787 16.5938 16.1753C16.5938 16.9507 15.9629 17.5815 15.1875 17.5815H2.8125C2.03709 17.5815 1.40625 16.9507 1.40625 16.1753V5.20654C1.40625 4.43114 2.03709 3.80029 2.8125 3.80029H3.69141V4.50342C3.69141 4.89175 4.0062 5.20654 4.39453 5.20654C4.78287 5.20654 5.09766 4.89175 5.09766 4.50342V3.80029H8.26172V4.50342C8.26172 4.89175 8.57651 5.20654 8.96484 5.20654C9.35318 5.20654 9.66797 4.89175 9.66797 4.50342V3.80029H12.8672V4.50342C12.8672 4.89175 13.182 5.20654 13.5703 5.20654C13.9586 5.20654 14.2734 4.89175 14.2734 4.50342V3.80029H15.1875C15.9629 3.80029 16.5938 4.43114 16.5938 5.20654V12.6597C16.5938 13.048 16.9085 13.3628 17.2969 13.3628Z" fill="#202F44"/>
<path d="M4.39453 15.1909C4.78286 15.1909 5.09766 14.8761 5.09766 14.4878C5.09766 14.0995 4.78286 13.7847 4.39453 13.7847C4.00621 13.7847 3.69141 14.0995 3.69141 14.4878C3.69141 14.8761 4.00621 15.1909 4.39453 15.1909Z" fill="#202F44"/>
<path d="M4.39453 9.07373C4.78286 9.07373 5.09766 8.75893 5.09766 8.37061C5.09766 7.98228 4.78286 7.66748 4.39453 7.66748C4.00621 7.66748 3.69141 7.98228 3.69141 8.37061C3.69141 8.75893 4.00621 9.07373 4.39453 9.07373Z" fill="#202F44"/>
<path d="M4.39453 12.1323C4.78286 12.1323 5.09766 11.8175 5.09766 11.4292C5.09766 11.0409 4.78286 10.7261 4.39453 10.7261C4.00621 10.7261 3.69141 11.0409 3.69141 11.4292C3.69141 11.8175 4.00621 12.1323 4.39453 12.1323Z" fill="#202F44"/>
<path d="M7.45312 12.1323C7.84145 12.1323 8.15625 11.8175 8.15625 11.4292C8.15625 11.0409 7.84145 10.7261 7.45312 10.7261C7.0648 10.7261 6.75 11.0409 6.75 11.4292C6.75 11.8175 7.0648 12.1323 7.45312 12.1323Z" fill="#202F44"/>
<path d="M7.45312 9.07373C7.84145 9.07373 8.15625 8.75893 8.15625 8.37061C8.15625 7.98228 7.84145 7.66748 7.45312 7.66748C7.0648 7.66748 6.75 7.98228 6.75 8.37061C6.75 8.75893 7.0648 9.07373 7.45312 9.07373Z" fill="#202F44"/>
<path d="M7.45312 15.1909C7.84145 15.1909 8.15625 14.8761 8.15625 14.4878C8.15625 14.0995 7.84145 13.7847 7.45312 13.7847C7.0648 13.7847 6.75 14.0995 6.75 14.4878C6.75 14.8761 7.0648 15.1909 7.45312 15.1909Z" fill="#202F44"/>
</g>
<defs>
<clipPath id="clip0">
<rect width="18" height="18" fill="white" transform="translate(0 0.987793)"/>
</clipPath>
</defs>
</svg>
