<svg width="20" height="20" viewBox="0 0 20 20" fill="none" xmlns="http://www.w3.org/2000/svg">
<path d="M1.99996 9.5C1.99996 10.3284 2.67154 11 3.49996 11C4.32839 11 4.99996 10.3284 4.99996 9.5V3.5C4.99996 2.67157 4.32839 2 3.49996 2C2.67154 2 1.99996 2.67157 1.99996 3.5V9.5Z" fill="#333758"/>
<path d="M5.99996 9.66667V4.23607C5.99996 3.47852 6.42797 2.786 7.10554 2.44721L7.15538 2.42229C7.7108 2.14458 8.32325 2 8.94423 2L14.3604 2C15.3137 2 16.1345 2.67292 16.3215 3.60777L17.5215 9.60777C17.769 10.8453 16.8224 12 15.5604 12H12V16C12 17.1046 11.1045 18 9.99996 18C9.44768 18 8.99996 17.5523 8.99996 17V16.3333C8.99996 15.4679 8.71925 14.6257 8.19996 13.9333L6.79996 12.0667C6.28067 11.3743 5.99996 10.5321 5.99996 9.66667Z" fill="#333758"/>
</svg>
