<svg width="21" height="21" viewBox="0 0 21 21" fill="none" xmlns="http://www.w3.org/2000/svg">
<path d="M14.8654 3.29647L15.3944 3.82811L15.3957 3.8268L14.8654 3.29647ZM17.8116 3.29647L18.342 2.76614V2.76614L17.8116 3.29647ZM17.8116 6.24275L17.2813 5.71242L17.28 5.71373L17.8116 6.24275ZM6.92188 17.1863L7.03408 17.9278C7.19306 17.9038 7.3401 17.8293 7.45351 17.7153L6.92188 17.1863ZM3.42188 17.7158L2.67929 17.6107C2.64605 17.8453 2.72568 18.0819 2.89405 18.2487C3.06243 18.4155 3.29974 18.4929 3.53408 18.4574L3.42188 17.7158ZM3.92188 14.1863L3.39285 13.6546C3.27716 13.7698 3.20218 13.9195 3.17929 14.0811L3.92188 14.1863ZM15.3957 3.8268C15.9164 3.3061 16.7606 3.3061 17.2813 3.8268L18.342 2.76614C17.2355 1.65966 15.4415 1.65966 14.335 2.76614L15.3957 3.8268ZM17.2813 3.8268C17.802 4.3475 17.802 5.19172 17.2813 5.71242L18.342 6.77308C19.4485 5.6666 19.4485 3.87263 18.342 2.76614L17.2813 3.8268ZM17.28 5.71373L6.39024 16.6573L7.45351 17.7153L18.3433 6.77177L17.28 5.71373ZM6.80967 16.4447L3.30967 16.9743L3.53408 18.4574L7.03408 17.9278L6.80967 16.4447ZM14.3363 2.76484L3.39285 13.6546L4.4509 14.7179L15.3944 3.82811L14.3363 2.76484ZM3.17929 14.0811L2.67929 17.6107L4.16446 17.821L4.66446 14.2915L3.17929 14.0811ZM13.085 5.0768L16.0313 8.02308L17.092 6.96242L14.1457 4.01614L13.085 5.0768Z" fill="#333758"/>
</svg>
