<svg width="14" height="14" viewBox="0 0 14 14" fill="none" xmlns="http://www.w3.org/2000/svg">
<path d="M10.1548 1.48816L10.5075 1.84258L10.5083 1.84171L10.1548 1.48816ZM12.5118 1.48816L12.8654 1.1346V1.1346L12.5118 1.48816ZM12.5118 3.84518L12.1583 3.49162L12.1574 3.4925L12.5118 3.84518ZM3.8 12.6L3.8748 13.0944C3.98079 13.0783 4.07881 13.0287 4.15442 12.9527L3.8 12.6ZM1 13.0237L0.504943 12.9535C0.482781 13.11 0.535868 13.2677 0.64812 13.3789C0.760371 13.4901 0.918576 13.5417 1.0748 13.518L1 13.0237ZM1.4 10.2L1.04732 9.84558C0.97019 9.92233 0.920204 10.0221 0.904943 10.1299L1.4 10.2ZM10.5083 1.84171C10.964 1.3861 11.7026 1.3861 12.1583 1.84171L12.8654 1.1346C12.0192 0.288466 10.6474 0.288466 9.80123 1.1346L10.5083 1.84171ZM12.1583 1.84171C12.6139 2.29732 12.6139 3.03601 12.1583 3.49162L12.8654 4.19873C13.7115 3.3526 13.7115 1.98074 12.8654 1.1346L12.1583 1.84171ZM12.1574 3.4925L3.44558 12.2473L4.15442 12.9527L12.8662 4.19786L12.1574 3.4925ZM3.7252 12.1056L0.925199 12.5293L1.0748 13.518L3.8748 13.0944L3.7252 12.1056ZM9.8021 1.13373L1.04732 9.84558L1.75268 10.5544L10.5075 1.84258L9.8021 1.13373ZM0.904943 10.1299L0.504943 12.9535L1.49506 13.0938L1.89506 10.2701L0.904943 10.1299ZM8.80123 2.84171L11.1583 5.19873L11.8654 4.49162L9.50834 2.1346L8.80123 2.84171Z" fill="#202F44"/>
</svg>
