<svg width="85" height="96" viewBox="0 0 85 96" fill="none" xmlns="http://www.w3.org/2000/svg">
<path d="M33.6712 41.278V37.0745C33.6712 35.9478 33.2236 34.8672 32.4268 34.0705C31.6301 33.2738 30.5495 32.8262 29.4228 32.8262H8.56888C7.44245 32.8266 6.36231 33.2744 5.56597 34.0711C4.76962 34.8678 4.32227 35.9481 4.32227 37.0745V91.7514C4.32227 92.8782 4.76986 93.9588 5.56658 94.7555C6.36329 95.5522 7.44388 95.9998 8.57061 95.9998H80.4856C81.6124 95.9998 82.6929 95.5522 83.4897 94.7555C84.2864 93.9588 84.734 92.8782 84.734 91.7514V49.7764C84.734 48.6497 84.2864 47.5691 83.4897 46.7724C82.6929 45.9757 81.6124 45.5281 80.4856 45.5281H37.916C36.7896 45.5272 35.7097 45.079 34.9136 44.282C34.1176 43.485 33.6707 42.4045 33.6712 41.278Z" fill="#9DA9B3"/>
<path d="M82.0041 0.0010589L33.4421 0.0942913C33.1413 0.0948688 32.8979 0.339169 32.8985 0.639951L33.0169 62.2899C33.0174 62.5907 33.2617 62.834 33.5625 62.8335L82.1245 62.7402C82.4253 62.7397 82.6687 62.4954 82.6681 62.1946L82.5497 0.544627C82.5491 0.243845 82.3048 0.00048144 82.0041 0.0010589Z" fill="#F4F5F6"/>
<path d="M76.1947 21.1004L43.7109 21.1627L43.7128 22.1365L76.1966 22.0741L76.1947 21.1004Z" fill="#9DA9B3"/>
<path d="M76.2039 25.5025L38.0361 25.5758L38.0377 26.3772L76.2055 26.3039L76.2039 25.5025Z" fill="#9DA9B3"/>
<path d="M76.2108 30.3131L38.043 30.3864L38.0445 31.1878L76.2123 31.1145L76.2108 30.3131Z" fill="#9DA9B3"/>
<path d="M76.2234 35.5689L38.0557 35.6422L38.0572 36.4436L76.225 36.3703L76.2234 35.5689Z" fill="#9DA9B3"/>
<path d="M62.0888 40.8939L38.0654 40.9401L38.067 41.7415L62.0903 41.6954L62.0888 40.8939Z" fill="#9DA9B3"/>
<path d="M76.2508 49.8902L38.083 49.9635L38.0845 50.7649L76.2523 50.6916L76.2508 49.8902Z" fill="#24DB57"/>
<path d="M76.2596 54.7008L38.0918 54.774L38.0933 55.5755L76.2611 55.5022L76.2596 54.7008Z" fill="#24DB57"/>
<path d="M76.2693 59.9576L38.1016 60.0309L38.1031 60.8323L76.2709 60.759L76.2693 59.9576Z" fill="#24DB57"/>
<path d="M77.2979 4.95304L37.7686 5.02893L37.7924 17.4465L77.3217 17.3706L77.2979 4.95304Z" fill="#FAD7B8"/>
<path d="M75.866 37.1507L64 37.1735L64.0222 48.7517L75.8883 48.7289L75.866 37.1507Z" fill="white"/>
<path d="M29.6145 41.278V37.0745C29.6145 35.9478 29.1669 34.8672 28.3702 34.0705C27.5735 33.2738 26.4929 32.8262 25.3662 32.8262H4.51224C3.38581 32.8266 2.30567 33.2744 1.50933 34.0711C0.71298 34.8678 0.265625 35.9481 0.265625 37.0745L0.265625 91.7514C0.265625 92.8782 0.713217 93.9588 1.50994 94.7555C2.30665 95.5522 3.38724 95.9998 4.51397 95.9998H76.429C77.5557 95.9998 78.6363 95.5522 79.433 94.7555C80.2297 93.9588 80.6773 92.8782 80.6773 91.7514V49.7764C80.6773 48.6497 80.2297 47.5691 79.433 46.7724C78.6363 45.9757 77.5557 45.5281 76.429 45.5281H33.8594C32.733 45.5272 31.653 45.079 30.857 44.282C30.061 43.485 29.614 42.4045 29.6145 41.278Z" fill="#D7DCE0"/>
</svg>
