<svg width="16" height="17" viewBox="0 0 16 17" fill="none" xmlns="http://www.w3.org/2000/svg">
<path d="M4.11337 12.0389C4.25111 11.6485 4.50653 11.3105 4.84444 11.0714C5.18235 10.8323 5.5861 10.7039 6.00004 10.7039C6.41398 10.7039 6.81773 10.8323 7.15564 11.0714C7.49355 11.3105 7.74897 11.6485 7.88671 12.0389H14.6667V13.3722H7.88671C7.74897 13.7626 7.49355 14.1006 7.15564 14.3397C6.81773 14.5788 6.41398 14.7072 6.00004 14.7072C5.5861 14.7072 5.18235 14.5788 4.84444 14.3397C4.50653 14.1006 4.25111 13.7626 4.11337 13.3722H1.33337V12.0389H4.11337ZM8.11337 7.37222C8.25111 6.98187 8.50653 6.64385 8.84444 6.40475C9.18235 6.16565 9.5861 6.03726 10 6.03726C10.414 6.03726 10.8177 6.16565 11.1556 6.40475C11.4935 6.64385 11.749 6.98187 11.8867 7.37222H14.6667V8.70556H11.8867C11.749 9.09591 11.4935 9.43394 11.1556 9.67303C10.8177 9.91213 10.414 10.0405 10 10.0405C9.5861 10.0405 9.18235 9.91213 8.84444 9.67303C8.50653 9.43394 8.25111 9.09591 8.11337 8.70556H1.33337V7.37222H8.11337ZM4.11337 2.70556C4.25111 2.3152 4.50653 1.97718 4.84444 1.73808C5.18235 1.49899 5.5861 1.37059 6.00004 1.37059C6.41398 1.37059 6.81773 1.49899 7.15564 1.73808C7.49355 1.97718 7.74897 2.3152 7.88671 2.70556H14.6667V4.03889H7.88671C7.74897 4.42925 7.49355 4.76727 7.15564 5.00636C6.81773 5.24546 6.41398 5.37386 6.00004 5.37386C5.5861 5.37386 5.18235 5.24546 4.84444 5.00636C4.50653 4.76727 4.25111 4.42925 4.11337 4.03889H1.33337V2.70556H4.11337ZM6.00004 4.03889C6.17685 4.03889 6.34642 3.96865 6.47145 3.84363C6.59647 3.7186 6.66671 3.54903 6.66671 3.37222C6.66671 3.19541 6.59647 3.02584 6.47145 2.90082C6.34642 2.7758 6.17685 2.70556 6.00004 2.70556C5.82323 2.70556 5.65366 2.7758 5.52864 2.90082C5.40361 3.02584 5.33337 3.19541 5.33337 3.37222C5.33337 3.54903 5.40361 3.7186 5.52864 3.84363C5.65366 3.96865 5.82323 4.03889 6.00004 4.03889ZM10 8.70556C10.1769 8.70556 10.3464 8.63532 10.4714 8.5103C10.5965 8.38527 10.6667 8.2157 10.6667 8.03889C10.6667 7.86208 10.5965 7.69251 10.4714 7.56749C10.3464 7.44246 10.1769 7.37222 10 7.37222C9.82323 7.37222 9.65366 7.44246 9.52864 7.56749C9.40361 7.69251 9.33337 7.86208 9.33337 8.03889C9.33337 8.2157 9.40361 8.38527 9.52864 8.5103C9.65366 8.63532 9.82323 8.70556 10 8.70556ZM6.00004 13.3722C6.17685 13.3722 6.34642 13.302 6.47145 13.177C6.59647 13.0519 6.66671 12.8824 6.66671 12.7056C6.66671 12.5287 6.59647 12.3592 6.47145 12.2342C6.34642 12.1091 6.17685 12.0389 6.00004 12.0389C5.82323 12.0389 5.65366 12.1091 5.52864 12.2342C5.40361 12.3592 5.33337 12.5287 5.33337 12.7056C5.33337 12.8824 5.40361 13.0519 5.52864 13.177C5.65366 13.302 5.82323 13.3722 6.00004 13.3722Z" fill="#3A434B"/>
</svg>
