<svg xmlns="http://www.w3.org/2000/svg" width="22" height="22" viewBox="0 0 22 22">
    <g fill="none" fill-rule="evenodd">
        <g fill="#ADAFBC" fill-rule="nonzero">
            <g>
                <g>
                    <path stroke="#ADAFBC" stroke-width=".4" d="M16.422 0H3.578C1.605 0 0 1.605 0 3.578v12.844C0 18.395 1.605 20 3.578 20h12.844C18.395 20 20 18.395 20 16.422V3.578C20 1.605 18.395 0 16.422 0zm2.406 16.422c0 1.327-1.08 2.406-2.406 2.406H3.578c-1.327 0-2.406-1.08-2.406-2.406V3.578c0-1.327 1.08-2.406 2.406-2.406h12.844c1.327 0 2.406 1.08 2.406 2.406v12.844z" transform="translate(-824 -129) translate(721 128) translate(104 2)"/>
                    <path d="M16.913 4.403H7.977c-.246-.742-.936-1.278-1.748-1.278-.811 0-1.502.536-1.747 1.278H3.087c-.324 0-.587.267-.587.597 0 .33.263.597.587.597h1.395c.245.742.936 1.278 1.747 1.278.812 0 1.502-.536 1.748-1.278h8.936c.324 0 .587-.267.587-.597 0-.33-.263-.597-.587-.597zM6.23 5.682c-.37 0-.67-.306-.67-.682 0-.376.3-.682.67-.682.37 0 .67.306.67.682 0 .376-.3.682-.67.682zM16.913 9.403h-1.395c-.245-.742-.936-1.278-1.747-1.278-.812 0-1.502.536-1.748 1.278H3.087c-.324 0-.587.267-.587.597 0 .33.263.597.587.597h8.936c.246.742.936 1.278 1.748 1.278.811 0 1.502-.536 1.747-1.278h1.395c.324 0 .587-.267.587-.597 0-.33-.263-.597-.587-.597zm-3.142 1.279c-.37 0-.67-.306-.67-.682 0-.376.3-.682.67-.682.37 0 .67.306.67.682 0 .376-.3.682-.67.682zM16.913 14.403H10.49c-.245-.742-.935-1.278-1.747-1.278-.811 0-1.502.536-1.747 1.278h-3.91c-.323 0-.586.267-.586.597 0 .33.263.597.587.597h3.909c.245.742.936 1.278 1.747 1.278.812 0 1.502-.536 1.747-1.278h6.423c.324 0 .587-.267.587-.597 0-.33-.263-.597-.587-.597zm-8.17 1.279c-.37 0-.67-.306-.67-.682 0-.376.3-.682.67-.682.37 0 .67.306.67.682 0 .376-.3.682-.67.682z" transform="translate(-824 -129) translate(721 128) translate(104 2)"/>
                </g>
            </g>
        </g>
    </g>
</svg>
