<svg width="24" height="24" viewBox="0 0 24 24" fill="none" xmlns="http://www.w3.org/2000/svg">
<g clip-path="url(#clip0)">
<path d="M14.4515 3.88323L11.4163 4.97733L10.9615 4.71076L9.54823 3.88323C7.29486 1.62986 9.73845 -0.202766 10.4677 0.526514C10.5869 0.645717 10.7158 0.74931 10.8559 0.835935C11.5725 1.28008 12.578 1.28303 14.0428 0.672482C15.7942 -0.0572661 16.8888 2.42378 14.4515 3.88323Z" fill="#E6BD5A"/>
<path d="M3.53564 16.1392C3.53564 10.9018 7.32529 5.05066 12 5.05066C16.6747 5.05066 20.4644 10.9018 20.4644 16.1392C20.4644 21.3767 16.6748 23.6349 12.0001 23.6349C7.32539 23.6349 3.53564 21.3767 3.53564 16.1392Z" fill="#E6BD5A"/>
<path d="M11.9999 23.635C7.32534 23.635 3.53564 21.3768 3.53564 16.1393C3.53564 10.9018 7.32534 5.05042 11.9999 5.05042C9.17929 5.05042 6.89236 10.9018 6.89236 16.1393C6.89236 21.3768 9.17934 23.635 11.9999 23.635Z" fill="#C39431"/>
<path d="M10.9615 4.71076L9.54823 3.88323C7.29486 1.62986 9.73845 -0.202766 10.4677 0.526514C10.5869 0.645717 10.7158 0.74931 10.8559 0.835935L10.8432 0.890404C10.8432 0.890404 9.83623 2.65487 11.6523 3.88323C12.2443 4.28363 11.8123 4.5429 10.9615 4.71076Z" fill="#C39431"/>
<path d="M9.54856 3.88342H14.4518C15.074 3.88342 15.5785 4.38785 15.5785 5.01011C15.5785 5.63238 15.074 6.1368 14.4518 6.1368H9.54856C8.9263 6.1368 8.42188 5.63238 8.42188 5.01011C8.42188 4.38785 8.9263 3.88342 9.54856 3.88342Z" fill="#7A533C"/>
<path d="M10.2705 5.01011C10.2705 4.38785 10.7749 3.88342 11.3972 3.88342H9.54856C8.9263 3.88342 8.42188 4.38785 8.42188 5.01011C8.42188 5.63238 8.9263 6.1368 9.54856 6.1368H11.3972C10.7749 6.13685 10.2705 5.63238 10.2705 5.01011Z" fill="#593827"/>
<path d="M5.36347 10.3842C6.2742 8.6338 7.52548 7.21124 8.90286 6.35422C9.09837 6.44854 9.31751 6.50141 9.54875 6.50141H14.452C14.6832 6.50141 14.9023 6.44854 15.0979 6.35422C15.6749 6.71286 16.228 7.16736 16.7473 7.71008C16.8826 7.8515 17.1062 7.85896 17.2522 7.7286L17.2524 7.72841C17.4072 7.59022 17.4146 7.35182 17.271 7.20196C16.7684 6.67724 16.2346 6.22766 15.6773 5.85904C15.8449 5.61782 15.9436 5.32527 15.9436 5.00994C15.9436 4.48265 15.6683 4.01868 15.2541 3.75337C16.2833 2.85834 16.4148 1.76301 16.0449 1.02951C15.6557 0.257813 14.775 -0.0275613 13.9032 0.335766C12.4055 0.959812 11.396 0.938531 10.7261 0.268594C10.2807 -0.176905 9.46226 -0.0564831 8.86301 0.542766C8.4485 0.957281 8.23156 1.50703 8.25223 2.09058C8.27122 2.62584 8.48295 3.15735 8.88143 3.67649C8.39319 3.92184 8.05723 4.4272 8.05723 5.00985C8.05723 5.32523 8.1559 5.61791 8.32362 5.85908C6.91358 6.79382 5.64397 8.26391 4.71608 10.0474C3.71966 11.9624 3.1709 14.1259 3.1709 16.1394C3.1709 17.7036 3.49879 19.0737 4.14637 20.2187C4.24963 20.4013 4.48574 20.4591 4.66199 20.3454L4.66213 20.3453C4.82436 20.2406 4.87672 20.0278 4.78171 19.8598C4.1968 18.8253 3.90065 17.5757 3.90065 16.1394C3.90074 14.2411 4.42021 12.1972 5.36347 10.3842ZM9.37906 1.05881C9.69026 0.747609 10.0814 0.655969 10.2101 0.784687C11.4175 1.99209 12.1866 2.49679 13.8247 2.49679C14.0262 2.49679 14.1895 2.33348 14.1895 2.13192C14.1895 1.93036 14.0262 1.76704 13.8247 1.76704C13.2075 1.76704 12.7457 1.69064 12.3214 1.50403C12.8726 1.46231 13.4918 1.29769 14.1839 1.00931C14.5968 0.837328 15.1313 0.8385 15.3933 1.35806C15.673 1.91259 15.4593 2.81596 14.3482 3.51824H9.70371C9.2472 3.02962 8.99796 2.52937 8.98151 2.06465C8.96342 1.55348 9.22282 1.21505 9.37906 1.05881ZM9.54884 4.24809H14.4517C14.4519 4.24809 14.4521 4.24813 14.4524 4.24813C14.4525 4.24813 14.4526 4.24813 14.4527 4.24813C14.8724 4.24846 15.2139 4.59009 15.2139 5.00994C15.2139 5.43004 14.8721 5.77171 14.452 5.77171H9.54875C9.12865 5.77171 8.78693 5.42999 8.78693 5.00994C8.78693 4.5899 9.12875 4.24809 9.54884 4.24809Z" fill="black"/>
<path d="M17.8671 8.47977L17.8669 8.47986C17.7086 8.59836 17.6745 8.82074 17.7881 8.98269C19.2403 11.0529 20.0999 13.7011 20.0999 16.1393C20.0999 18.5033 19.3121 20.329 17.7583 21.5658C16.3575 22.6808 14.3664 23.2702 12.0004 23.2702C9.31462 23.2702 7.16358 22.5318 5.75189 21.1306C5.61445 20.9941 5.39503 20.9877 5.25089 21.117C5.09494 21.2568 5.08795 21.4996 5.23669 21.6471C5.98795 22.3922 6.93014 22.9708 8.04281 23.3693C9.21107 23.7877 10.5426 23.9998 12.0005 23.9998C14.5333 23.9998 16.6815 23.3555 18.2128 22.1366C19.0471 21.4726 19.6928 20.6427 20.1321 19.6702C20.595 18.6455 20.8296 17.4575 20.8296 16.1392C20.8296 13.5552 19.9201 10.7507 18.3835 8.56053C18.2656 8.39267 18.0313 8.35682 17.8671 8.47977Z" fill="black"/>
<path d="M11.9997 10.6443C12.7114 10.6443 13.2903 11.2232 13.2903 11.9349C13.2903 12.1365 13.4537 12.2998 13.6552 12.2998C13.8567 12.2998 14.02 12.1365 14.02 11.9349C14.02 10.9456 13.305 10.1206 12.3647 9.94825V9.57911C12.3647 9.37755 12.2013 9.21423 11.9998 9.21423C11.7983 9.21423 11.6349 9.37755 11.6349 9.57911V9.94825C10.6946 10.1206 9.97954 10.9456 9.97954 11.9349C9.97954 13.0488 10.8858 13.9552 11.9998 13.9552C12.7114 13.9552 13.2903 14.5341 13.2903 15.2457C13.2903 15.9574 12.7114 16.5363 11.9998 16.5363C11.2882 16.5363 10.7092 15.9574 10.7092 15.2457C10.7092 15.0442 10.5459 14.8808 10.3444 14.8808C10.1429 14.8808 9.97949 15.0442 9.97949 15.2457C9.97949 16.2351 10.6946 17.0601 11.6349 17.2324V17.6015C11.6349 17.8031 11.7982 17.9664 11.9997 17.9664C12.2013 17.9664 12.3646 17.8031 12.3646 17.6015V17.2324C13.3049 17.0601 14.02 16.2351 14.02 15.2457C14.02 14.1318 13.1137 13.2255 11.9997 13.2255C11.2881 13.2255 10.7092 12.6466 10.7092 11.9349C10.7092 11.2232 11.2881 10.6443 11.9997 10.6443Z" fill="black"/>
</g>
<defs>
<clipPath id="clip0">
<rect width="24" height="24" fill="white"/>
</clipPath>
</defs>
</svg>
