<svg width="20" height="18" viewBox="0 0 14 16" fill="none" xmlns="http://www.w3.org/2000/svg">
<path fill-rule="evenodd" clip-rule="evenodd" d="M4.69431 11.2924H8.73392C9.03837 11.2924 9.29085 11.0374 9.29085 10.7299C9.29085 10.4224 9.03837 10.1749 8.73392 10.1749H4.69431C4.38986 10.1749 4.13738 10.4224 4.13738 10.7299C4.13738 11.0374 4.38986 11.2924 4.69431 11.2924ZM7.20421 6.42497H4.69431C4.38986 6.42497 4.13738 6.67997 4.13738 6.98747C4.13738 7.29497 4.38986 7.54247 4.69431 7.54247H7.20421C7.50867 7.54247 7.76114 7.29497 7.76114 6.98747C7.76114 6.67997 7.50867 6.42497 7.20421 6.42497ZM12.5036 5.76921C12.6781 5.76719 12.8682 5.765 13.0408 5.765C13.2265 5.765 13.375 5.915 13.375 6.1025V12.1325C13.375 13.9925 11.8824 15.5 10.0408 15.5H4.12995C2.19926 15.5 0.625 13.9175 0.625 11.9675V3.8825C0.625 2.0225 2.125 0.5 3.97401 0.5H7.93936C8.13243 0.5 8.28094 0.6575 8.28094 0.845V3.26C8.28094 4.6325 9.40223 5.7575 10.7611 5.765C11.0786 5.765 11.3584 5.76737 11.6033 5.76945C11.7938 5.77106 11.9632 5.7725 12.1126 5.7725C12.2183 5.7725 12.3553 5.77092 12.5036 5.76921ZM12.7083 4.67449C12.0979 4.67674 11.3783 4.67449 10.8608 4.66924C10.0395 4.66924 9.36299 3.98599 9.36299 3.15649V1.17949C9.36299 0.856236 9.75136 0.695736 9.97339 0.928986C10.3753 1.35109 10.9277 1.93133 11.4775 2.50889C12.0258 3.08481 12.5715 3.65807 12.963 4.06924C13.1798 4.29649 13.0209 4.67374 12.7083 4.67449Z" fill="#333758"/>
</svg>