<svg width="24" height="24" viewBox="0 0 24 24" fill="none" xmlns="http://www.w3.org/2000/svg">
<circle cx="12" cy="12" r="11.5" fill="white" stroke="#EAEBEB"/>
<path opacity="0.3" fill-rule="evenodd" clip-rule="evenodd" d="M16.125 13C16.4702 13 16.75 12.7202 16.75 12.375C16.75 12.0298 16.4702 11.75 16.125 11.75H8.625C8.27982 11.75 8 12.0298 8 12.375C8 12.7202 8.27982 13 8.625 13H16.125Z" fill="#989AAA"/>
<path d="M12.8169 15.6831C13.061 15.9271 13.061 16.3229 12.8169 16.5669C12.5729 16.811 12.1771 16.811 11.9331 16.5669L8.18306 12.8169C7.94645 12.5803 7.93817 12.1993 8.16428 11.9527L11.6018 8.20267C11.835 7.94822 12.2304 7.93103 12.4848 8.16428C12.7393 8.39752 12.7565 8.79288 12.5232 9.04733L9.49009 12.3562L12.8169 15.6831Z" fill="#989AAA"/>
</svg>
