<svg width="24" height="24" viewBox="0 0 24 24" fill="none" xmlns="http://www.w3.org/2000/svg">
<path d="M14.0746 4.28784H9.5753C9.09493 4.28784 8.70557 4.6772 8.70557 5.15757V7.51638H9.65086V5.38141C9.65086 5.29955 9.71728 5.23313 9.79914 5.23313H13.8508C13.9326 5.23313 13.9991 5.29955 13.9991 5.38141V7.51638H14.9444V5.15757C14.9444 4.6772 14.555 4.28784 14.0746 4.28784Z" fill="#3C5666"/>
<path d="M14.0744 4.28784H12.0854C12.5658 4.28784 12.9552 4.6772 12.9552 5.15757V5.23313H13.8505C13.9326 5.23313 13.999 5.29955 13.999 5.38141V7.51638H14.9441V5.15757C14.9441 4.6772 14.5548 4.28784 14.0744 4.28784Z" fill="#194451"/>
<path d="M20.8538 19.1752H2.79596C2.515 19.1752 2.28711 18.9475 2.28711 18.6664V7.30231C2.28711 7.02135 2.51485 6.79346 2.79596 6.79346H20.8538C21.1349 6.79346 21.3627 7.02135 21.3627 7.30231V18.6664C21.3627 18.9475 21.1349 19.1752 20.8538 19.1752Z" fill="#CC996A"/>
<path d="M20.8538 6.79346H18.8787C19.1597 6.79346 19.3875 7.02135 19.3875 7.30231V17.2257C19.3875 17.9104 18.8324 18.4656 18.1476 18.4656H2.79596C2.51485 18.4656 2.28711 18.2377 2.28711 17.9568V18.6664C2.28711 18.9473 2.51485 19.1752 2.79596 19.1752H20.8538C21.1349 19.1752 21.3627 18.9475 21.3627 18.6664V7.30231C21.3627 7.02135 21.1349 6.79346 20.8538 6.79346Z" fill="#BA855A"/>
<path d="M20.8538 6.79346H2.79596C2.51485 6.79346 2.28711 7.02135 2.28711 7.30231V7.69422C2.28711 8.52422 2.76538 9.27985 3.51547 9.63518L10.8867 13.1261C11.4805 13.4074 12.1693 13.4074 12.7631 13.1261L20.1343 9.63518C20.8844 9.27985 21.3627 8.52422 21.3627 7.69422V7.30231C21.3627 7.02135 21.1349 6.79346 20.8538 6.79346Z" fill="#DDB083"/>
<path d="M20.8541 6.79346H18.8789C19.1599 6.79346 19.3876 7.02135 19.3876 7.30231V9.98886L20.1345 9.63518C20.8846 9.27985 21.3629 8.52422 21.3629 7.69422V7.30231C21.3629 7.16183 21.3059 7.03469 21.2139 6.94248C21.1218 6.85043 20.9945 6.79346 20.8541 6.79346Z" fill="#CC996A"/>
<path d="M13.0031 13.9109H10.6463C10.394 13.9109 10.1895 13.7062 10.1895 13.4541V12.2503C10.1895 11.998 10.394 11.7935 10.6463 11.7935H13.0031C13.2555 11.7935 13.46 11.998 13.46 12.2503V13.4541C13.46 13.7062 13.2555 13.9109 13.0031 13.9109Z" fill="#FED066"/>
<path d="M13.0033 11.7935H11.4712V13.9109H13.0033C13.2556 13.9109 13.4601 13.7062 13.4601 13.4541V12.2503C13.4601 11.998 13.2556 11.7935 13.0033 11.7935Z" fill="#F5B556"/>
<path d="M13.0034 11.5056H10.6465C10.2359 11.5056 9.90186 11.8397 9.90186 12.2502V13.4539C9.90186 13.8646 10.2359 14.1986 10.6465 14.1986H13.0034C13.4141 14.1986 13.7481 13.8646 13.7481 13.4539V12.2502C13.7481 11.8397 13.4141 11.5056 13.0034 11.5056ZM13.1724 13.4541C13.1724 13.5472 13.0967 13.623 13.0034 13.623H10.6465C10.5533 13.623 10.4776 13.5472 10.4776 13.4541V12.2503C10.4776 12.1571 10.5533 12.0813 10.6465 12.0813H13.0034C13.0967 12.0813 13.1724 12.1571 13.1724 12.2503V13.4541Z" fill="black"/>
<path d="M21.6468 7.22104C21.6058 6.81969 21.2659 6.50559 20.8541 6.50559H15.2324V5.15759C15.2324 4.51935 14.7131 4 14.0748 4H9.5755C8.93726 4 8.41791 4.51935 8.41791 5.15759V6.50559H2.79623C2.38438 6.50559 2.04449 6.81969 2.00371 7.22104C2.00086 7.24773 1.99951 7.27487 1.99951 7.3023V18.6664C1.99951 19.1056 2.35694 19.4631 2.79623 19.4631H20.8541C21.2934 19.4631 21.6508 19.1056 21.6508 18.6664V7.3023C21.6508 7.27487 21.6495 7.24773 21.6468 7.22104ZM8.99363 5.15759C8.99363 4.83675 9.25465 4.57572 9.5755 4.57572H14.0748C14.3957 4.57572 14.6567 4.83675 14.6567 5.15759V6.50559H14.2871V5.38143C14.2871 5.14095 14.0915 4.94529 13.851 4.94529H9.79934C9.55886 4.94529 9.3632 5.14095 9.3632 5.38143V6.50559H8.99363V5.15759ZM13.7114 5.52101V6.50559H9.93892V5.52101H13.7114ZM21.0751 7.69421C21.0751 8.40922 20.6575 9.0689 20.0114 9.3749L14.6556 11.9114C14.512 11.9794 14.4507 12.1511 14.5188 12.2947C14.5867 12.4385 14.7585 12.4997 14.902 12.4318L20.2577 9.8953C20.5773 9.74387 20.8542 9.52633 21.0751 9.26395V18.6664C21.0751 18.7882 20.976 18.8874 20.8541 18.8874H2.79623C2.67434 18.8874 2.57523 18.7882 2.57523 18.6664V9.26395C2.79608 9.52633 3.07299 9.74387 3.39264 9.8953L8.75779 12.4363C8.79752 12.455 8.8395 12.464 8.88073 12.464C8.98868 12.464 9.09198 12.4031 9.14116 12.2992C9.20923 12.1556 9.14791 11.9839 9.00427 11.9159L3.63897 9.3749C2.99278 9.0689 2.57523 8.40922 2.57523 7.69421V7.3023C2.57523 7.29466 2.57568 7.28716 2.57643 7.27966C2.58768 7.16842 2.68198 7.08131 2.79623 7.08131H20.8541C20.9683 7.08131 21.0626 7.16842 21.0739 7.27966C21.0746 7.28716 21.0751 7.29466 21.0751 7.3023V7.69421Z" fill="black"/>
</svg>
