<svg width="24" height="24" viewBox="0 0 24 24" fill="none" xmlns="http://www.w3.org/2000/svg">
<path d="M0 12C0 5.37258 5.37258 0 12 0C18.6274 0 24 5.37258 24 12C24 18.6274 18.6274 24 12 24C5.37258 24 0 18.6274 0 12Z" fill="#3368AE"/>
<path fill-rule="evenodd" clip-rule="evenodd" d="M8.65899 7.41135C8.65899 8.1959 8.06844 8.82367 7.1202 8.82367H7.10282C6.18984 8.82367 5.59961 8.1959 5.59961 7.41135C5.59961 6.6102 6.20781 6 7.13813 6C8.06844 6 8.64134 6.6102 8.65899 7.41135ZM8.48013 9.93886V18.1097H5.76066V9.93886H8.48013ZM18.2869 18.1098L18.287 13.4248C18.287 10.9151 16.9454 9.74704 15.1559 9.74704C13.712 9.74704 13.0656 10.5401 12.7047 11.0965V9.93913H9.98487C10.0207 10.7058 9.98487 18.11 9.98487 18.11H12.7047V13.5467C12.7047 13.3025 12.7223 13.0589 12.7942 12.8841C12.9908 12.3962 13.4383 11.8911 14.1896 11.8911C15.174 11.8911 15.5676 12.6403 15.5676 13.7384V18.1098H18.2869Z" fill="white"/>
</svg>
