<svg xmlns="http://www.w3.org/2000/svg" width="16" height="16" stroke-width="1.5" stroke="#0ead69" fill="none" stroke-linejoin="butt" stroke-linecap="butt" viewBox="0 0 24 24"> <g fill="none" fill-rule="evenodd"><rect width="24" height="24" style="stroke:rgba(0,0,0,0)"></rect><path d="M10.0003182,12.9909304 C10.8733182,14.1585138 12.2103182,14.8888787 13.6643182,14.9939312 C15.1183182,15.0969827 16.5453182,14.5647167 17.5753182,13.5332014 L20.5903182,10.5176947 C22.4933182,8.54570943 22.4673182,5.41114329 20.5283182,3.47217451 C18.5913182,1.53320573 15.4573182,1.50619224 13.4863182,3.41114402 L11.7583182,5.13000282 M14.0003182,11.0099406 C13.1273182,9.84135678 11.7903182,9.10999136 10.3363182,9.00693988 C8.88231823,8.90188739 7.45531823,9.43415333 6.42431823,10.4666692 L3.41031823,13.4821759 C1.50631823,15.4541611 1.53331823,18.5897278 3.47231823,20.5276961 C5.40931823,22.4666648 8.54231823,22.4936783 10.5143182,20.589727 L12.2313182,18.8698677"></path></g></svg>