<svg width="166" height="161" viewBox="0 0 166 161" fill="none" xmlns="http://www.w3.org/2000/svg">
<path opacity="0.44" d="M129.078 40.25H113.811V161H129.078V40.25Z" fill="#233C67"/>
<path d="M165.173 111.956H60.9385V34.7463H138.705C153.323 34.7463 165.171 46.5965 165.171 61.2125V111.956H165.173Z" fill="#5E9CEA"/>
<path d="M86.3083 111.956H35.5693V58.2478C35.5693 45.2682 46.0912 34.7463 59.0708 34.7463H62.8068C75.7864 34.7463 86.3083 45.2682 86.3083 58.2478V111.956Z" fill="#73B0F4"/>
<path d="M81.8981 111.956H39.9834V61.2189C39.9834 49.6441 49.3669 40.2627 60.9396 40.2627C72.5145 40.2627 81.8959 49.6462 81.8959 61.2189V111.956H81.8981Z" fill="#3473B7"/>
<path d="M65.215 40.6977C63.8342 40.4115 62.4054 40.2607 60.9416 40.2607C49.3667 40.2607 39.9854 49.6443 39.9854 61.217V111.956H48.5343V61.2192C48.5321 51.1081 55.6894 42.6727 65.215 40.6977Z" fill="#2B69A0"/>
<path d="M165.174 106.442H86.3086V111.956H165.174V106.442Z" fill="#73B0F4"/>
<path d="M165.174 62.0452H86.3086V106.442H165.174V62.0452Z" fill="#3473B7"/>
<path d="M165.174 62.0452H86.3086V64.2518H165.174V62.0452Z" fill="#2467A3"/>
<path opacity="0.1" d="M109.75 34.7463H107.543V73.0758H109.75V34.7463Z" fill="black"/>
<path d="M142.287 24.2682H104.785V4.41309H142.287L132.637 14.6159L142.287 24.2682Z" fill="#E8553E"/>
<path d="M108.371 73.3512H101.2V3.58519C101.2 1.6058 102.806 0 104.785 0C106.765 0 108.371 1.6058 108.371 3.58519V73.3512Z" fill="#27455B"/>
<path d="M102.854 4.6885C102.854 2.70911 104.46 1.1033 106.439 1.1033C106.815 1.1033 107.178 1.16229 107.519 1.26935C106.861 0.493757 105.88 0 104.785 0C102.806 0 101.2 1.6058 101.2 3.58519V73.3512H102.854V4.6885Z" fill="#27455B"/>
<path d="M110.025 4.41309H108.371V24.2682H110.025V4.41309Z" fill="#D84435"/>
<path d="M104.647 80.2449C107.617 80.2449 110.024 77.8376 110.024 74.8682C110.024 71.8987 107.617 69.4915 104.647 69.4915C101.678 69.4915 99.2705 71.8987 99.2705 74.8682C99.2705 77.8376 101.678 80.2449 104.647 80.2449Z" fill="#AAAAAA"/>
<path d="M105.473 80.2439C108.443 80.2439 110.85 77.8366 110.85 74.8672C110.85 71.8977 108.443 69.4905 105.473 69.4905C102.504 69.4905 100.097 71.8977 100.097 74.8672C100.097 77.8366 102.504 80.2439 105.473 80.2439Z" fill="#C9C9C9"/>
<path d="M105.612 77.487C107.134 77.487 108.369 76.2526 108.369 74.7298C108.369 73.2071 107.134 71.9727 105.612 71.9727C104.089 71.9727 102.854 73.2071 102.854 74.7298C102.854 76.2526 104.089 77.487 105.612 77.487Z" fill="#AAAAAA"/>
<path d="M86.8618 118.851H4.13575C1.85049 118.851 0 116.999 0 114.716C0 112.43 1.85268 110.58 4.13575 110.58H86.8618C89.1471 110.58 90.9975 112.433 90.9975 114.716C90.9975 116.999 89.1449 118.851 86.8618 118.851Z" fill="#70B2ED"/>
<path d="M65.2852 65.1368L58.8904 97.0016C58.7681 97.6155 58.1716 98.0131 57.5577 97.8886L8.48796 88.0397C7.87404 87.9173 7.47642 87.3209 7.60095 86.707L13.9958 54.8422C14.1181 54.2283 14.7145 53.8307 15.3285 53.9552L64.3982 63.8041C65.01 63.9265 65.4076 64.5229 65.2852 65.1368Z" fill="#FFAC27"/>
<path opacity="0.5" d="M59.3791 94.5525L58.8875 96.9994C58.7652 97.6133 58.1687 98.011 57.5548 97.8864L8.48504 88.0375C7.87112 87.9152 7.47349 87.3187 7.59802 86.7048L8.08959 84.2579C13.4663 77.8259 24.4972 74.7061 36.214 77.0569C47.9309 79.4099 56.8994 86.5453 59.3791 94.5525Z" fill="#FDCD56"/>
<path d="M63.6835 63.66L38.2288 81.5183C36.4089 82.7308 33.9292 82.2327 32.7166 80.4128L15.9639 54.082L63.6835 63.66Z" fill="#ED9718"/>
<path d="M63.7638 63.6752L38.4227 80.5437C36.6028 81.7563 34.1231 81.2581 32.9105 79.4382L16.042 54.0994L63.7638 63.6752Z" fill="#FDCD56"/>
</svg>
