<svg width="3" height="12" viewBox="0 0 3 12" fill="none" xmlns="http://www.w3.org/2000/svg">
<path d="M1.37044 0C0.637109 0 0.0371094 0.6 0.0371094 1.33333C0.0371094 2.06667 0.637109 2.66667 1.37044 2.66667C2.10378 2.66667 2.70378 2.06667 2.70378 1.33333C2.70378 0.6 2.10378 0 1.37044 0ZM1.37044 9.33333C0.637109 9.33333 0.0371094 9.93333 0.0371094 10.6667C0.0371094 11.4 0.637109 12 1.37044 12C2.10378 12 2.70378 11.4 2.70378 10.6667C2.70378 9.93333 2.10378 9.33333 1.37044 9.33333ZM1.37044 4.66667C0.637109 4.66667 0.0371094 5.26667 0.0371094 6C0.0371094 6.73333 0.637109 7.33333 1.37044 7.33333C2.10378 7.33333 2.70378 6.73333 2.70378 6C2.70378 5.26667 2.10378 4.66667 1.37044 4.66667Z" fill="#333758"/>
</svg>
