<svg width="13" height="13" viewBox="0 0 13 13" fill="none" xmlns="http://www.w3.org/2000/svg">
<path opacity="0.3" fill-rule="evenodd" clip-rule="evenodd" d="M1.50008 7.33325C1.03984 7.33325 0.666748 6.96016 0.666748 6.49992V6.49992C0.666748 6.03968 1.03984 5.66659 1.50008 5.66659L11.5001 5.66659C11.9603 5.66659 12.3334 6.03968 12.3334 6.49992V6.49992C12.3334 6.96016 11.9603 7.33325 11.5001 7.33325L1.50008 7.33325Z" fill="#989AAA"/>
<path d="M5.91066 10.9107C5.58522 11.2361 5.58522 11.7637 5.91066 12.0892C6.2361 12.4146 6.76374 12.4146 7.08917 12.0892L12.0892 7.08917C12.4047 6.77369 12.4157 6.2657 12.1142 5.93681L7.53088 0.936814C7.21989 0.597548 6.69275 0.57463 6.35348 0.885624C6.01421 1.19662 5.9913 1.72376 6.30229 2.06302L10.3465 6.47486L5.91066 10.9107Z" fill="#989AAA"/>
</svg>
