<svg width="145" height="109" viewBox="0 0 145 109" fill="none" xmlns="http://www.w3.org/2000/svg">
<g clip-path="url(#clip0)">
<path d="M81.673 94.4972L39.0322 84.6988C37.6129 84.3727 36.7268 82.9579 37.0529 81.5386L50.9533 21.0468C51.2794 19.6276 52.6943 18.7415 54.1135 19.0675L96.7542 28.8659C98.1734 29.192 99.0595 30.6069 98.7335 32.0261L84.833 92.5179C84.5071 93.9372 83.0923 94.8233 81.673 94.4972Z" fill="#9DC6FB"/>
<path d="M96.7557 28.8657L94.4628 28.3389L81.1059 86.4657C80.7705 87.9249 79.3157 88.8361 77.8566 88.5007L37.5807 79.2456L37.0539 81.5385C36.7278 82.9574 37.6137 84.3721 39.0328 84.6982L81.6744 94.4968C83.0933 94.8229 84.508 93.9369 84.834 92.5178L98.7346 32.0252C99.0605 30.6064 98.1746 29.1918 96.7557 28.8657Z" fill="#80B4FB"/>
<path d="M77.1042 102.407L33.9164 95.7911C32.479 95.5709 31.4921 94.2263 31.7122 92.7879L41.0937 31.4771C41.3138 30.0387 42.6575 29.0511 44.0949 29.2713L87.2829 35.8874C88.7203 36.1076 89.7071 37.4522 89.487 38.8906L80.1056 100.201C79.8853 101.64 78.5416 102.627 77.1042 102.407Z" fill="#ECBE6B"/>
<path d="M87.2832 35.8874L84.9609 35.5317L75.9462 94.4456C75.7199 95.9246 74.3383 96.94 72.8603 96.7136L32.0677 90.4644L31.7121 92.7884C31.4921 94.2266 32.4788 95.5709 33.9159 95.7911L77.1047 102.407C78.5419 102.627 79.8853 101.64 80.1054 100.202L89.4869 38.8901C89.707 37.4519 88.7204 36.1076 87.2832 35.8874Z" fill="#EAB14D"/>
<path d="M54.6975 47.5639H42.7412C41.9925 47.5639 41.3857 46.9571 41.3857 46.2085C41.3857 45.4598 41.9927 44.853 42.7412 44.853H54.6975C55.4461 44.853 56.0529 45.4598 56.0529 46.2085C56.0529 46.9571 55.4461 47.5639 54.6975 47.5639Z" fill="#E7A52E"/>
<path d="M54.6975 55.0273H42.7412C41.9925 55.0273 41.3857 54.4205 41.3857 53.6719C41.3857 52.9232 41.9927 52.3164 42.7412 52.3164H54.6975C55.4461 52.3164 56.0529 52.9232 56.0529 53.6719C56.0529 54.4205 55.4461 55.0273 54.6975 55.0273Z" fill="#E7A52E"/>
<path d="M54.6975 62.4912H42.7412C41.9925 62.4912 41.3857 61.8844 41.3857 61.1357C41.3857 60.3871 41.9927 59.7803 42.7412 59.7803H54.6975C55.4461 59.7803 56.0529 60.3871 56.0529 61.1357C56.0529 61.8844 55.4461 62.4912 54.6975 62.4912Z" fill="#E7A52E"/>
<path d="M54.6975 69.9555H42.7412C41.9925 69.9555 41.3857 69.3487 41.3857 68.6001C41.3857 67.8514 41.9927 67.2446 42.7412 67.2446H54.6975C55.4461 67.2446 56.0529 67.8514 56.0529 68.6001C56.0529 69.3487 55.4461 69.9555 54.6975 69.9555Z" fill="#E7A52E"/>
<path d="M54.6975 77.4189H42.7412C41.9925 77.4189 41.3857 76.8121 41.3857 76.0635C41.3857 75.3148 41.9927 74.708 42.7412 74.708H54.6975C55.4461 74.708 56.0529 75.3148 56.0529 76.0635C56.0529 76.8121 55.4461 77.4189 54.6975 77.4189Z" fill="#E7A52E"/>
<path d="M54.6975 84.8828H42.7412C41.9925 84.8828 41.3857 84.276 41.3857 83.5273C41.3857 82.7787 41.9927 82.1719 42.7412 82.1719H54.6975C55.4461 82.1719 56.0529 82.7787 56.0529 83.5273C56.0529 84.276 55.4461 84.8828 54.6975 84.8828Z" fill="#E7A52E"/>
<path d="M78.949 37.8908L50.6938 40.5226C49.2094 40.6608 48.1175 41.9787 48.2552 43.4662L53.948 104.967C54.0856 106.454 55.4006 107.548 56.8852 107.41L100.107 103.384C101.591 103.245 102.683 101.928 102.545 100.44L98.2407 53.9357C98.1526 52.9833 97.6904 52.1052 96.956 51.4942L81.5806 38.7065C80.8462 38.0957 79.8995 37.8022 78.949 37.8908Z" fill="#F9F6F9"/>
<path d="M96.944 51.5218L91.6672 47.1382C92.4021 47.7487 92.8644 48.6264 92.9528 49.5783L97.2674 96.0594C97.4054 97.5462 96.3134 98.8634 94.828 99.0016L53.7239 102.827L53.9227 104.968C54.0607 106.455 55.3765 107.548 56.8618 107.41L100.105 103.385C101.59 103.247 102.682 101.93 102.544 100.443L98.2297 53.9619C98.1414 53.01 97.6789 52.1323 96.944 51.5218Z" fill="#E7ECF6"/>
<path d="M97.1299 51.4796L81.7359 38.7042C81.1945 38.2549 80.5378 37.9792 79.8496 37.8994L81.2504 52.958C81.3426 53.9487 82.2203 54.6772 83.2109 54.5851L98.2686 53.1853C98.0633 52.5234 97.6711 51.9288 97.1299 51.4796Z" fill="#E7ECF6"/>
<path d="M97.1271 51.5131L93.7 48.6811L80.9121 49.8447L81.2024 52.9644C81.2943 53.9515 82.1741 54.6787 83.1675 54.5883L98.2681 53.2143C98.0626 52.5546 97.6696 51.9614 97.1271 51.5131Z" fill="#D8E2F1"/>
<path d="M90.7086 73.6394C91.4543 73.5732 92.0051 72.9151 91.9389 72.1694C91.8727 71.4237 91.2144 70.8729 90.4689 70.9391L63.7394 73.3122L63.3191 68.5783L90.0486 66.2051C90.7943 66.1389 91.345 65.4809 91.2788 64.7351C91.2126 63.9894 90.5544 63.4387 89.8088 63.5049L63.0794 65.878L62.9197 64.0796C62.8535 63.3337 62.1953 62.783 61.4497 62.8492C60.7042 62.9153 60.1532 63.5734 60.2195 64.3193L60.3791 66.1177L56.4471 66.4668C55.7014 66.533 55.1506 67.1911 55.2168 67.9368C55.283 68.6825 55.9413 69.2333 56.6868 69.1671L60.6189 68.818L61.0392 73.552L57.1071 73.9011C56.3614 73.9673 55.8106 74.6253 55.8768 75.3711C55.943 76.1168 56.6013 76.6675 57.3468 76.6013L61.2789 76.2522L61.6992 80.9864L57.7671 81.3355C57.0214 81.4017 56.4707 82.0598 56.5369 82.8055C56.6031 83.5512 57.2613 84.102 58.0069 84.0358L61.9389 83.6867L62.3592 88.4206L58.4272 88.7697C57.6815 88.836 57.1307 89.494 57.1969 90.2398C57.2631 90.9855 57.9214 91.5364 58.6669 91.4702L62.599 91.1211L62.7584 92.917C62.8247 93.6629 63.4829 94.2137 64.2285 94.1475C64.974 94.0813 65.5249 93.4232 65.4587 92.6773L65.2993 90.8814L92.0287 88.5083C92.7744 88.4421 93.3252 87.784 93.2589 87.0381C93.1927 86.2924 92.5345 85.7416 91.7889 85.8078L65.0595 88.1809L64.6392 83.4469L91.3686 81.0738C92.1144 81.0076 92.6651 80.3495 92.5989 79.6038C92.5327 78.8581 91.8745 78.3074 91.1289 78.3735L64.3995 80.7467L63.9792 76.0125L90.7086 73.6394Z" fill="#D8E2F1"/>
</g>
<g opacity="0.25">
<g clip-path="url(#clip1)">
<path d="M16.711 56.778L19.0856 65.5737C19.282 66.3012 18.8517 67.0498 18.1245 67.2461L7.30626 70.1668C6.68477 70.3346 6.04773 70.0446 5.75298 69.5027L5.54441 68.7512L4.30316 64.2757L1.91415 55.4268C1.71774 54.6993 2.14806 53.9507 2.87524 53.7544L8.71038 52.179C9.23478 52.0374 11.3241 53.027 13.237 54.1467C14.9826 55.1688 16.5817 56.2992 16.711 56.778Z" fill="#DDEAFB"/>
<path d="M16.7114 56.778L17.5813 60C17.5804 59.9964 17.5791 59.9928 17.578 59.9889C16.4115 56.0621 13.1418 56.7486 11.8044 55.9798L13.2375 54.1467C14.9831 55.1687 16.5822 56.2991 16.7114 56.778Z" fill="#CBE2FF"/>
<path d="M8.71033 52.1789L5.48828 53.0488C5.4919 53.0479 5.49564 53.0472 5.49959 53.0461C9.47983 52.0778 10.5322 55.2488 11.8696 56.0176L12.7325 53.8566C10.9707 52.8626 9.18918 52.0497 8.71033 52.1789Z" fill="#CBE2FF"/>
<path d="M16.7112 56.7783L16.8615 57.3353C16.5449 56.1626 15.3372 55.4683 14.1644 55.7849L12.8718 56.1339C12.1447 56.3302 11.3957 55.8997 11.1994 55.1726L10.8504 53.88C10.5338 52.7072 9.32607 52.013 8.15332 52.3296L8.71035 52.1792C9.71336 51.9084 10.7832 52.0472 11.6839 52.5649L14.8814 54.4029C15.782 54.9206 16.4404 55.7753 16.7112 56.7783Z" fill="#BED8FB"/>
<path d="M14.8639 58.7732L5.85893 61.2043C5.72215 61.2413 5.58133 61.1603 5.5444 61.0235C5.50747 60.8868 5.58842 60.7459 5.7252 60.709L14.7301 58.2779C14.8669 58.2409 15.0077 58.3219 15.0447 58.4587C15.0816 58.5954 15.0007 58.7362 14.8639 58.7732Z" fill="#617881"/>
<path d="M15.2193 60.0906L6.2144 62.5217C6.07761 62.5586 5.9368 62.4777 5.89987 62.3409C5.86294 62.2041 5.94389 62.0633 6.08067 62.0264L15.0856 59.5952C15.2224 59.5583 15.3632 59.6393 15.4001 59.776C15.4371 59.9128 15.3562 60.0536 15.2193 60.0906Z" fill="#617881"/>
<path d="M15.5758 61.4079L6.57084 63.8391C6.43406 63.876 6.29324 63.7951 6.25632 63.6583C6.21939 63.5215 6.30033 63.3807 6.43711 63.3438L15.4421 60.9126C15.5788 60.8757 15.7197 60.9566 15.7566 61.0934C15.7935 61.2302 15.7126 61.371 15.5758 61.4079Z" fill="#617881"/>
<path d="M10.2343 64.2634L6.92631 65.1565C6.78953 65.1934 6.64871 65.1125 6.61179 64.9757C6.57486 64.8389 6.6558 64.6981 6.79258 64.6612L10.1005 63.7681C10.2373 63.7312 10.3781 63.8121 10.4151 63.9489C10.452 64.0857 10.371 64.2265 10.2343 64.2634Z" fill="#617881"/>
<path d="M8.18056 56.657L4.8726 57.55C4.73582 57.587 4.595 57.506 4.55807 57.3692C4.52115 57.2325 4.60209 57.0916 4.73887 57.0547L8.04683 56.1616C8.18361 56.1247 8.32443 56.2057 8.36135 56.3424C8.39828 56.4792 8.31734 56.62 8.18056 56.657Z" fill="#617881"/>
</g>
<g clip-path="url(#clip2)">
<path d="M141.599 59.5416L140.297 68.5586C140.189 69.3044 139.498 69.8214 138.752 69.7137L127.662 68.1117C127.024 68.0197 126.554 67.5011 126.498 66.8868L126.604 66.1141L127.237 61.5129L128.547 52.4414C128.655 51.6956 129.346 51.1786 130.092 51.2863L136.074 52.1504C136.612 52.228 138.138 53.964 139.451 55.7497C140.65 57.3795 141.67 59.0507 141.599 59.5416Z" fill="#DDEAFB"/>
<path d="M141.6 59.5419L141.123 62.845C141.123 62.8413 141.123 62.8375 141.124 62.8334C141.608 58.7658 138.333 58.1014 137.41 56.8658L139.452 55.75C140.65 57.3798 141.671 59.051 141.6 59.5419Z" fill="#CBE2FF"/>
<path d="M136.074 52.1505L132.771 51.6733C132.774 51.6739 132.778 51.6747 132.782 51.6753C136.82 52.3624 136.531 55.6909 137.455 56.9264L139.103 55.2837C137.879 53.6733 136.565 52.2214 136.074 52.1505Z" fill="#CBE2FF"/>
<path d="M141.6 59.5418L141.517 60.1128C141.691 58.9105 140.857 57.7948 139.654 57.6211L138.329 57.4297C137.584 57.322 137.067 56.6301 137.174 55.8847L137.366 54.5596C137.539 53.3573 136.705 52.2415 135.503 52.0679L136.074 52.1504C137.102 52.2989 138.03 52.85 138.652 53.682L140.86 56.6359C141.482 57.468 141.748 58.5135 141.6 59.5418Z" fill="#BED8FB"/>
<path d="M139.113 60.6421L129.882 59.3086C129.741 59.2884 129.644 59.1583 129.664 59.0181C129.685 58.8778 129.815 58.7806 129.955 58.8008L139.187 60.1343C139.327 60.1546 139.424 60.2847 139.404 60.4249C139.384 60.5651 139.254 60.6624 139.113 60.6421Z" fill="#617881"/>
<path d="M138.918 61.9927L129.686 60.6592C129.546 60.639 129.449 60.5089 129.469 60.3686C129.489 60.2284 129.62 60.1312 129.76 60.1514L138.991 61.4849C139.132 61.5052 139.229 61.6353 139.209 61.7755C139.188 61.9157 139.058 62.013 138.918 61.9927Z" fill="#617881"/>
<path d="M138.723 63.3433L129.491 62.0098C129.351 61.9895 129.254 61.8594 129.274 61.7192C129.294 61.579 129.424 61.4818 129.564 61.502L138.796 62.8355C138.936 62.8557 139.033 62.9858 139.013 63.1261C138.993 63.2663 138.863 63.3635 138.723 63.3433Z" fill="#617881"/>
<path d="M132.688 63.8502L129.297 63.3604C129.157 63.3401 129.059 63.21 129.08 63.0698C129.1 62.9296 129.23 62.8323 129.37 62.8526L132.761 63.3424C132.902 63.3627 132.999 63.4928 132.979 63.633C132.958 63.7732 132.828 63.8705 132.688 63.8502Z" fill="#617881"/>
<path d="M133.814 56.0524L130.423 55.5625C130.283 55.5423 130.185 55.4122 130.206 55.272C130.226 55.1317 130.356 55.0345 130.496 55.0547L133.887 55.5446C134.028 55.5649 134.125 55.6949 134.104 55.8352C134.084 55.9754 133.954 56.0726 133.814 56.0524Z" fill="#617881"/>
</g>
<g clip-path="url(#clip3)">
<path d="M89.8054 8.66951L88.5029 17.6865C88.3952 18.4323 87.7036 18.9493 86.9581 18.8416L75.8676 17.2396C75.2305 17.1476 74.7604 16.629 74.7043 16.0147L74.8103 15.2421L75.4428 10.6408L76.7532 1.56934C76.861 0.823539 77.5525 0.306529 78.298 0.414212L84.28 1.2783C84.8176 1.35596 86.3443 3.09194 87.6574 4.87762C88.8556 6.5074 89.8763 8.17862 89.8054 8.66951Z" fill="#DDEAFB"/>
<path d="M89.8057 8.66979L89.3286 11.9729C89.3291 11.9692 89.3293 11.9654 89.3299 11.9614C89.8138 7.89372 86.5394 7.22929 85.6158 5.99373L87.6577 4.87794C88.8559 6.50768 89.8766 8.1789 89.8057 8.66979Z" fill="#CBE2FF"/>
<path d="M84.2797 1.2784L80.9766 0.80127C80.9803 0.801806 80.984 0.802676 80.988 0.80326C85.0263 1.49029 84.737 4.8188 85.6606 6.05433L87.3087 4.41163C86.0846 2.80125 84.7706 1.34931 84.2797 1.2784Z" fill="#CBE2FF"/>
<path d="M89.8056 8.66969L89.7231 9.24073C89.8968 8.03847 89.0627 6.9227 87.8604 6.74903L86.5353 6.55761C85.7898 6.44993 85.2726 5.75804 85.3803 5.0126L85.5717 3.6875C85.7454 2.48522 84.9112 1.36947 83.709 1.1958L84.28 1.27829C85.3083 1.42682 86.2357 1.97788 86.8578 2.80995L89.066 5.76387C89.688 6.59596 89.9541 7.64143 89.8056 8.66969Z" fill="#BED8FB"/>
<path d="M87.3193 9.77004L78.0878 8.43655C77.9475 8.41629 77.8503 8.2862 77.8706 8.14598C77.8908 8.00576 78.0209 7.90851 78.1611 7.92876L87.3927 9.26225C87.5329 9.28251 87.6301 9.4126 87.6099 9.55282C87.5897 9.69305 87.4596 9.7903 87.3193 9.77004Z" fill="#617881"/>
<path d="M87.124 11.1206L77.8925 9.78714C77.7522 9.76688 77.655 9.63679 77.6752 9.49657C77.6955 9.35635 77.8256 9.2591 77.9658 9.27935L87.1973 10.6128C87.3376 10.6331 87.4348 10.7632 87.4146 10.9034C87.3943 11.0436 87.2643 11.1409 87.124 11.1206Z" fill="#617881"/>
<path d="M86.9287 12.4712L77.6971 11.1377C77.5569 11.1175 77.4597 10.9874 77.4799 10.8472C77.5002 10.7069 77.6303 10.6097 77.7705 10.6299L87.002 11.9634C87.1423 11.9837 87.2395 12.1138 87.2193 12.254C87.199 12.3942 87.0689 12.4915 86.9287 12.4712Z" fill="#617881"/>
<path d="M80.894 12.9782L77.5028 12.4883C77.3626 12.4681 77.2653 12.338 77.2856 12.1977C77.3058 12.0575 77.4359 11.9603 77.5762 11.9805L80.9674 12.4704C81.1076 12.4906 81.2048 12.6207 81.1846 12.7609C81.1643 12.9012 81.0342 12.9984 80.894 12.9782Z" fill="#617881"/>
<path d="M82.02 5.18031L78.6288 4.69046C78.4886 4.6702 78.3913 4.54011 78.4116 4.39989C78.4318 4.25967 78.5619 4.16242 78.7021 4.18267L82.0933 4.67253C82.2336 4.69278 82.3308 4.82287 82.3106 4.96309C82.2903 5.10332 82.1602 5.20057 82.02 5.18031Z" fill="#617881"/>
</g>
</g>
<defs>
<clipPath id="clip0">
<rect width="90" height="90" fill="white" transform="translate(23 19)"/>
</clipPath>
<clipPath id="clip1">
<rect width="17" height="17" fill="white" transform="translate(0.078125 54.5093) rotate(-15.1085)"/>
</clipPath>
<clipPath id="clip2">
<rect width="17" height="17" fill="white" transform="translate(127.225 50.8721) rotate(8.21947)"/>
</clipPath>
<clipPath id="clip3">
<rect width="17" height="17" fill="white" transform="translate(75.4307) rotate(8.21947)"/>
</clipPath>
</defs>
</svg>
