<svg width="16" height="18" viewBox="0 0 16 18" fill="none" xmlns="http://www.w3.org/2000/svg">
<path d="M10.5002 13.1667H14.6668L13.4961 11.9959C13.1785 11.6784 13.0002 11.2477 13.0002 10.7987V8.16667C13.0002 5.98964 11.6088 4.13757 9.66683 3.45118V3.16667C9.66683 2.24619 8.92064 1.5 8.00016 1.5C7.07969 1.5 6.3335 2.24619 6.3335 3.16667V3.45118C4.39151 4.13757 3.00016 5.98964 3.00016 8.16667V10.7987C3.00016 11.2477 2.82179 11.6784 2.50427 11.9959L1.3335 13.1667H5.50016M10.5002 13.1667V14C10.5002 15.3807 9.38087 16.5 8.00016 16.5C6.61945 16.5 5.50016 15.3807 5.50016 14V13.1667M10.5002 13.1667H5.50016" stroke="#111827" stroke-width="1.5" stroke-linecap="round" stroke-linejoin="round"/>
</svg>
