<svg xmlns="http://www.w3.org/2000/svg" width="20" height="20" viewBox="0 0 20 20">
    <g fill="none" fill-rule="evenodd">
        <g fill="#AEAEAE" fill-rule="nonzero">
            <g>
                <path d="M15.143 18.126c-.108-.187-.347-.25-.534-.142l-.015.009c-.186.108-.25.347-.142.533.073.125.204.195.339.195.066 0 .134-.017.195-.053l.015-.008c.187-.109.25-.348.142-.534z" transform="translate(-372 -355) translate(372 355)"/>
                <path d="M18.66 5.003C17.325 2.69 15.169 1.036 12.59.345c-2.58-.691-5.274-.336-7.587.999C2.69 2.679 1.036 4.834.345 7.414c-.691 2.58-.336 5.274.999 7.587 1.197 2.074 3.101 3.65 5.36 4.439 1.07.374 2.188.56 3.304.56 1.214 0 2.425-.22 3.57-.66.201-.078.302-.304.225-.505-.078-.202-.304-.302-.505-.225-3.048 1.172-6.347.64-8.812-1.21l.35-1.828.168-.054c.638-.207.988-.894.78-1.532l-.123-.38c-.029-.088-.028-.182 0-.27.109-.33.07-.693-.106-.993-.176-.3-.473-.511-.815-.578l-.882-.172-1.7-1.294c-.103-.077-.236-.1-.358-.06l-.996.323C.783 10.206.783 9.85.803 9.496c.039.036.065.061.08.077.02.033.044.063.072.088.082.075.155.108.31.108.142 0 .353-.028.7-.08.33-.048.657-.103.66-.104.132-.022.243-.11.295-.232.053-.122.039-.263-.036-.373l-.48-.702.687-.49c.045-.034.084-.076.111-.125l1.064-1.856.429-.46c.438-.469.563-1.156.318-1.75-.144-.35-.396-.64-.712-.837.342-.269.706-.516 1.093-.74C6.814 1.2 8.362.804 9.895.788l-.698.875-2.586.907c-.105.037-.19.117-.232.22l-.722 1.75c-.052.125-.035.267.043.377l1.055 1.478c-.151.137-.298.338-.474.587-.077.11-.15.213-.2.27l-.13.15c-.228.255-.462.519-.629.871-.366.776-.292 1.678.193 2.353.47.654 1.244.986 2.07.889.135-.016.26-.047.382-.077.335-.083.44-.091.548.01.052.048.057.057.056.223 0 .106-.001.237.035.387.058.24.209.406.33.54.06.066.123.134.142.18.122.292.069.454-.048.808L9 13.68c-.177.547.07 1.09.287 1.567.07.156.137.302.18.432.352 1.042.615 1.28.826 1.377.111.05.226.072.341.072.563 0 1.15-.523 1.42-.854.17-.208.212-.417.243-.569.015-.075.027-.135.05-.174.034-.06.076-.106.128-.165.104-.118.235-.265.32-.53.063-.203.11-.252.264-.417l.086-.092c.52-.566.387-.999.245-1.457-.12-.385.09-.631.594-1.102.22-.203.446-.414.62-.668.077-.11.31-.448.166-.782-.141-.328-.5-.383-.79-.427-.113-.017-.285-.044-.34-.08-.242-.158-.39-.487-.533-.806-.028-.064-.056-.126-.085-.187-.05-.109-.101-.24-.155-.38-.142-.367-.303-.784-.577-1.074-.247-.262-.711-.387-1.121-.498-.138-.038-.268-.073-.354-.105-.072-.026-.15-.03-.224-.013-.2.046-.324.098-.417.172-.024.02-.096.084-.139.187-.143-.069-.34-.2-.46-.28l-.008-.005c.04-.164.004-.295-.035-.376-.218-.462-.942-.426-1.085-.414-.081.007-.184.01-.293.015-.17.006-.359.012-.545.033l.01-.026c.14-.395.518-.66.937-.66h.222c.216 0 .39-.175.39-.39 0-.216-.174-.391-.39-.391h-.222c-.623 0-1.193.327-1.512.843l-.583-.816.574-1.39 2.527-.886c.07-.024.13-.067.176-.125l1.124-1.41c2.87.274 5.573 1.884 7.121 4.566.413.714.718 1.466.92 2.235l-.165.148c-.216.193-.342.47-.347.759v.01l-.27-.742c-.04-.111-.1-.213-.176-.302l-.481-.564c-.187-.218-.459-.343-.746-.343h-.589c-.209 0-.4.114-.499.299-.098.184-.087.407.029.58l.06.09c-.381.327-.822.59-1.29.766l-.808-1.547v-.345c0-.107-.044-.209-.12-.282l-.728-.694c-.04-.039-.088-.068-.14-.086l-.655-.23c-.203-.072-.426.035-.498.239-.071.203.036.426.24.498l.575.202.545.52v.274c0 .063.015.125.044.18l1.011 1.937c.091.174.297.254.481.186l.295-.109c.684-.252 1.317-.658 1.833-1.173.131-.132.152-.338.048-.493l-.02-.03h.186c.059 0 .114.024.152.069l.48.563c.016.018.028.039.037.062l.53 1.46c.046.125.153.219.283.248.028.006.056.009.085.009.102 0 .202-.04.276-.115l.253-.252c.16-.16.27-.363.323-.588.39 3.133-.838 6.374-3.435 8.412-.17.134-.199.38-.066.549.133.17.379.2.549.066 1.874-1.471 3.162-3.576 3.626-5.926.468-2.373.06-4.834-1.151-6.93zM1.847 11.045l1.61 1.224c.048.037.103.061.162.073l.97.19c.125.024.228.097.292.206.064.109.077.235.038.355-.08.246-.081.507-.001.754l.124.38c.074.228-.051.474-.279.548l-.388.126c-.136.044-.236.158-.263.298l-.312 1.63c-.687-.628-1.29-1.371-1.78-2.219-.597-1.034-.97-2.137-1.135-3.253l.962-.312zm2.276-6.23l-.46.492c-.02.022-.038.046-.052.072L2.567 7.201l-.927.663c-.173.124-.215.363-.096.538l.347.509c-.2.03-.38.054-.499.067l-.071-.067c-.093-.086-.222-.202-.415-.37.318-1.963 1.264-3.813 2.752-5.225.285.09.518.302.633.58.128.311.062.672-.168.919zm3.185 2.134c.174-.098.579-.112.874-.123.118-.004.23-.008.33-.016.053-.005.111-.004.166 0-.024.064-.032.133-.022.202.02.121.094.227.202.285.073.039.175.107.283.179.306.203.652.434.977.455.295.019.46-.15.53-.221l.017-.017c.04-.032.077-.076.104-.128l.196.054c.231.062.662.179.757.28.169.179.3.52.416.82.06.153.115.296.177.429l.08.175c.18.402.384.858.818 1.141.196.129.437.166.65.198l.085.014c-.127.176-.306.343-.496.52-.484.45-1.085 1.01-.808 1.905.13.422.137.468-.074.696-.028.032-.055.06-.08.087-.18.191-.323.343-.44.714-.035.108-.079.158-.16.248-.064.073-.144.163-.218.29-.089.151-.118.297-.141.415-.023.115-.037.173-.082.229-.103.126-.295.31-.493.436-.184.116-.29.132-.327.13-.042-.045-.193-.24-.421-.917-.056-.167-.134-.34-.21-.505-.166-.367-.338-.746-.255-1.005l.03-.09c.133-.407.26-.791.026-1.352-.071-.17-.185-.295-.285-.405-.064-.071-.137-.152-.149-.198-.014-.057-.013-.122-.013-.198.002-.204.004-.512-.303-.8-.432-.404-.936-.28-1.27-.197-.102.026-.199.05-.285.06-.549.064-1.038-.143-1.344-.569-.32-.445-.367-1.044-.121-1.563.118-.251.298-.453.505-.687.046-.05.091-.102.137-.155.076-.088.16-.207.249-.333.106-.15.303-.43.388-.483z" transform="translate(-372 -355) translate(372 355)"/>
                <path d="M16.016 13.448l-.187-.708c-.042-.155-.173-.269-.332-.288-.159-.018-.313.061-.39.202-.042.079-.08.162-.118.243-.063.136-.127.277-.195.354-.038.044-.135.091-.23.136-.224.109-.532.258-.65.633-.073.232-.046.416-.026.55.018.117.022.158-.01.231l-.004.01c-.124.29-.355.834-.03 1.296.23.33.474.414.663.414.037 0 .072-.003.104-.008.399-.066.698-.48.943-1.305l.46-1.548c.02-.07.02-.142.002-.212zm-1.21 1.538c-.126.42-.236.617-.3.704l-.024-.032c-.074-.107.037-.368.111-.542l.004-.009c.12-.28.087-.494.064-.65-.015-.101-.02-.144-.001-.203.015-.05.106-.096.244-.163.061-.03.129-.062.197-.101l-.296.996zM10.548 4.643l-.026-.01c-.204-.07-.427.036-.498.24-.072.204.036.426.24.498l.025.01c.043.014.087.021.13.021.161 0 .312-.1.368-.261.072-.204-.035-.427-.239-.498z" transform="translate(-372 -355) translate(372 355)"/>
            </g>
        </g>
    </g>
</svg>
