<svg width="13" height="13" viewBox="0 0 13 13" fill="none" xmlns="http://www.w3.org/2000/svg">
<path opacity="0.3" fill-rule="evenodd" clip-rule="evenodd" d="M11.4999 7.33325C11.9602 7.33325 12.3333 6.96016 12.3333 6.49992C12.3333 6.03968 11.9602 5.66659 11.4999 5.66659L1.49992 5.66659C1.03968 5.66659 0.666585 6.03968 0.666585 6.49992C0.666585 6.96016 1.03968 7.33325 1.49992 7.33325L11.4999 7.33325Z" fill="#989AAA"/>
<path d="M7.08934 10.9107C7.41478 11.2361 7.41478 11.7637 7.08934 12.0892C6.7639 12.4146 6.23626 12.4146 5.91083 12.0892L0.910827 7.08917C0.595344 6.77369 0.584306 6.2657 0.885787 5.93681L5.46912 0.936814C5.78011 0.597548 6.30725 0.57463 6.64652 0.885624C6.98579 1.19662 7.0087 1.72376 6.69771 2.06302L2.65353 6.47486L7.08934 10.9107Z" fill="#989AAA"/>
</svg>
