<svg width="60" height="60" viewBox="0 0 60 60" fill="none" xmlns="http://www.w3.org/2000/svg">
<g filter="url(#filter0_d_4266_8279)">
<circle cx="30" cy="26" r="15.5" fill="white" stroke="#EAEBEB"/>
<path opacity="0.3" fill-rule="evenodd" clip-rule="evenodd" d="M35.4999 27.3333C35.9602 27.3333 36.3333 26.9602 36.3333 26.4999C36.3333 26.0397 35.9602 25.6666 35.4999 25.6666H25.4999C25.0397 25.6666 24.6666 26.0397 24.6666 26.4999C24.6666 26.9602 25.0397 27.3333 25.4999 27.3333H35.4999Z" fill="#989AAA"/>
<path d="M31.0893 30.9107C31.4148 31.2361 31.4148 31.7637 31.0893 32.0892C30.7639 32.4146 30.2363 32.4146 29.9108 32.0892L24.9108 27.0892C24.5953 26.7737 24.5843 26.2657 24.8858 25.9368L29.4691 20.9368C29.7801 20.5975 30.3073 20.5746 30.6465 20.8856C30.9858 21.1966 31.0087 21.7238 30.6977 22.063L26.6535 26.4749L31.0893 30.9107Z" fill="#989AAA"/>
</g>
<defs>
<filter id="filter0_d_4266_8279" x="0" y="0" width="60" height="60" filterUnits="userSpaceOnUse" color-interpolation-filters="sRGB">
<feFlood flood-opacity="0" result="BackgroundImageFix"/>
<feColorMatrix in="SourceAlpha" type="matrix" values="0 0 0 0 0 0 0 0 0 0 0 0 0 0 0 0 0 0 127 0" result="hardAlpha"/>
<feOffset dy="4"/>
<feGaussianBlur stdDeviation="7"/>
<feComposite in2="hardAlpha" operator="out"/>
<feColorMatrix type="matrix" values="0 0 0 0 0 0 0 0 0 0 0 0 0 0 0 0 0 0 0.16 0"/>
<feBlend mode="normal" in2="BackgroundImageFix" result="effect1_dropShadow_4266_8279"/>
<feBlend mode="normal" in="SourceGraphic" in2="effect1_dropShadow_4266_8279" result="shape"/>
</filter>
</defs>
</svg>
