<svg width="16" height="16" viewBox="0 0 16 16" fill="none" xmlns="http://www.w3.org/2000/svg">
<path d="M12.0207 11.078L14.876 13.9327L13.9327 14.876L11.078 12.0207C10.0159 12.8721 8.69471 13.3353 7.33337 13.3333C4.02137 13.3333 1.33337 10.6453 1.33337 7.33333C1.33337 4.02133 4.02137 1.33333 7.33337 1.33333C10.6454 1.33333 13.3334 4.02133 13.3334 7.33333C13.3353 8.69466 12.8722 10.0158 12.0207 11.078ZM10.6834 10.5833C11.5294 9.71325 12.002 8.54695 12 7.33333C12 4.75466 9.91137 2.66666 7.33337 2.66666C4.75471 2.66666 2.66671 4.75466 2.66671 7.33333C2.66671 9.91133 4.75471 12 7.33337 12C8.54699 12.0019 9.7133 11.5294 10.5834 10.6833L10.6834 10.5833Z" fill="#3A434B"/>
</svg>
