<svg width="78" height="78" viewBox="0 0 78 78" fill="none" xmlns="http://www.w3.org/2000/svg">
<path d="M70.9901 61.3092C75.407 54.9874 78 47.2971 78 39C78 17.4609 60.5391 0 39 0C17.4609 0 0 17.4609 0 39C0 47.2971 2.59304 54.9874 7.00995 61.3092H70.9901Z" fill="#FEF0CD"/>
<path d="M70.9922 9.14062V61.3092C63.9432 71.3989 52.2417 78 39 78C25.7583 78 14.0568 71.3989 7.00781 61.3092V9.14062L15.4126 7.94016L39 4.57031L62.5874 7.94016L70.9922 9.14062Z" fill="#F4F5F6"/>
<path d="M19.145 7.40695L15.4126 7.94016L7.00781 9.14062V61.3092C14.0568 71.3989 25.7583 78 39 78C52.2417 78 63.9432 71.3989 70.9922 61.3092C42.3578 61.3092 19.1452 38.0964 19.1452 9.46222V7.40695H19.145Z" fill="#E9EBED"/>
<path d="M70.9922 9.14062H7.00781V3.04688C7.00781 1.36409 8.3719 0 10.0547 0H67.9453C69.6281 0 70.9922 1.36409 70.9922 3.04688V9.14062Z" fill="#9DA9B3"/>
<path d="M17.452 7.61719C17.452 6.77579 18.1341 6.09375 18.9755 6.09375V3.04688C18.1341 3.04688 17.452 2.36483 17.452 1.52344C17.452 0.682043 18.1341 0 18.9755 0H10.0547C8.3719 0 7.00781 1.36409 7.00781 3.04688V9.14062H18.9755C18.1341 9.14062 17.452 8.45858 17.452 7.61719Z" fill="#94A0AB"/>
<path d="M64.5176 6.09375C65.3589 6.09375 66.041 5.41168 66.041 4.57031C66.041 3.72894 65.3589 3.04688 64.5176 3.04688C63.6762 3.04688 62.9941 3.72894 62.9941 4.57031C62.9941 5.41168 63.6762 6.09375 64.5176 6.09375Z" fill="#FF4155"/>
<path d="M59.1855 6.09375C60.0269 6.09375 60.709 5.41168 60.709 4.57031C60.709 3.72894 60.0269 3.04688 59.1855 3.04688C58.3442 3.04688 57.6621 3.72894 57.6621 4.57031C57.6621 5.41168 58.3442 6.09375 59.1855 6.09375Z" fill="#FFDD40"/>
<path d="M53.8535 6.09375C54.6949 6.09375 55.377 5.41168 55.377 4.57031C55.377 3.72894 54.6949 3.04688 53.8535 3.04688C53.0121 3.04688 52.3301 3.72894 52.3301 4.57031C52.3301 5.41168 53.0121 6.09375 53.8535 6.09375Z" fill="#38C674"/>
<path d="M13.4824 6.09375H46.2363C47.0777 6.09375 47.7598 5.41171 47.7598 4.57031C47.7598 3.72892 47.0777 3.04688 46.2363 3.04688H13.4824C12.641 3.04688 11.959 3.72892 11.959 4.57031C11.959 5.41171 12.641 6.09375 13.4824 6.09375Z" fill="#D7DCE0"/>
<path d="M26.7254 32.6497L37.6106 14.7682C38.2342 13.7439 39.7661 13.7439 40.3895 14.7682L51.2747 32.6497C51.9074 33.6892 51.1325 35 49.8852 35H28.1149C26.8676 35 26.0925 33.6892 26.7254 32.6497Z" fill="#FAC541"/>
<path d="M39 27.8812C38.1586 27.8812 37.4766 27.1991 37.4766 26.3577V21.0871C37.4766 20.2457 38.1586 19.5636 39 19.5636C39.8414 19.5636 40.5234 20.2457 40.5234 21.0871V26.3577C40.5234 27.1991 39.8414 27.8812 39 27.8812Z" fill="white"/>
<path d="M39 32.0706C39.8414 32.0706 40.5234 31.3886 40.5234 30.5472C40.5234 29.7058 39.8414 29.0237 39 29.0237C38.1586 29.0237 37.4766 29.7058 37.4766 30.5472C37.4766 31.3886 38.1586 32.0706 39 32.0706Z" fill="white"/>
<path d="M39 25.2459C38.1586 25.2459 37.4766 24.5639 37.4766 23.7225V26.3577C37.4766 27.1991 38.1586 27.8812 39 27.8812C39.8414 27.8812 40.5234 27.1991 40.5234 26.3577V23.7225C40.5234 24.5639 39.8414 25.2459 39 25.2459Z" fill="white"/>
<path d="M54.2344 43.7988H23.7656C23.1345 43.7988 22.623 43.2873 22.623 42.6562C22.623 42.0252 23.1345 41.5137 23.7656 41.5137H54.2344C54.8655 41.5137 55.377 42.0252 55.377 42.6562C55.377 43.2873 54.8655 43.7988 54.2344 43.7988Z" fill="#D7DCE0"/>
<path d="M60.3281 55.9863H17.6719C17.0407 55.9863 16.5293 55.4748 16.5293 54.8438C16.5293 54.2127 17.0407 53.7012 17.6719 53.7012H60.3281C60.9593 53.7012 61.4707 54.2127 61.4707 54.8438C61.4707 55.4748 60.9593 55.9863 60.3281 55.9863Z" fill="#D7DCE0"/>
<path d="M60.3281 60.5566H17.6719C17.0407 60.5566 16.5293 60.0451 16.5293 59.4141C16.5293 58.7831 17.0407 58.2715 17.6719 58.2715H60.3281C60.9593 58.2715 61.4707 58.7831 61.4707 59.4141C61.4707 60.0451 60.9593 60.5566 60.3281 60.5566Z" fill="#D7DCE0"/>
<path d="M39 65.127H17.6719C17.0407 65.127 16.5293 64.6154 16.5293 63.9844C16.5293 63.3534 17.0407 62.8418 17.6719 62.8418H39C39.6312 62.8418 40.1426 63.3534 40.1426 63.9844C40.1426 64.6154 39.6312 65.127 39 65.127Z" fill="#D7DCE0"/>
<path d="M49.6641 48.3691H28.3359C27.7048 48.3691 27.1934 47.8576 27.1934 47.2266C27.1934 46.5956 27.7048 46.084 28.3359 46.084H49.6641C50.2952 46.084 50.8066 46.5956 50.8066 47.2266C50.8066 47.8576 50.2952 48.3691 49.6641 48.3691Z" fill="#D7DCE0"/>
</svg>
