<?xml version="1.0" encoding="UTF-8"?>
<svg width="18px" height="18px" viewBox="0 0 18 18" version="1.1" xmlns="http://www.w3.org/2000/svg" xmlns:xlink="http://www.w3.org/1999/xlink">
    <title>Tag</title>
    <g id="Design" stroke="none" stroke-width="1" fill="none" fill-rule="evenodd">
        <g id="Transactions" transform="translate(-64.000000, -300.000000)">
            <g id="Tag" transform="translate(64.000000, 300.000000)">
                <polygon id="bound" points="0 0 18 0 18 18 0 18"></polygon>
                <path d="M14.4955629,2.26858605 C15.2401208,2.26858605 15.8437043,2.87216951 15.8437043,3.61672744 L15.8437043,3.61672744 L15.8437043,8.44372943 C15.8437043,8.80549944 15.698305,9.15208964 15.4401953,9.40557913 L15.4401953,9.40557913 L9.38273665,15.3546081 C9.12986811,15.6077581 8.7867358,15.75 8.42892661,15.75 C8.07111742,15.75 7.7279851,15.6077581 7.47511657,15.3546081 L7.47511657,15.3546081 L2.64202967,10.5215212 C2.11932344,9.99569558 2.11932344,9.14646749 2.64202967,8.62064185 L2.64202967,8.62064185 L8.70957214,2.65537929 C8.96170717,2.40749448 9.30113477,2.26858605 9.65471496,2.26858605 L9.65471496,2.26858605 Z M12.698041,4.06610791 C11.9534831,4.06610791 11.3498996,4.66969137 11.3498996,5.4142493 C11.3498996,6.15880724 11.9534831,6.7623907 12.698041,6.7623907 C13.442599,6.7623907 14.0461824,6.15880724 14.0461824,5.4142493 C14.0461824,4.66969137 13.442599,4.06610791 12.698041,4.06610791 Z" id="Combined-Shape" fill="#DADCE1" fill-rule="nonzero"></path>
            </g>
        </g>
    </g>
</svg>