<svg width="20" height="20" viewBox="0 0 20 20" fill="none" xmlns="http://www.w3.org/2000/svg">
<path d="M11.6669 8.33333H15.6368C16.8758 8.33333 17.6816 9.63719 17.1276 10.7454L14.2109 16.5787C13.9286 17.1433 13.3515 17.5 12.7202 17.5H9.37208C9.23581 17.5 9.10006 17.4833 8.96785 17.4502L5.83357 16.6667M11.6669 8.33333V4.16667C11.6669 3.24619 10.9207 2.5 10.0002 2.5H9.92068C9.50438 2.5 9.1669 2.83748 9.1669 3.25377C9.1669 3.84903 8.99071 4.43096 8.66052 4.92624L5.83357 9.16667V16.6667M11.6669 8.33333H10.0002M5.83357 16.6667H4.16691C3.24643 16.6667 2.50024 15.9205 2.50024 15V10C2.50024 9.07953 3.24643 8.33333 4.16691 8.33333H6.25024" stroke="#333758" stroke-width="1.5" stroke-linecap="round" stroke-linejoin="round"/>
</svg>
