<svg width="24" height="24" viewBox="0 0 24 24" fill="none" xmlns="http://www.w3.org/2000/svg">
<path d="M0 12C0 5.37258 5.37258 0 12 0C18.6274 0 24 5.37258 24 12C24 18.6274 18.6274 24 12 24C5.37258 24 0 18.6274 0 12Z" fill="#55ACEE"/>
<path d="M11.6406 9.75382L11.6658 10.1691L11.2461 10.1182C9.71843 9.9233 8.38382 9.26233 7.25067 8.15223L6.69668 7.60142L6.55399 8.00818C6.25181 8.9149 6.44487 9.87246 7.0744 10.5165C7.41015 10.8724 7.33461 10.9232 6.75544 10.7114C6.55399 10.6436 6.37772 10.5928 6.36093 10.6182C6.30217 10.6775 6.50362 11.4486 6.66311 11.7537C6.88134 12.1774 7.32621 12.5926 7.81305 12.8384L8.22434 13.0333L7.73751 13.0417C7.26746 13.0417 7.25067 13.0502 7.30103 13.2282C7.46891 13.779 8.13201 14.3637 8.87066 14.6179L9.39108 14.7959L8.93781 15.067C8.26631 15.4568 7.4773 15.6772 6.68829 15.6941C6.31057 15.7026 6 15.7365 6 15.7619C6 15.8466 7.02404 16.3212 7.61999 16.5076C9.40786 17.0584 11.5315 16.8212 13.1263 15.8805C14.2595 15.2111 15.3926 13.8807 15.9214 12.5926C16.2068 11.9062 16.4922 10.6521 16.4922 10.0504C16.4922 9.66061 16.5174 9.60977 16.9874 9.14369C17.2644 8.87253 17.5246 8.57593 17.575 8.49119C17.6589 8.33019 17.6505 8.33019 17.2224 8.47425C16.509 8.72847 16.4082 8.69457 16.7608 8.31324C17.021 8.04207 17.3316 7.55058 17.3316 7.40652C17.3316 7.3811 17.2057 7.42347 17.063 7.49973C16.9119 7.58447 16.5761 7.71158 16.3243 7.78785L15.8711 7.93191L15.4598 7.65227C15.2331 7.49973 14.9142 7.33025 14.7463 7.27941C14.3182 7.16077 13.6635 7.17772 13.2774 7.31331C12.2282 7.69464 11.5651 8.67762 11.6406 9.75382Z" fill="white"/>
</svg>
