<svg width="168" height="40" viewBox="0 0 168 40" fill="none" xmlns="http://www.w3.org/2000/svg">
<path fill-rule="evenodd" clip-rule="evenodd" d="M37.5025 27.4113C34.6115 34.2399 27.8558 39 20 39C9.43526 39 1 30.4367 1 20C1 9.49693 9.49085 1 20 1C30.4991 1 39 9.49589 39 20C39 22.5685 38.4975 25.0586 37.5066 27.4015L37.5025 27.4113ZM20.6177 19.4071C27.5487 21.5316 30.8185 29.2348 27.9574 35.6097C31.4648 33.8208 34.3843 30.8276 36.0479 27.0324C34.6172 19.7829 29.173 13.8352 21.7041 12.0101C20.4195 14.2651 20.0382 16.859 20.6177 19.4071ZM37.5152 20C37.5152 21.5377 37.3188 23.0442 36.9322 24.5028C34.8284 17.8272 29.5104 12.5878 22.5824 10.7037C24.7073 8.00002 28.0077 6.51468 31.4594 6.75069C35.3147 10.0808 37.5152 14.8909 37.5152 20ZM20.7198 10.7675C22.7096 7.64228 25.9614 5.66784 29.5381 5.3032C26.8041 3.52425 23.5245 2.48438 19.9998 2.48438C19.3521 2.48438 18.7003 2.522 18.0582 2.59244C14.9483 5.31374 12.8644 8.88396 11.9642 12.6796C11.2333 15.7585 11.2848 19.02 12.1133 22.1116L12.2261 22.5191C14.8207 22.5055 17.2582 21.5386 19.176 19.7618C18.46 16.6469 19.0014 13.4693 20.7198 10.7675ZM15.4281 3.08972C13.0268 5.7089 11.3283 8.93207 10.5207 12.3369C9.74032 15.6243 9.78789 19.1036 10.6584 22.4111C7.25481 21.9236 4.3173 19.8076 2.79552 16.6997C4.04937 10.1209 9.06337 4.82162 15.4281 3.08972ZM12.1716 24.0037C8.30008 24.0037 4.73187 22.1709 2.50835 19.0964C2.49298 19.3975 2.48438 19.6989 2.48438 20.0001C2.48438 23.8398 3.71106 27.4277 5.89146 30.3843C7.92053 31.0758 10.0145 31.423 12.1491 31.423C12.6354 31.423 13.128 31.4045 13.6132 31.3681C14.0219 31.3362 14.3782 31.6438 14.4089 32.0526C14.4396 32.4613 14.1332 32.8176 13.7244 32.8483C13.2024 32.8876 12.6724 32.9074 12.1491 32.9074C10.6292 32.9074 9.11389 32.742 7.63323 32.4132C10.8966 35.6809 15.2863 37.5157 20 37.5157C21.9707 37.5157 23.9007 37.1914 25.7413 36.5534C27.673 33.6813 28.0377 30.0773 26.7579 26.8852C24.8408 28.7856 22.5177 30.3313 20.0332 31.3567C19.655 31.5127 19.2208 31.3336 19.064 30.9537C18.9076 30.5748 19.0881 30.1409 19.4669 29.9845C23.1199 28.477 25.3582 26.1969 25.934 25.6104C26.0034 25.5396 26.0487 25.4935 26.0693 25.4764C24.7594 23.2334 22.7034 21.6052 20.2043 20.8329C17.9932 22.8909 15.1737 24.0037 12.1716 24.0037Z" fill="#3B48F7"/>
<path d="M37.5025 27.4113L38.1011 27.6647L38.1015 27.6636L37.5025 27.4113ZM37.5066 27.4015L36.908 27.1483L36.9076 27.1492L37.5066 27.4015ZM27.9574 35.6097L27.3644 35.3436L26.6087 37.0272L28.2527 36.1887L27.9574 35.6097ZM20.6177 19.4071L19.9839 19.5512L20.0674 19.9182L20.4272 20.0285L20.6177 19.4071ZM36.0479 27.0324L36.6432 27.2933L36.725 27.1066L36.6856 26.9065L36.0479 27.0324ZM21.7041 12.0101L21.8584 11.3786L21.382 11.2622L21.1393 11.6883L21.7041 12.0101ZM36.9322 24.5028L36.3122 24.6982L36.9861 26.8364L37.5605 24.6693L36.9322 24.5028ZM22.5824 10.7037L22.0714 10.302L21.4651 11.0734L22.4119 11.3309L22.5824 10.7037ZM31.4594 6.75069L31.8843 6.25879L31.7201 6.117L31.5037 6.10221L31.4594 6.75069ZM29.5381 5.3032L29.6041 5.94985L31.4367 5.76302L29.8926 4.75838L29.5381 5.3032ZM20.7198 10.7675L20.1715 10.4184L20.1713 10.4187L20.7198 10.7675ZM18.0582 2.59244L17.9873 1.94631L17.784 1.96861L17.6302 2.10327L18.0582 2.59244ZM11.9642 12.6796L12.5966 12.8297L12.5966 12.8296L11.9642 12.6796ZM12.1133 22.1116L11.4854 22.2799L11.4868 22.285L12.1133 22.1116ZM12.2261 22.5191L11.5997 22.6925L11.7323 23.1716L12.2295 23.169L12.2261 22.5191ZM19.176 19.7618L19.6178 20.2386L19.8938 19.9828L19.8095 19.6161L19.176 19.7618ZM10.5207 12.3369L11.1532 12.4871L11.1532 12.4869L10.5207 12.3369ZM15.4281 3.08972L15.9072 3.52898L17.4259 1.87246L15.2574 2.46253L15.4281 3.08972ZM10.6584 22.4111L10.5663 23.0545L11.5365 23.1935L11.287 22.2456L10.6584 22.4111ZM2.79552 16.6997L2.15702 16.578L2.11644 16.7909L2.21175 16.9856L2.79552 16.6997ZM2.50835 19.0964L3.03504 18.7155L1.95326 17.2197L1.85919 19.0633L2.50835 19.0964ZM5.89146 30.3843L5.36833 30.7701L5.48913 30.9339L5.68179 30.9996L5.89146 30.3843ZM13.6132 31.3681L13.6619 32.0163L13.6638 32.0161L13.6132 31.3681ZM14.4089 32.0526L13.7607 32.1013V32.1013L14.4089 32.0526ZM13.7244 32.8483L13.6757 32.2001H13.6757L13.7244 32.8483ZM7.63323 32.4132L7.77413 31.7787L5.59843 31.2956L7.1733 32.8725L7.63323 32.4132ZM25.7413 36.5534L25.9542 37.1675L26.1594 37.0964L26.2806 36.9161L25.7413 36.5534ZM26.7579 26.8852L27.3612 26.6433L26.9965 25.7334L26.3003 26.4236L26.7579 26.8852ZM20.0332 31.3567L20.281 31.9577L20.2812 31.9576L20.0332 31.3567ZM19.064 30.9537L18.4631 31.2016L18.4631 31.2017L19.064 30.9537ZM19.4669 29.9845L19.2189 29.3836L19.2189 29.3837L19.4669 29.9845ZM25.934 25.6104L25.4701 25.155L25.4701 25.155L25.934 25.6104ZM26.0693 25.4764L26.4846 25.9764L26.9085 25.6244L26.6306 25.1486L26.0693 25.4764ZM20.2043 20.8329L20.3962 20.2118L20.0368 20.1008L19.7615 20.3571L20.2043 20.8329ZM20 39.65C28.1249 39.65 35.1115 34.7261 38.1011 27.6647L36.9039 27.1579C34.1115 33.7537 27.5866 38.35 20 38.35V39.65ZM0.35 20C0.35 30.7928 9.07342 39.65 20 39.65V38.35C9.79709 38.35 1.65 30.0806 1.65 20H0.35ZM20 0.35C9.13173 0.35 0.35 9.13808 0.35 20H1.65C1.65 9.85578 9.84997 1.65 20 1.65V0.35ZM39.65 20C39.65 9.1368 30.8579 0.35 20 0.35V1.65C30.1402 1.65 38.35 9.85499 38.35 20H39.65ZM38.1053 27.6546C39.1303 25.2309 39.65 22.6546 39.65 20H38.35C38.35 22.4823 37.8646 24.8863 36.908 27.1483L38.1053 27.6546ZM38.1015 27.6636L38.1057 27.6538L36.9076 27.1492L36.9035 27.159L38.1015 27.6636ZM28.5504 35.8759C31.5673 29.1539 28.1231 21.0278 20.8082 18.7856L20.4272 20.0285C26.9743 22.0354 30.0698 29.3157 27.3644 35.3436L28.5504 35.8759ZM35.4525 26.7714C33.8509 30.4254 31.0395 33.3081 27.6621 35.0307L28.2527 36.1887C31.8902 34.3335 34.9177 31.2297 36.6432 27.2933L35.4525 26.7714ZM21.5498 12.6415C28.7664 14.4049 34.0272 20.1503 35.4101 27.1582L36.6856 26.9065C35.2072 19.4154 29.5797 13.2654 21.8584 11.3786L21.5498 12.6415ZM21.2515 19.2629C20.7078 16.8722 21.0653 14.4447 22.2689 12.3318L21.1393 11.6883C19.7737 14.0856 19.3686 16.8458 19.9839 19.5512L21.2515 19.2629ZM37.5605 24.6693C37.9616 23.1559 38.1652 21.5934 38.1652 20H36.8652C36.8652 21.482 36.676 22.9324 36.3039 24.3362L37.5605 24.6693ZM22.4119 11.3309C29.1228 13.156 34.2739 18.2302 36.3122 24.6982L37.5521 24.3074C35.3829 17.4242 29.8979 12.0196 22.753 10.0764L22.4119 11.3309ZM31.5037 6.10221C27.8357 5.8514 24.3281 7.43067 22.0714 10.302L23.0935 11.1053C25.0866 8.56937 28.1797 7.17795 31.415 7.39918L31.5037 6.10221ZM38.1652 20C38.1652 14.7023 35.8828 9.71262 31.8843 6.25879L31.0345 7.24259C34.7466 10.449 36.8652 15.0794 36.8652 20H38.1652ZM29.4722 4.65655C25.698 5.04132 22.2683 7.1251 20.1715 10.4184L21.2681 11.1166C23.1508 8.15946 26.2248 6.29436 29.6041 5.94985L29.4722 4.65655ZM19.9998 3.13438C23.395 3.13438 26.552 4.13574 29.1836 5.84803L29.8926 4.75838C27.0561 2.91277 23.6539 1.83438 19.9998 1.83438V3.13438ZM18.1291 3.23856C18.749 3.17057 19.377 3.13438 19.9998 3.13438V1.83438C19.3271 1.83438 18.6517 1.87344 17.9873 1.94631L18.1291 3.23856ZM12.5966 12.8296C13.4663 9.16296 15.48 5.71215 18.4862 3.0816L17.6302 2.10327C14.4165 4.91534 12.2626 8.60496 11.3317 12.5296L12.5966 12.8296ZM12.7411 21.9433C11.9402 18.9546 11.8909 15.8025 12.5966 12.8297L11.3317 12.5294C10.5757 15.7144 10.6294 19.0854 11.4854 22.2799L12.7411 21.9433ZM12.8525 22.3456L12.7397 21.9382L11.4868 22.285L11.5997 22.6925L12.8525 22.3456ZM18.7342 19.2849C16.9348 20.9521 14.6533 21.8563 12.2227 21.8691L12.2295 23.169C14.9881 23.1546 17.5816 22.125 19.6178 20.2386L18.7342 19.2849ZM20.1713 10.4187C18.3593 13.2678 17.7877 16.6235 18.5425 19.9074L19.8095 19.6161C19.1323 16.6703 19.6436 13.6709 21.2682 11.1163L20.1713 10.4187ZM11.1532 12.4869C11.9352 9.18973 13.5811 6.0662 15.9072 3.52898L14.949 2.65047C12.4725 5.3516 10.7214 8.67442 9.88828 12.1869L11.1532 12.4869ZM11.287 22.2456C10.4433 19.0401 10.3977 15.6692 11.1532 12.4871L9.88831 12.1868C9.08291 15.5794 9.13247 19.1671 10.0298 22.5765L11.287 22.2456ZM2.21175 16.9856C3.82888 20.2882 6.95139 22.5368 10.5663 23.0545L10.7506 21.7677C7.55823 21.3104 4.80573 19.3271 3.3793 16.4139L2.21175 16.9856ZM15.2574 2.46253C8.65706 4.25854 3.45817 9.751 2.15702 16.578L3.43403 16.8214C4.64057 10.4908 9.46968 5.38469 15.5987 3.71692L15.2574 2.46253ZM1.98165 19.4773C4.32807 22.7217 8.09267 24.6537 12.1716 24.6537V23.3537C8.50749 23.3537 5.13566 21.62 3.03504 18.7155L1.98165 19.4773ZM3.13438 20.0001C3.13438 19.7112 3.14263 19.4209 3.1575 19.1295L1.85919 19.0633C1.84334 19.374 1.83438 19.6865 1.83438 20.0001H3.13438ZM6.41459 29.9985C4.31524 27.1518 3.13438 23.6987 3.13438 20.0001H1.83438C1.83438 23.981 3.10689 27.7036 5.36833 30.7701L6.41459 29.9985ZM12.1491 30.773C10.0861 30.773 8.06287 30.4376 6.10114 29.7691L5.68179 30.9996C7.77818 31.714 9.94302 32.073 12.1491 32.073V30.773ZM13.5645 30.7199C13.0955 30.7551 12.6192 30.773 12.1491 30.773V32.073C12.6517 32.073 13.1605 32.0539 13.6619 32.0162L13.5645 30.7199ZM15.0571 32.0039C14.9996 31.2389 14.3325 30.6599 13.5626 30.72L13.6638 32.0161C13.7113 32.0124 13.7568 32.0487 13.7607 32.1013L15.0571 32.0039ZM13.7732 33.4965C14.5398 33.4388 15.1147 32.7706 15.0571 32.0039L13.7607 32.1013C13.7645 32.152 13.7265 32.1963 13.6757 32.2001L13.7732 33.4965ZM12.1491 33.5574C12.6886 33.5574 13.2349 33.5369 13.7732 33.4965L13.6757 32.2001C13.1699 32.2382 12.6561 32.2574 12.1491 32.2574V33.5574ZM7.49232 33.0478C9.01952 33.3869 10.5821 33.5574 12.1491 33.5574V32.2574C10.6763 32.2574 9.20826 32.0971 7.77413 31.7787L7.49232 33.0478ZM20 36.8657C15.4584 36.8657 11.2342 35.0992 8.09315 31.9539L7.1733 32.8725C10.5589 36.2627 15.1142 38.1657 20 38.1657V36.8657ZM25.5284 35.9392C23.7569 36.5533 21.8988 36.8657 20 36.8657V38.1657C22.0425 38.1657 24.0446 37.8295 25.9542 37.1675L25.5284 35.9392ZM26.1546 27.1271C27.3549 30.1211 27.0127 33.4985 25.2019 36.1906L26.2806 36.9161C28.3334 33.8642 28.7204 30.0336 27.3612 26.6433L26.1546 27.1271ZM20.2812 31.9576C22.8445 30.8996 25.2387 29.3065 27.2155 27.3468L26.3003 26.4236C24.443 28.2648 22.1909 29.763 19.7853 30.7559L20.2812 31.9576ZM18.4631 31.2017C18.7574 31.9146 19.5722 32.2499 20.281 31.9577L19.7855 30.7558C19.7379 30.7754 19.6842 30.7527 19.6648 30.7057L18.4631 31.2017ZM19.2189 29.3837C18.5083 29.677 18.1699 30.4909 18.4631 31.2016L19.6648 30.7058C19.6454 30.6587 19.6679 30.6047 19.7149 30.5853L19.2189 29.3837ZM25.4701 25.155C24.9134 25.7221 22.7493 27.9268 19.2189 29.3836L19.7148 30.5853C23.4905 29.0272 25.8029 26.6717 26.3978 26.0657L25.4701 25.155ZM25.654 24.9763C25.6002 25.021 25.521 25.1032 25.4701 25.155L26.3978 26.0657C26.4335 26.0294 26.4594 26.003 26.4789 25.9835C26.4885 25.9739 26.4944 25.9683 26.4975 25.9653C26.5023 25.9607 26.4965 25.9666 26.4846 25.9764L25.654 24.9763ZM20.0124 21.4539C22.3571 22.1785 24.2808 23.7028 25.508 25.8042L26.6306 25.1486C25.2381 22.7641 23.0497 21.0319 20.3962 20.2118L20.0124 21.4539ZM12.1716 24.6537C15.3391 24.6537 18.3166 23.4779 20.6472 21.3087L19.7615 20.3571C17.6698 22.3039 15.0083 23.3537 12.1716 23.3537V24.6537Z" fill="#3B48F7"/>
<circle cx="16.4375" cy="30.2422" r="0.742188" fill="#3B48F7"/>
<path d="M62.624 26.008L67.088 12.928H69.08L63.704 28H61.76L56.432 12.928H58.424L62.864 26.008H62.624ZM74.7311 28.288C73.6991 28.288 72.7791 28.06 71.9711 27.604C71.1711 27.148 70.5391 26.472 70.0751 25.576C69.6111 24.68 69.3791 23.576 69.3791 22.264C69.3791 20.944 69.6111 19.84 70.0751 18.952C70.5391 18.056 71.1711 17.38 71.9711 16.924C72.7791 16.468 73.6991 16.24 74.7311 16.24C75.7551 16.24 76.6671 16.468 77.4671 16.924C78.2751 17.38 78.9071 18.056 79.3631 18.952C79.8271 19.84 80.0591 20.944 80.0591 22.264C80.0591 23.576 79.8271 24.68 79.3631 25.576C78.9071 26.472 78.2751 27.148 77.4671 27.604C76.6671 28.06 75.7551 28.288 74.7311 28.288ZM74.6831 26.656C75.4271 26.656 76.0591 26.48 76.5791 26.128C77.0991 25.768 77.4911 25.26 77.7551 24.604C78.0271 23.948 78.1631 23.168 78.1631 22.264C78.1631 20.896 77.8791 19.82 77.3111 19.036C76.7431 18.244 75.8991 17.848 74.7791 17.848C74.0271 17.848 73.3911 18.028 72.8711 18.388C72.3591 18.74 71.9671 19.248 71.6951 19.912C71.4311 20.568 71.2991 21.352 71.2991 22.264C71.2991 23.616 71.5831 24.688 72.1511 25.48C72.7271 26.264 73.5711 26.656 74.6831 26.656ZM83.1327 28V11.632H85.0047V28H83.1327ZM89.2878 28V11.632H91.1598V28H89.2878ZM99.427 28.288C98.435 28.288 97.547 28.036 96.763 27.532C95.987 27.02 95.371 26.312 94.915 25.408C94.467 24.504 94.243 23.464 94.243 22.288C94.243 21.032 94.467 19.952 94.915 19.048C95.363 18.144 95.975 17.452 96.751 16.972C97.535 16.484 98.427 16.24 99.427 16.24C100.299 16.24 101.043 16.416 101.659 16.768C102.275 17.12 102.771 17.596 103.147 18.196C103.523 18.796 103.783 19.476 103.927 20.236C104.079 20.988 104.123 21.768 104.059 22.576H95.755V21.424H102.823L102.271 21.784C102.295 21.312 102.267 20.84 102.187 20.368C102.115 19.896 101.975 19.464 101.767 19.072C101.559 18.672 101.267 18.352 100.891 18.112C100.515 17.872 100.035 17.752 99.451 17.752C98.715 17.752 98.099 17.94 97.603 18.316C97.107 18.692 96.735 19.188 96.487 19.804C96.239 20.412 96.115 21.072 96.115 21.784V22.552C96.115 23.352 96.235 24.068 96.475 24.7C96.723 25.332 97.091 25.832 97.579 26.2C98.067 26.568 98.683 26.752 99.427 26.752C100.171 26.752 100.783 26.572 101.263 26.212C101.743 25.852 102.035 25.32 102.139 24.616H104.083C103.963 25.376 103.691 26.032 103.267 26.584C102.843 27.128 102.303 27.548 101.647 27.844C100.991 28.14 100.251 28.288 99.427 28.288ZM105.304 16.528H107.392L111.136 26.368H110.704L113.608 16.528H115.528L111.208 30.304C110.848 31.456 110.368 32.344 109.768 32.968C109.168 33.592 108.4 33.904 107.464 33.904C106.96 33.904 106.48 33.832 106.024 33.688C105.576 33.544 105.112 33.336 104.632 33.064V31.336C105.056 31.672 105.464 31.912 105.856 32.056C106.256 32.2 106.672 32.272 107.104 32.272C107.584 32.272 107.984 32.12 108.304 31.816C108.632 31.512 108.904 31.12 109.12 30.64C109.336 30.168 109.52 29.672 109.672 29.152L110.008 28L105.304 16.528ZM121.132 28L126.316 12.928H128.596L133.66 28H131.692L130.42 24.136H124.42L123.1 28H121.132ZM124.9 22.672H129.94L127.42 15.208L124.9 22.672ZM141.35 28.288C140.51 28.288 139.778 28.096 139.154 27.712C138.538 27.328 138.062 26.768 137.726 26.032C137.39 25.288 137.222 24.384 137.222 23.32H138.014C138.014 24.032 138.162 24.632 138.458 25.12C138.754 25.608 139.138 25.98 139.61 26.236C140.09 26.484 140.598 26.608 141.134 26.608C141.71 26.608 142.262 26.444 142.79 26.116C143.318 25.78 143.75 25.288 144.086 24.64C144.422 23.992 144.59 23.192 144.59 22.24C144.59 21.328 144.434 20.548 144.122 19.9C143.818 19.252 143.406 18.756 142.886 18.412C142.366 18.068 141.79 17.896 141.158 17.896C140.614 17.896 140.102 18.028 139.622 18.292C139.142 18.556 138.754 18.944 138.458 19.456C138.162 19.96 138.014 20.584 138.014 21.328H137.222C137.222 20.216 137.406 19.284 137.774 18.532C138.142 17.772 138.642 17.2 139.274 16.816C139.906 16.432 140.614 16.24 141.398 16.24C142.294 16.24 143.13 16.48 143.906 16.96C144.682 17.44 145.31 18.128 145.79 19.024C146.27 19.92 146.51 20.992 146.51 22.24C146.51 23.504 146.266 24.588 145.778 25.492C145.298 26.396 144.666 27.088 143.882 27.568C143.098 28.048 142.254 28.288 141.35 28.288ZM136.142 33.64V16.528H137.702L138.014 19.216V33.64H136.142ZM154.817 28.288C153.977 28.288 153.245 28.096 152.621 27.712C152.005 27.328 151.529 26.768 151.193 26.032C150.857 25.288 150.689 24.384 150.689 23.32H151.481C151.481 24.032 151.629 24.632 151.925 25.12C152.221 25.608 152.605 25.98 153.077 26.236C153.557 26.484 154.065 26.608 154.601 26.608C155.177 26.608 155.729 26.444 156.257 26.116C156.785 25.78 157.217 25.288 157.553 24.64C157.889 23.992 158.057 23.192 158.057 22.24C158.057 21.328 157.901 20.548 157.589 19.9C157.285 19.252 156.873 18.756 156.353 18.412C155.833 18.068 155.257 17.896 154.625 17.896C154.081 17.896 153.569 18.028 153.089 18.292C152.609 18.556 152.221 18.944 151.925 19.456C151.629 19.96 151.481 20.584 151.481 21.328H150.689C150.689 20.216 150.873 19.284 151.241 18.532C151.609 17.772 152.109 17.2 152.741 16.816C153.373 16.432 154.081 16.24 154.865 16.24C155.761 16.24 156.597 16.48 157.373 16.96C158.149 17.44 158.777 18.128 159.257 19.024C159.737 19.92 159.977 20.992 159.977 22.24C159.977 23.504 159.733 24.588 159.245 25.492C158.765 26.396 158.133 27.088 157.349 27.568C156.565 28.048 155.721 28.288 154.817 28.288ZM149.609 33.64V16.528H151.169L151.481 19.216V33.64H149.609Z" fill="#3B48F7"/>
</svg>
