<svg width="97" height="28" viewBox="0 0 97 28" fill="none" xmlns="http://www.w3.org/2000/svg">
<path fill-rule="evenodd" clip-rule="evenodd" d="M24.0542 17.6808C22.2283 21.9936 17.9615 25 13 25C6.32753 25 1 19.5916 1 13C1 6.36648 6.36264 1 13 1C19.631 1 25 6.36583 25 13C25 14.6222 24.6826 16.1949 24.0568 17.6746L24.0542 17.6808ZM13.3901 12.6255C17.7675 13.9673 19.8327 18.8325 18.0257 22.8588C20.2409 21.7289 22.0848 19.8385 23.1354 17.4415C22.2319 12.8629 18.7935 9.10643 14.0762 7.95373C13.2649 9.37798 13.0241 11.0162 13.3901 12.6255ZM24.0622 13C24.0622 13.9712 23.9382 14.9226 23.694 15.8439C22.3653 11.6277 19.0065 8.3186 14.631 7.12863C15.973 5.42106 18.0574 4.48295 20.2375 4.63202C22.6724 6.73525 24.0622 9.77317 24.0622 13ZM13.4546 7.16894C14.7113 5.19513 16.7651 3.94811 19.0241 3.71781C17.2973 2.59427 15.226 1.9375 12.9998 1.9375C12.5908 1.9375 12.1791 1.96127 11.7736 2.00575C9.80943 3.72447 8.49332 5.97934 7.92473 8.37658C7.4631 10.3211 7.49563 12.3811 8.0189 14.3336L8.09015 14.591C9.72885 14.5824 11.2683 13.9717 12.4796 12.8495C12.0274 10.8822 12.3693 8.87537 13.4546 7.16894ZM10.1125 2.31982C8.59589 3.97404 7.52316 6.00973 7.01311 8.16017C6.52022 10.2364 6.55027 12.4339 7.10006 14.5228C4.95042 14.2149 3.09516 12.8785 2.13403 10.9156C2.92594 6.76057 6.09267 3.41365 10.1125 2.31982ZM8.05577 15.5287C5.61058 15.5287 3.35697 14.3711 1.95264 12.4293C1.94294 12.6195 1.9375 12.8098 1.9375 13C1.9375 15.4252 2.71225 17.6912 4.08934 19.5585C5.37086 19.9952 6.69339 20.2145 8.04156 20.2145C8.34869 20.2145 8.6598 20.2028 8.96622 20.1798C9.22436 20.1597 9.44936 20.354 9.46877 20.6122C9.48817 20.8703 9.29462 21.0953 9.03648 21.1147C8.70677 21.1395 8.37203 21.1521 8.04156 21.1521C7.08161 21.1521 6.12456 21.0476 5.18941 20.8399C7.25045 22.9037 10.0229 24.0625 13 24.0625C14.2446 24.0625 15.4636 23.8577 16.6261 23.4548C17.8461 21.6408 18.0764 19.3646 17.2682 17.3485C16.0574 18.5488 14.5901 19.525 13.021 20.1727C12.7821 20.2711 12.5079 20.1581 12.4088 19.9181C12.3101 19.6788 12.424 19.4048 12.6633 19.306C14.9705 18.3539 16.3841 16.9138 16.7478 16.5434C16.7916 16.4987 16.8202 16.4696 16.8332 16.4588C16.006 15.0421 14.7074 14.0138 13.129 13.526C11.7325 14.8258 9.95181 15.5287 8.05577 15.5287Z" fill="white"/>
<path d="M24.0542 17.6808L24.6528 17.9343L24.6532 17.9332L24.0542 17.6808ZM24.0568 17.6746L23.4582 17.4214L23.4578 17.4223L24.0568 17.6746ZM18.0257 22.8588L17.4327 22.5926L16.677 24.2763L18.321 23.4378L18.0257 22.8588ZM13.3901 12.6255L12.7563 12.7697L12.8397 13.1367L13.1996 13.247L13.3901 12.6255ZM23.1354 17.4415L23.7308 17.7025L23.8126 17.5157L23.7731 17.3157L23.1354 17.4415ZM14.0762 7.95373L14.2305 7.32231L13.7542 7.2059L13.5114 7.632L14.0762 7.95373ZM23.694 15.8439L23.074 16.0392L23.7479 18.1775L24.3223 16.0104L23.694 15.8439ZM14.631 7.12863L14.1199 6.72697L13.5137 7.49837L14.4604 7.75585L14.631 7.12863ZM20.2375 4.63202L20.6624 4.14012L20.4982 3.99833L20.2818 3.98353L20.2375 4.63202ZM19.0241 3.71781L19.09 4.36446L20.9226 4.17763L19.3786 3.17299L19.0241 3.71781ZM13.4546 7.16894L12.9063 6.81984L12.9061 6.82012L13.4546 7.16894ZM11.7736 2.00575L11.7027 1.35963L11.4994 1.38192L11.3455 1.51659L11.7736 2.00575ZM7.92473 8.37658L8.55715 8.52671L8.55718 8.52659L7.92473 8.37658ZM8.0189 14.3336L7.39103 14.5019L7.39247 14.5071L8.0189 14.3336ZM8.09015 14.591L7.46372 14.7644L7.59638 15.2436L8.09355 15.241L8.09015 14.591ZM12.4796 12.8495L12.9213 13.3263L13.1973 13.0706L13.1131 12.7039L12.4796 12.8495ZM7.01311 8.16017L7.64553 8.3103L7.64557 8.31017L7.01311 8.16017ZM10.1125 2.31982L10.5916 2.75908L12.1103 1.10257L9.94182 1.69263L10.1125 2.31982ZM7.10006 14.5228L7.00791 15.1662L7.97812 15.3052L7.72866 14.3574L7.10006 14.5228ZM2.13403 10.9156L1.49553 10.7939L1.45495 11.0068L1.55026 11.2015L2.13403 10.9156ZM1.95264 12.4293L2.47933 12.0484L1.39755 10.5526L1.30349 12.3962L1.95264 12.4293ZM4.08934 19.5585L3.56622 19.9443L3.68702 20.1081L3.87967 20.1738L4.08934 19.5585ZM8.96622 20.1798L9.0149 20.828L9.01682 20.8279L8.96622 20.1798ZM9.46877 20.6122L8.82059 20.6609L8.82059 20.6609L9.46877 20.6122ZM9.03648 21.1147L8.98775 20.4665H8.98774L9.03648 21.1147ZM5.18941 20.8399L5.33031 20.2054L3.15461 19.7223L4.72948 21.2992L5.18941 20.8399ZM16.6261 23.4548L16.839 24.0689L17.0442 23.9978L17.1654 23.8175L16.6261 23.4548ZM17.2682 17.3485L17.8715 17.1067L17.5067 16.1968L16.8105 16.8869L17.2682 17.3485ZM13.021 20.1727L13.2688 20.7736L13.269 20.7735L13.021 20.1727ZM12.4088 19.9181L11.8079 20.166L11.808 20.1661L12.4088 19.9181ZM12.6633 19.306L12.4153 18.7051L12.4153 18.7052L12.6633 19.306ZM16.7478 16.5434L16.2839 16.088L16.2839 16.088L16.7478 16.5434ZM16.8332 16.4588L17.2485 16.9588L17.6724 16.6068L17.3945 16.131L16.8332 16.4588ZM13.129 13.526L13.321 12.905L12.9616 12.7939L12.6862 13.0502L13.129 13.526ZM13 25.65C18.2307 25.65 22.7283 22.4799 24.6528 17.9343L23.4556 17.4274C21.7283 21.5074 17.6923 24.35 13 24.35V25.65ZM0.35 13C0.35 19.9477 5.9657 25.65 13 25.65V24.35C6.68937 24.35 1.65 19.2355 1.65 13H0.35ZM13 0.35C6.00352 0.35 0.35 6.00764 0.35 13H1.65C1.65 6.72533 6.72176 1.65 13 1.65V0.35ZM25.65 13C25.65 6.00673 19.9899 0.35 13 0.35V1.65C19.2721 1.65 24.35 6.72493 24.35 13H25.65ZM24.6555 17.9278C25.3155 16.3672 25.65 14.7083 25.65 13H24.35C24.35 14.5361 24.0497 16.0226 23.4582 17.4214L24.6555 17.9278ZM24.6532 17.9332L24.6559 17.9269L23.4578 17.4223L23.4552 17.4285L24.6532 17.9332ZM18.6187 23.1249C20.5815 18.7516 18.3419 13.4635 13.5806 12.0041L13.1996 13.247C17.1932 14.4711 19.0839 18.9134 17.4327 22.5926L18.6187 23.1249ZM22.5401 17.1806C21.5514 19.4363 19.8155 21.2162 17.7304 22.2797L18.321 23.4378C20.6663 22.2416 22.6182 20.2406 23.7308 17.7025L22.5401 17.1806ZM13.9219 8.58515C18.3868 9.67619 21.6418 13.2303 22.4977 17.5674L23.7731 17.3157C22.8219 12.4954 19.2001 8.53667 14.2305 7.32231L13.9219 8.58515ZM14.0239 12.4814C13.6937 11.0294 13.9107 9.55752 14.641 8.27546L13.5114 7.632C12.6191 9.19844 12.3545 11.003 12.7563 12.7697L14.0239 12.4814ZM24.3223 16.0104C24.581 15.0343 24.7122 14.0269 24.7122 13H23.4122C23.4122 13.9154 23.2953 14.8109 23.0657 15.6773L24.3223 16.0104ZM14.4604 7.75585C18.619 8.88681 21.8108 12.0307 23.074 16.0392L24.3139 15.6485C22.9198 11.2247 19.3941 7.75039 14.8016 6.50141L14.4604 7.75585ZM20.2818 3.98353C17.8855 3.81968 15.5938 4.85171 14.1199 6.72697L15.142 7.53028C16.3523 5.99042 18.2294 5.14623 20.1931 5.2805L20.2818 3.98353ZM24.7122 13C24.7122 9.58464 23.2405 6.36705 20.6624 4.14012L19.8126 5.12392C22.1043 7.10345 23.4122 9.9617 23.4122 13H24.7122ZM18.9581 3.07116C16.5017 3.32159 14.27 4.67795 12.9063 6.81984L14.0029 7.51804C15.1526 5.7123 17.0285 4.57463 19.09 4.36446L18.9581 3.07116ZM12.9998 2.5875C15.0965 2.5875 17.0452 3.20575 18.6696 4.26264L19.3786 3.17299C17.5493 1.98278 15.3554 1.2875 12.9998 1.2875V2.5875ZM11.8445 2.65187C12.2278 2.60983 12.6157 2.5875 12.9998 2.5875V1.2875C12.5658 1.2875 12.1305 1.3127 11.7027 1.35963L11.8445 2.65187ZM8.55718 8.52659C9.09518 6.25835 10.3412 4.12287 12.2016 2.49491L11.3455 1.51659C9.27767 3.32606 7.89146 5.70034 7.29228 8.22657L8.55718 8.52659ZM8.64675 14.1654C8.15105 12.3157 8.12072 10.3652 8.55715 8.52671L7.2923 8.22645C6.80549 10.2771 6.84022 12.4464 7.39105 14.5019L8.64675 14.1654ZM8.71658 14.4175L8.64533 14.1602L7.39247 14.5071L7.46372 14.7644L8.71658 14.4175ZM12.0378 12.3727C10.9449 13.3853 9.56148 13.9333 8.08675 13.941L8.09355 15.241C9.89623 15.2315 11.5918 14.5582 12.9213 13.3263L12.0378 12.3727ZM12.9061 6.82012C11.7272 8.67382 11.355 10.8588 11.8461 12.9951L13.1131 12.7039C12.6997 10.9056 13.0115 9.07693 14.003 7.51775L12.9061 6.82012ZM7.64557 8.31017C8.13008 6.26739 9.15015 4.33134 10.5916 2.75908L9.63337 1.88057C8.04163 3.61674 6.91624 5.75207 6.38066 8.01016L7.64557 8.31017ZM7.72866 14.3574C7.20569 12.3704 7.17763 10.2813 7.64553 8.3103L6.38069 8.01003C5.86281 10.1915 5.89484 12.4973 6.47147 14.6882L7.72866 14.3574ZM1.55026 11.2015C2.60673 13.3591 4.647 14.8281 7.00791 15.1662L7.19222 13.8794C5.25385 13.6017 3.58359 12.3979 2.71781 10.6298L1.55026 11.2015ZM9.94182 1.69263C5.68636 2.85058 2.33474 6.39067 1.49553 10.7939L2.77254 11.0373C3.51714 7.13048 6.49898 3.97673 10.2832 2.94702L9.94182 1.69263ZM1.42595 12.8102C2.95318 14.9219 5.40317 16.1787 8.05577 16.1787V14.8787C5.81799 14.8787 3.76076 13.8202 2.47933 12.0484L1.42595 12.8102ZM2.5875 13C2.5875 12.8222 2.59259 12.6429 2.6018 12.4624L1.30349 12.3962C1.29329 12.596 1.2875 12.7975 1.2875 13H2.5875ZM4.61247 19.1727C3.31642 17.4153 2.5875 15.284 2.5875 13H1.2875C1.2875 15.5663 2.10808 17.9671 3.56622 19.9443L4.61247 19.1727ZM8.04156 19.5645C6.76491 19.5645 5.5132 19.357 4.29902 18.9432L3.87967 20.1738C5.22852 20.6334 6.62188 20.8645 8.04156 20.8645V19.5645ZM8.91753 19.5317C8.6273 19.5535 8.33243 19.5645 8.04156 19.5645V20.8645C8.36494 20.8645 8.69229 20.8522 9.0149 20.828L8.91753 19.5317ZM10.1169 20.5634C10.0708 19.9491 9.53494 19.4834 8.91562 19.5318L9.01682 20.8279C8.91378 20.8359 8.82796 20.7588 8.82059 20.6609L10.1169 20.5634ZM9.08521 21.7629C9.7013 21.7166 10.1633 21.1796 10.1169 20.5634L8.82059 20.6609C8.81309 20.561 8.88795 20.474 8.98775 20.4665L9.08521 21.7629ZM8.04156 21.8021C8.38829 21.8021 8.73929 21.7889 9.08523 21.7629L8.98774 20.4665C8.67424 20.4901 8.35577 20.5021 8.04156 20.5021V21.8021ZM5.0485 21.4745C6.03019 21.6925 7.03449 21.8021 8.04156 21.8021V20.5021C7.12873 20.5021 6.21894 20.4027 5.33031 20.2054L5.0485 21.4745ZM13 23.4125C10.195 23.4125 7.58812 22.322 5.64933 20.3806L4.72948 21.2992C6.91279 23.4855 9.85086 24.7125 13 24.7125V23.4125ZM16.4132 22.8406C15.3197 23.2197 14.1728 23.4125 13 23.4125V24.7125C14.3165 24.7125 15.6075 24.4958 16.839 24.0689L16.4132 22.8406ZM16.6648 17.5904C17.3937 19.4083 17.1858 21.458 16.0867 23.092L17.1654 23.8175C18.5065 21.8237 18.7592 19.3209 17.8715 17.1067L16.6648 17.5904ZM13.269 20.7735C14.9169 20.0933 16.4553 19.0696 17.7258 17.8102L16.8105 16.8869C15.6595 18.028 14.2634 18.9567 12.773 19.5718L13.269 20.7735ZM11.808 20.1661C12.0444 20.739 12.6993 21.0084 13.2688 20.7736L12.7732 19.5717C12.865 19.5339 12.9713 19.5772 13.0096 19.6701L11.808 20.1661ZM12.4153 18.7052C11.8442 18.9409 11.5723 19.5949 11.8079 20.166L13.0097 19.6702C13.0478 19.7627 13.0039 19.8686 12.9113 19.9068L12.4153 18.7052ZM16.2839 16.088C15.9394 16.439 14.5998 17.8037 12.4153 18.7051L12.9112 19.9068C15.3411 18.9041 16.8289 17.3886 17.2116 16.9987L16.2839 16.088ZM16.418 15.9587C16.3718 15.9971 16.3092 16.0623 16.2839 16.088L17.2116 16.9987C17.2345 16.9754 17.2498 16.9598 17.261 16.9486C17.2636 16.9461 17.2655 16.9442 17.2669 16.9428C17.2684 16.9414 17.269 16.9408 17.2688 16.941C17.2688 16.941 17.2672 16.9425 17.2645 16.945C17.2621 16.9472 17.2565 16.9522 17.2485 16.9588L16.418 15.9587ZM12.9371 14.147C14.3611 14.5871 15.5273 15.5115 16.272 16.7865L17.3945 16.131C16.4846 14.5728 15.0537 13.4405 13.321 12.905L12.9371 14.147ZM8.05577 16.1787C10.1172 16.1787 12.0559 15.4128 13.5719 14.0018L12.6862 13.0502C11.4092 14.2388 9.78638 14.8787 8.05577 14.8787V16.1787Z" fill="white"/>
<circle cx="10.75" cy="19.4687" r="0.46875" fill="white"/>
<path d="M37.224 5.528L41.832 17.024L46.248 5.528H49.536L41.712 23.816L33.888 5.528H37.224ZM47.2061 17C47.2061 14.968 47.7021 13.408 48.6941 12.32C49.6861 11.216 51.0781 10.664 52.8701 10.664C53.8301 10.664 54.6621 10.816 55.3661 11.12C56.0701 11.424 56.6541 11.856 57.1181 12.416C57.5821 12.96 57.9261 13.624 58.1501 14.408C58.3901 15.192 58.5101 16.056 58.5101 17C58.5101 19.032 58.0141 20.6 57.0221 21.704C56.0461 22.792 54.6621 23.336 52.8701 23.336C51.9101 23.336 51.0781 23.184 50.3741 22.88C49.6701 22.576 49.0781 22.152 48.5981 21.608C48.1341 21.048 47.7821 20.376 47.5421 19.592C47.3181 18.808 47.2061 17.944 47.2061 17ZM50.4221 17C50.4221 17.528 50.4701 18.016 50.5661 18.464C50.6621 18.912 50.8061 19.304 50.9981 19.64C51.1901 19.976 51.4381 20.24 51.7421 20.432C52.0621 20.608 52.4381 20.696 52.8701 20.696C53.6861 20.696 54.2941 20.4 54.6941 19.808C55.0941 19.216 55.2941 18.28 55.2941 17C55.2941 15.896 55.1101 15.008 54.7421 14.336C54.3741 13.648 53.7501 13.304 52.8701 13.304C52.1021 13.304 51.5021 13.592 51.0701 14.168C50.6381 14.744 50.4221 15.688 50.4221 17ZM63.8887 18.968C63.8887 19.528 63.9607 19.936 64.1047 20.192C64.2487 20.448 64.4807 20.576 64.8007 20.576C64.9927 20.576 65.1767 20.56 65.3527 20.528C65.5447 20.496 65.7767 20.424 66.0487 20.312L66.3847 22.76C66.1287 22.888 65.7367 23.016 65.2087 23.144C64.6807 23.272 64.1367 23.336 63.5767 23.336C62.6647 23.336 61.9687 23.128 61.4887 22.712C61.0087 22.28 60.7687 21.576 60.7687 20.6V6.2H63.8887V18.968ZM70.9434 18.968C70.9434 19.528 71.0154 19.936 71.1594 20.192C71.3034 20.448 71.5354 20.576 71.8554 20.576C72.0474 20.576 72.2314 20.56 72.4074 20.528C72.5994 20.496 72.8314 20.424 73.1034 20.312L73.4394 22.76C73.1834 22.888 72.7914 23.016 72.2634 23.144C71.7354 23.272 71.1914 23.336 70.6314 23.336C69.7194 23.336 69.0234 23.128 68.5434 22.712C68.0634 22.28 67.8234 21.576 67.8234 20.6V6.2H70.9434V18.968ZM84.3821 21.968C83.9021 22.352 83.2461 22.68 82.4141 22.952C81.5981 23.208 80.7261 23.336 79.7981 23.336C77.8621 23.336 76.4461 22.776 75.5501 21.656C74.6541 20.52 74.2061 18.968 74.2061 17C74.2061 14.888 74.7101 13.304 75.7181 12.248C76.7261 11.192 78.1421 10.664 79.9661 10.664C80.5741 10.664 81.1661 10.744 81.7421 10.904C82.3181 11.064 82.8301 11.328 83.2781 11.696C83.7261 12.064 84.0861 12.56 84.3581 13.184C84.6301 13.808 84.7661 14.584 84.7661 15.512C84.7661 15.848 84.7421 16.208 84.6941 16.592C84.6621 16.976 84.6061 17.376 84.5261 17.792H77.3261C77.3741 18.8 77.6301 19.56 78.0941 20.072C78.5741 20.584 79.3421 20.84 80.3981 20.84C81.0541 20.84 81.6381 20.744 82.1501 20.552C82.6781 20.344 83.0781 20.136 83.3501 19.928L84.3821 21.968ZM79.9181 13.16C79.1021 13.16 78.4941 13.408 78.0941 13.904C77.7101 14.384 77.4781 15.032 77.3981 15.848H81.8621C81.9261 14.984 81.7901 14.32 81.4541 13.856C81.1341 13.392 80.6221 13.16 79.9181 13.16ZM91.0094 17.744L91.4414 19.616H91.5854L91.8974 17.72L93.7214 11H96.9374L93.2894 21.824C92.9854 22.72 92.6894 23.536 92.4014 24.272C92.1294 25.024 91.8254 25.672 91.4894 26.216C91.1534 26.76 90.7774 27.176 90.3614 27.464C89.9614 27.768 89.4814 27.92 88.9214 27.92C88.0894 27.92 87.4254 27.784 86.9294 27.512L87.5054 25.016C87.7454 25.112 87.9854 25.16 88.2254 25.16C88.5934 25.16 88.9454 25 89.2814 24.68C89.6334 24.376 89.8974 23.816 90.0734 23L85.0574 11H88.8014L91.0094 17.744Z" fill="white"/>
</svg>
