<svg width="85" height="28" viewBox="0 0 85 28" fill="none" xmlns="http://www.w3.org/2000/svg">
<path fill-rule="evenodd" clip-rule="evenodd" d="M35.3277 8.75771C35.3277 16.134 35.3393 17.158 35.4284 17.6795C35.8695 20.2607 37.4993 21.4874 40.4876 21.4874C41.3376 21.4874 42.2051 21.399 42.4051 21.292C42.5095 21.2361 42.5159 21.1032 42.5004 19.3129C42.4861 17.6435 42.4718 17.3967 42.3902 17.4172C42.3386 17.4301 42.0274 17.4547 41.6986 17.4719C40.6606 17.526 40.1186 17.2617 39.8511 16.5713C39.7391 16.2819 39.7332 15.9213 39.717 8.34683L39.7 0.424988H37.5138H35.3277V8.75771ZM43.9527 8.44958C43.9527 13.53 43.9764 16.7054 44.0173 17.1042C44.2569 19.439 45.3098 20.7882 47.2964 21.306C48.1445 21.527 50.4875 21.537 51.0478 21.322C51.1265 21.2918 51.1402 20.998 51.1402 19.3329V17.3792L50.8745 17.4306C50.4498 17.5127 49.7516 17.4952 49.4101 17.3938C48.9955 17.2707 48.7974 17.1066 48.5912 16.7156L48.4214 16.3937L48.4046 8.40933L48.3879 0.424988H46.1702H43.9527V8.44958ZM23.8903 5.77565C22.2702 6.06922 21.2258 6.4779 20.1442 7.24152C17.5013 9.10739 16.3161 12.1186 16.9601 15.3312C17.238 16.7178 17.8877 17.9265 18.9399 19.0147C20.2892 20.4102 21.9273 21.2335 23.8703 21.4926C24.5617 21.5848 26.2557 21.5295 26.859 21.395C28.5201 21.0247 29.8441 20.296 31.0521 19.0872C32.3516 17.787 33.0511 16.3979 33.2584 14.7062C33.5652 12.2028 32.8393 10.002 31.1429 8.29283C29.887 7.02752 28.5296 6.26515 26.859 5.88697C26.4345 5.79084 24.257 5.70922 23.8903 5.77565ZM58.8276 5.83359C56.0159 6.27815 53.7285 8.07708 52.8204 10.5581C52.4822 11.4821 52.3848 12.0409 52.3465 13.2778C52.2942 14.9649 52.4941 16.0671 53.0701 17.2687C54.3733 19.9872 57.3234 21.5608 60.8276 21.4065C63.0167 21.31 65.1693 20.4013 66.5427 18.994L66.8516 18.6775L65.8865 17.752C65.3557 17.2431 64.7783 16.6945 64.6033 16.533L64.2854 16.2393L64.0408 16.4458C63.4147 16.9745 62.7491 17.3233 61.9839 17.5237C61.3722 17.684 59.9819 17.6872 59.3117 17.53C57.8781 17.1937 56.9428 16.2764 56.735 15.0031L56.6916 14.7374H62.3183H67.9449L67.9883 14.4481C68.0671 13.9226 67.9713 12.0659 67.8355 11.4874C67.495 10.0363 66.8673 8.90552 65.8222 7.86046C64.705 6.74328 63.4244 6.09747 61.7964 5.83028C61.1021 5.71634 59.5581 5.71809 58.8276 5.83359ZM0.0901871 6.37734C0.139812 6.45509 2.06012 9.9992 4.35754 14.2531C6.65497 18.507 8.55371 21.9874 8.57696 21.9874C8.60984 21.9874 16.9793 6.51346 17.0676 6.2894C17.0792 6.25997 16.0585 6.24328 14.7992 6.25234L12.5098 6.26872L10.5758 9.95595C9.51215 11.9839 8.62021 13.6504 8.59378 13.6592C8.56728 13.6681 7.67047 12.0088 6.60078 9.97201L4.65598 6.26872L2.32799 6.25234L0 6.2359L0.0901871 6.37734ZM68.4245 6.37247C68.4481 6.44678 69.8692 9.96683 71.5826 14.1949L74.6978 21.8822L74.4996 22.4504C74.2523 23.1596 73.9079 23.5466 73.3864 23.7015C72.9694 23.8253 72.033 23.827 71.3588 23.7052C71.0838 23.6555 70.8377 23.6143 70.812 23.6136C70.7862 23.613 70.7651 24.467 70.7651 25.5116V27.4108L71.187 27.4959C71.4619 27.5514 72.0114 27.5788 72.7651 27.5746C73.8031 27.5686 73.9849 27.5511 74.5431 27.4031C76.1859 26.9676 77.2021 26.1085 78.004 24.4773C78.2283 24.021 83.3938 10.6099 84.9992 6.31559C85.0222 6.25403 84.5535 6.23747 82.7844 6.23747H80.5403L78.7345 11.3624C77.7414 14.1812 76.9101 16.4874 76.8874 16.4874C76.8646 16.4874 75.9489 14.1814 74.8524 11.3629L72.8588 6.2384L70.6203 6.23797L68.3816 6.23747L68.4245 6.37247ZM61.1896 9.46076C62.4679 9.72164 63.4517 10.6013 63.5623 11.5821L63.5939 11.8624H60.1746H56.7552L56.7971 11.6593C57.12 10.0944 59.198 9.05433 61.1896 9.46076ZM26.3353 9.9382C26.9638 10.1704 27.3163 10.4003 27.7983 10.8929C28.2721 11.3769 28.6371 12.0049 28.7978 12.6124C28.9055 13.0195 28.9189 14.0921 28.8221 14.5625C28.7846 14.7446 28.6401 15.1327 28.5008 15.4249C28.0744 16.3194 27.1771 17.0965 26.2213 17.399C25.7288 17.5549 24.7398 17.5846 24.1811 17.4604C22.8805 17.171 21.8019 16.1899 21.385 14.9172C21.2549 14.52 21.2343 14.3394 21.2362 13.6124C21.238 12.8944 21.2598 12.7081 21.3823 12.3624C21.8484 11.0472 23.0053 10.0315 24.3278 9.77664C24.4137 9.76001 24.8075 9.75526 25.2028 9.76595C25.7771 9.78151 26.0046 9.81614 26.3353 9.9382Z" fill="white"/>
</svg>
