<svg width="78" height="78" viewBox="0 0 78 78" fill="none" xmlns="http://www.w3.org/2000/svg">
<path d="M70.9901 61.3092C75.407 54.9874 78 47.2971 78 39C78 17.4609 60.5391 0 39 0C17.4609 0 0 17.4609 0 39C0 47.2971 2.59304 54.9874 7.00995 61.3092H70.9901Z" fill="#FEF0CD"/>
<path d="M70.9922 9.14062V61.3092C63.9432 71.3989 52.2417 78 39 78C25.7583 78 14.0568 71.3989 7.00781 61.3092V9.14062L15.4126 7.94016L39 4.57031L62.5874 7.94016L70.9922 9.14062Z" fill="#F4F5F6"/>
<path d="M19.145 7.40674L15.4126 7.93994L7.00781 9.14041V61.309C14.0568 71.3987 25.7583 77.9998 39 77.9998C52.2417 77.9998 63.9432 71.3987 70.9922 61.309C42.3578 61.309 19.1452 38.0962 19.1452 9.46201V7.40674H19.145Z" fill="#E9EBED"/>
<path d="M70.9922 9.14062H7.00781V3.04688C7.00781 1.36409 8.3719 0 10.0547 0H67.9453C69.6281 0 70.9922 1.36409 70.9922 3.04688V9.14062Z" fill="#9DA9B3"/>
<path d="M17.452 7.61719C17.452 6.77579 18.1341 6.09375 18.9755 6.09375V3.04688C18.1341 3.04688 17.452 2.36483 17.452 1.52344C17.452 0.682043 18.1341 0 18.9755 0H10.0547C8.3719 0 7.00781 1.36409 7.00781 3.04688V9.14062H18.9755C18.1341 9.14062 17.452 8.45858 17.452 7.61719Z" fill="#94A0AB"/>
<path d="M64.5176 6.09375C65.3589 6.09375 66.041 5.41168 66.041 4.57031C66.041 3.72894 65.3589 3.04688 64.5176 3.04688C63.6762 3.04688 62.9941 3.72894 62.9941 4.57031C62.9941 5.41168 63.6762 6.09375 64.5176 6.09375Z" fill="#FF4155"/>
<path d="M59.1855 6.09375C60.0269 6.09375 60.709 5.41168 60.709 4.57031C60.709 3.72894 60.0269 3.04688 59.1855 3.04688C58.3442 3.04688 57.6621 3.72894 57.6621 4.57031C57.6621 5.41168 58.3442 6.09375 59.1855 6.09375Z" fill="#FFDD40"/>
<path d="M53.8535 6.09375C54.6949 6.09375 55.377 5.41168 55.377 4.57031C55.377 3.72894 54.6949 3.04688 53.8535 3.04688C53.0121 3.04688 52.3301 3.72894 52.3301 4.57031C52.3301 5.41168 53.0121 6.09375 53.8535 6.09375Z" fill="#38C674"/>
<path d="M13.4824 6.09375H46.2363C47.0777 6.09375 47.7598 5.41171 47.7598 4.57031C47.7598 3.72892 47.0777 3.04688 46.2363 3.04688H13.4824C12.641 3.04688 11.959 3.72892 11.959 4.57031C11.959 5.41171 12.641 6.09375 13.4824 6.09375Z" fill="#D7DCE0"/>
<path d="M54.2344 22.7988H23.7656C23.1345 22.7988 22.623 22.2873 22.623 21.6562C22.623 21.0252 23.1345 20.5137 23.7656 20.5137H54.2344C54.8655 20.5137 55.377 21.0252 55.377 21.6562C55.377 22.2873 54.8655 22.7988 54.2344 22.7988Z" fill="#D7DCE0"/>
<path d="M60.3281 34.9863H17.6719C17.0407 34.9863 16.5293 34.4748 16.5293 33.8438C16.5293 33.2127 17.0407 32.7012 17.6719 32.7012H60.3281C60.9593 32.7012 61.4707 33.2127 61.4707 33.8438C61.4707 34.4748 60.9593 34.9863 60.3281 34.9863Z" fill="#D7DCE0"/>
<path d="M60.3281 51.2852H17.6719C17.0407 51.2852 16.5293 50.7736 16.5293 50.1426C16.5293 49.5116 17.0407 49 17.6719 49H60.3281C60.9593 49 61.4707 49.5116 61.4707 50.1426C61.4707 50.7736 60.9593 51.2852 60.3281 51.2852Z" fill="#D7DCE0"/>
<path d="M60.3281 39.5566H17.6719C17.0407 39.5566 16.5293 39.0451 16.5293 38.4141C16.5293 37.7831 17.0407 37.2715 17.6719 37.2715H60.3281C60.9593 37.2715 61.4707 37.7831 61.4707 38.4141C61.4707 39.0451 60.9593 39.5566 60.3281 39.5566Z" fill="#D7DCE0"/>
<path d="M60.3281 55.8555H17.6719C17.0407 55.8555 16.5293 55.3439 16.5293 54.7129C16.5293 54.0819 17.0407 53.5703 17.6719 53.5703H60.3281C60.9593 53.5703 61.4707 54.0819 61.4707 54.7129C61.4707 55.3439 60.9593 55.8555 60.3281 55.8555Z" fill="#D7DCE0"/>
<path d="M39 44.127H17.6719C17.0407 44.127 16.5293 43.6154 16.5293 42.9844C16.5293 42.3534 17.0407 41.8418 17.6719 41.8418H39C39.6312 41.8418 40.1426 42.3534 40.1426 42.9844C40.1426 43.6154 39.6312 44.127 39 44.127Z" fill="#D7DCE0"/>
<path d="M49.6641 27.3691H28.3359C27.7048 27.3691 27.1934 26.8576 27.1934 26.2266C27.1934 25.5956 27.7048 25.084 28.3359 25.084H49.6641C50.2952 25.084 50.8066 25.5956 50.8066 26.2266C50.8066 26.8576 50.2952 27.3691 49.6641 27.3691Z" fill="#D7DCE0"/>
</svg>
