<svg width="24" height="24" viewBox="0 0 24 24" fill="none" xmlns="http://www.w3.org/2000/svg">
<path d="M16.5684 20.7834C16.4824 20.7834 16.3999 20.7492 16.3391 20.6884C16.2783 20.6276 16.2441 20.5451 16.2441 20.459V3.23029L12.1336 1.50586L8.68185 2.8638V20.459C8.68185 20.5451 8.64768 20.6276 8.58686 20.6884C8.52604 20.7492 8.44354 20.7834 8.35753 20.7834C8.27151 20.7834 8.18902 20.7492 8.1282 20.6884C8.06737 20.6276 8.0332 20.5451 8.0332 20.459V2.64262C8.03318 2.57745 8.05278 2.5138 8.08946 2.45994C8.12613 2.40608 8.17818 2.36452 8.23882 2.34067L12.0188 0.853642C12.0975 0.822652 12.1851 0.823583 12.263 0.856237L16.694 2.71559C16.7529 2.74031 16.8032 2.78188 16.8385 2.83508C16.8739 2.88827 16.8928 2.95073 16.8928 3.01462V20.459C16.8928 20.5451 16.8586 20.6276 16.7978 20.6884C16.737 20.7492 16.6545 20.7834 16.5684 20.7834Z" fill="black"/>
<path d="M12.1378 20.7832C12.0518 20.7832 11.9693 20.749 11.9085 20.6882C11.8476 20.6273 11.8135 20.5449 11.8135 20.4588V1.15538C11.8135 1.06936 11.8476 0.98687 11.9085 0.926047C11.9693 0.865224 12.0518 0.831055 12.1378 0.831055C12.2238 0.831055 12.3063 0.865224 12.3671 0.926047C12.428 0.98687 12.4621 1.06936 12.4621 1.15538V20.4588C12.4621 20.5449 12.428 20.6273 12.3671 20.6882C12.3063 20.749 12.2238 20.7832 12.1378 20.7832Z" fill="black"/>
<path d="M21.8052 20.7835C21.7192 20.7835 21.6367 20.7494 21.5759 20.6886C21.515 20.6277 21.4809 20.5452 21.4809 20.4592V10.2657L18.3096 8.42062H16.569C16.4829 8.42062 16.4004 8.38645 16.3396 8.32563C16.2788 8.26481 16.2446 8.18231 16.2446 8.0963C16.2446 8.01028 16.2788 7.92779 16.3396 7.86697C16.4004 7.80614 16.4829 7.77197 16.569 7.77197H18.3972C18.4542 7.77217 18.5101 7.78739 18.5593 7.81608L21.9677 9.799C22.0169 9.82741 22.0578 9.86825 22.0862 9.91743C22.1147 9.9666 22.1297 10.0224 22.1298 10.0792V20.4576C22.13 20.5003 22.1218 20.5427 22.1056 20.5823C22.0894 20.6218 22.0655 20.6578 22.0353 20.6881C22.0051 20.7184 21.9693 20.7424 21.9298 20.7588C21.8903 20.7752 21.8479 20.7836 21.8052 20.7835Z" fill="black"/>
<path d="M18.3971 20.7835C18.3111 20.7835 18.2286 20.7494 18.1677 20.6886C18.1069 20.6277 18.0728 20.5452 18.0728 20.4592V8.0963C18.0728 8.01028 18.1069 7.92779 18.1677 7.86697C18.2286 7.80614 18.3111 7.77197 18.3971 7.77197C18.4831 7.77197 18.5656 7.80614 18.6264 7.86697C18.6872 7.92779 18.7214 8.01028 18.7214 8.0963V20.4592C18.7214 20.5452 18.6872 20.6277 18.6264 20.6886C18.5656 20.7494 18.4831 20.7835 18.3971 20.7835Z" fill="black"/>
<path d="M1.69639 20.7829C1.61038 20.7829 1.52789 20.7488 1.46706 20.6879C1.40624 20.6271 1.37207 20.5446 1.37207 20.4586V10.3575C1.37207 10.2715 1.40624 10.189 1.46706 10.1282C1.52789 10.0674 1.61038 10.0332 1.69639 10.0332H8.35834C8.44436 10.0332 8.52685 10.0674 8.58767 10.1282C8.64849 10.189 8.68266 10.2715 8.68266 10.3575C8.68266 10.4435 8.64849 10.526 8.58767 10.5869C8.52685 10.6477 8.44436 10.6819 8.35834 10.6819H2.02072V20.4586C2.02072 20.5446 1.98655 20.6271 1.92573 20.6879C1.8649 20.7488 1.78241 20.7829 1.69639 20.7829Z" fill="black"/>
<path d="M3.4808 11.9279H2.79161C2.70559 11.9279 2.6231 11.8938 2.56228 11.833C2.50145 11.7721 2.46729 11.6896 2.46729 11.6036C2.46729 11.5176 2.50145 11.4351 2.56228 11.3743C2.6231 11.3135 2.70559 11.2793 2.79161 11.2793H3.4808C3.56681 11.2793 3.64931 11.3135 3.71013 11.3743C3.77095 11.4351 3.80512 11.5176 3.80512 11.6036C3.80512 11.6896 3.77095 11.7721 3.71013 11.833C3.64931 11.8938 3.56681 11.9279 3.4808 11.9279Z" fill="black"/>
<path d="M5.37175 11.9279H4.68223C4.59622 11.9279 4.51373 11.8938 4.4529 11.833C4.39208 11.7721 4.35791 11.6896 4.35791 11.6036C4.35791 11.5176 4.39208 11.4351 4.4529 11.3743C4.51373 11.3135 4.59622 11.2793 4.68223 11.2793H5.37175C5.45777 11.2793 5.54026 11.3135 5.60108 11.3743C5.6619 11.4351 5.69607 11.5176 5.69607 11.6036C5.69607 11.6896 5.6619 11.7721 5.60108 11.833C5.54026 11.8938 5.45777 11.9279 5.37175 11.9279Z" fill="black"/>
<path d="M7.26156 11.9279H6.57237C6.48635 11.9279 6.40386 11.8938 6.34304 11.833C6.28222 11.7721 6.24805 11.6896 6.24805 11.6036C6.24805 11.5176 6.28222 11.4351 6.34304 11.3743C6.40386 11.3135 6.48635 11.2793 6.57237 11.2793H7.26156C7.34758 11.2793 7.43007 11.3135 7.49089 11.3743C7.55171 11.4351 7.58588 11.5176 7.58588 11.6036C7.58588 11.6896 7.55171 11.7721 7.49089 11.833C7.43007 11.8938 7.34758 11.9279 7.26156 11.9279Z" fill="black"/>
<path d="M3.4808 13.4499H2.79161C2.70559 13.4499 2.6231 13.4157 2.56228 13.3549C2.50145 13.2941 2.46729 13.2116 2.46729 13.1256C2.46729 13.0396 2.50145 12.9571 2.56228 12.8963C2.6231 12.8354 2.70559 12.8013 2.79161 12.8013H3.4808C3.56681 12.8013 3.64931 12.8354 3.71013 12.8963C3.77095 12.9571 3.80512 13.0396 3.80512 13.1256C3.80512 13.2116 3.77095 13.2941 3.71013 13.3549C3.64931 13.4157 3.56681 13.4499 3.4808 13.4499Z" fill="black"/>
<path d="M5.37175 13.4499H4.68223C4.59622 13.4499 4.51373 13.4157 4.4529 13.3549C4.39208 13.2941 4.35791 13.2116 4.35791 13.1256C4.35791 13.0396 4.39208 12.9571 4.4529 12.8963C4.51373 12.8354 4.59622 12.8013 4.68223 12.8013H5.37175C5.45777 12.8013 5.54026 12.8354 5.60108 12.8963C5.6619 12.9571 5.69607 13.0396 5.69607 13.1256C5.69607 13.2116 5.6619 13.2941 5.60108 13.3549C5.54026 13.4157 5.45777 13.4499 5.37175 13.4499Z" fill="black"/>
<path d="M7.26156 13.4499H6.57237C6.48635 13.4499 6.40386 13.4157 6.34304 13.3549C6.28222 13.2941 6.24805 13.2116 6.24805 13.1256C6.24805 13.0396 6.28222 12.9571 6.34304 12.8963C6.40386 12.8354 6.48635 12.8013 6.57237 12.8013H7.26156C7.34758 12.8013 7.43007 12.8354 7.49089 12.8963C7.55171 12.9571 7.58588 13.0396 7.58588 13.1256C7.58588 13.2116 7.55171 13.2941 7.49089 13.3549C7.43007 13.4157 7.34758 13.4499 7.26156 13.4499Z" fill="black"/>
<path d="M3.4808 14.9719H2.79161C2.70559 14.9719 2.6231 14.9377 2.56228 14.8769C2.50145 14.8161 2.46729 14.7336 2.46729 14.6476C2.46729 14.5616 2.50145 14.4791 2.56228 14.4182C2.6231 14.3574 2.70559 14.3232 2.79161 14.3232H3.4808C3.56681 14.3232 3.64931 14.3574 3.71013 14.4182C3.77095 14.4791 3.80512 14.5616 3.80512 14.6476C3.80512 14.7336 3.77095 14.8161 3.71013 14.8769C3.64931 14.9377 3.56681 14.9719 3.4808 14.9719Z" fill="black"/>
<path d="M5.37175 14.9719H4.68223C4.59622 14.9719 4.51373 14.9377 4.4529 14.8769C4.39208 14.8161 4.35791 14.7336 4.35791 14.6476C4.35791 14.5616 4.39208 14.4791 4.4529 14.4182C4.51373 14.3574 4.59622 14.3232 4.68223 14.3232H5.37175C5.45777 14.3232 5.54026 14.3574 5.60108 14.4182C5.6619 14.4791 5.69607 14.5616 5.69607 14.6476C5.69607 14.7336 5.6619 14.8161 5.60108 14.8769C5.54026 14.9377 5.45777 14.9719 5.37175 14.9719Z" fill="black"/>
<path d="M7.26156 14.9719H6.57237C6.48635 14.9719 6.40386 14.9377 6.34304 14.8769C6.28222 14.8161 6.24805 14.7336 6.24805 14.6476C6.24805 14.5616 6.28222 14.4791 6.34304 14.4182C6.40386 14.3574 6.48635 14.3232 6.57237 14.3232H7.26156C7.34758 14.3232 7.43007 14.3574 7.49089 14.4182C7.55171 14.4791 7.58588 14.5616 7.58588 14.6476C7.58588 14.7336 7.55171 14.8161 7.49089 14.8769C7.43007 14.9377 7.34758 14.9719 7.26156 14.9719Z" fill="black"/>
<path d="M3.4808 16.4939H2.79161C2.70559 16.4939 2.6231 16.4597 2.56228 16.3989C2.50145 16.338 2.46729 16.2556 2.46729 16.1695C2.46729 16.0835 2.50145 16.001 2.56228 15.9402C2.6231 15.8794 2.70559 15.8452 2.79161 15.8452H3.4808C3.56681 15.8452 3.64931 15.8794 3.71013 15.9402C3.77095 16.001 3.80512 16.0835 3.80512 16.1695C3.80512 16.2556 3.77095 16.338 3.71013 16.3989C3.64931 16.4597 3.56681 16.4939 3.4808 16.4939Z" fill="black"/>
<path d="M5.37175 16.4939H4.68223C4.59622 16.4939 4.51373 16.4597 4.4529 16.3989C4.39208 16.338 4.35791 16.2556 4.35791 16.1695C4.35791 16.0835 4.39208 16.001 4.4529 15.9402C4.51373 15.8794 4.59622 15.8452 4.68223 15.8452H5.37175C5.45777 15.8452 5.54026 15.8794 5.60108 15.9402C5.6619 16.001 5.69607 16.0835 5.69607 16.1695C5.69607 16.2556 5.6619 16.338 5.60108 16.3989C5.54026 16.4597 5.45777 16.4939 5.37175 16.4939Z" fill="black"/>
<path d="M7.26156 16.4939H6.57237C6.48635 16.4939 6.40386 16.4597 6.34304 16.3989C6.28222 16.338 6.24805 16.2556 6.24805 16.1695C6.24805 16.0835 6.28222 16.001 6.34304 15.9402C6.40386 15.8794 6.48635 15.8452 6.57237 15.8452H7.26156C7.34758 15.8452 7.43007 15.8794 7.49089 15.9402C7.55171 16.001 7.58588 16.0835 7.58588 16.1695C7.58588 16.2556 7.55171 16.338 7.49089 16.3989C7.43007 16.4597 7.34758 16.4939 7.26156 16.4939Z" fill="black"/>
<path d="M3.4808 18.0163H2.79161C2.70559 18.0163 2.6231 17.9822 2.56228 17.9213C2.50145 17.8605 2.46729 17.778 2.46729 17.692C2.46729 17.606 2.50145 17.5235 2.56228 17.4627C2.6231 17.4018 2.70559 17.3677 2.79161 17.3677H3.4808C3.56681 17.3677 3.64931 17.4018 3.71013 17.4627C3.77095 17.5235 3.80512 17.606 3.80512 17.692C3.80512 17.778 3.77095 17.8605 3.71013 17.9213C3.64931 17.9822 3.56681 18.0163 3.4808 18.0163Z" fill="black"/>
<path d="M5.37175 18.0163H4.68223C4.59622 18.0163 4.51373 17.9822 4.4529 17.9213C4.39208 17.8605 4.35791 17.778 4.35791 17.692C4.35791 17.606 4.39208 17.5235 4.4529 17.4627C4.51373 17.4018 4.59622 17.3677 4.68223 17.3677H5.37175C5.45777 17.3677 5.54026 17.4018 5.60108 17.4627C5.6619 17.5235 5.69607 17.606 5.69607 17.692C5.69607 17.778 5.6619 17.8605 5.60108 17.9213C5.54026 17.9822 5.45777 18.0163 5.37175 18.0163Z" fill="black"/>
<path d="M7.26156 18.0163H6.57237C6.48635 18.0163 6.40386 17.9822 6.34304 17.9213C6.28222 17.8605 6.24805 17.778 6.24805 17.692C6.24805 17.606 6.28222 17.5235 6.34304 17.4627C6.40386 17.4018 6.48635 17.3677 6.57237 17.3677H7.26156C7.34758 17.3677 7.43007 17.4018 7.49089 17.4627C7.55171 17.5235 7.58588 17.606 7.58588 17.692C7.58588 17.778 7.55171 17.8605 7.49089 17.9213C7.43007 17.9822 7.34758 18.0163 7.26156 18.0163Z" fill="black"/>
<path d="M3.4808 19.5378H2.79161C2.70559 19.5378 2.6231 19.5036 2.56228 19.4428C2.50145 19.382 2.46729 19.2995 2.46729 19.2135C2.46729 19.1275 2.50145 19.045 2.56228 18.9842C2.6231 18.9233 2.70559 18.8892 2.79161 18.8892H3.4808C3.56681 18.8892 3.64931 18.9233 3.71013 18.9842C3.77095 19.045 3.80512 19.1275 3.80512 19.2135C3.80512 19.2995 3.77095 19.382 3.71013 19.4428C3.64931 19.5036 3.56681 19.5378 3.4808 19.5378Z" fill="black"/>
<path d="M5.37175 19.5378H4.68223C4.59622 19.5378 4.51373 19.5036 4.4529 19.4428C4.39208 19.382 4.35791 19.2995 4.35791 19.2135C4.35791 19.1275 4.39208 19.045 4.4529 18.9842C4.51373 18.9233 4.59622 18.8892 4.68223 18.8892H5.37175C5.45777 18.8892 5.54026 18.9233 5.60108 18.9842C5.6619 19.045 5.69607 19.1275 5.69607 19.2135C5.69607 19.2995 5.6619 19.382 5.60108 19.4428C5.54026 19.5036 5.45777 19.5378 5.37175 19.5378Z" fill="black"/>
<path d="M7.26156 19.5378H6.57237C6.48635 19.5378 6.40386 19.5036 6.34304 19.4428C6.28222 19.382 6.24805 19.2995 6.24805 19.2135C6.24805 19.1275 6.28222 19.045 6.34304 18.9842C6.40386 18.9233 6.48635 18.8892 6.57237 18.8892H7.26156C7.34758 18.8892 7.43007 18.9233 7.49089 18.9842C7.55171 19.045 7.58588 19.1275 7.58588 19.2135C7.58588 19.2995 7.55171 19.382 7.49089 19.4428C7.43007 19.5036 7.34758 19.5378 7.26156 19.5378Z" fill="black"/>
<path d="M10.9942 4.32998C10.9082 4.32998 10.8257 4.29581 10.7649 4.23499C10.7041 4.17417 10.6699 4.09168 10.6699 4.00566V3.39366C10.6699 3.30764 10.7041 3.22515 10.7649 3.16433C10.8257 3.10351 10.9082 3.06934 10.9942 3.06934C11.0803 3.06934 11.1627 3.10351 11.2236 3.16433C11.2844 3.22515 11.3186 3.30764 11.3186 3.39366V4.00566C11.3186 4.09168 11.2844 4.17417 11.2236 4.23499C11.1627 4.29581 11.0803 4.32998 10.9942 4.32998Z" fill="black"/>
<path d="M9.51573 4.70743C9.42971 4.70743 9.34722 4.67326 9.2864 4.61243C9.22558 4.55161 9.19141 4.46912 9.19141 4.3831V3.7711C9.19141 3.68509 9.22558 3.60259 9.2864 3.54177C9.34722 3.48095 9.42971 3.44678 9.51573 3.44678C9.60174 3.44678 9.68424 3.48095 9.74506 3.54177C9.80588 3.60259 9.84005 3.68509 9.84005 3.7711V4.3831C9.84005 4.46912 9.80588 4.55161 9.74506 4.61243C9.68424 4.67326 9.60174 4.70743 9.51573 4.70743Z" fill="black"/>
<path d="M10.9942 6.76992C10.9082 6.76992 10.8257 6.73575 10.7649 6.67493C10.7041 6.6141 10.6699 6.53161 10.6699 6.4456V5.8336C10.6699 5.74758 10.7041 5.66509 10.7649 5.60427C10.8257 5.54345 10.9082 5.50928 10.9942 5.50928C11.0803 5.50928 11.1627 5.54345 11.2236 5.60427C11.2844 5.66509 11.3186 5.74758 11.3186 5.8336V6.4456C11.3186 6.53161 11.2844 6.6141 11.2236 6.67493C11.1627 6.73575 11.0803 6.76992 10.9942 6.76992Z" fill="black"/>
<path d="M9.51573 7.14737C9.42971 7.14737 9.34722 7.1132 9.2864 7.05237C9.22558 6.99155 9.19141 6.90906 9.19141 6.82304V6.21104C9.19141 6.12503 9.22558 6.04253 9.2864 5.98171C9.34722 5.92089 9.42971 5.88672 9.51573 5.88672C9.60174 5.88672 9.68424 5.92089 9.74506 5.98171C9.80588 6.04253 9.84005 6.12503 9.84005 6.21104V6.82304C9.84005 6.90906 9.80588 6.99155 9.74506 7.05237C9.68424 7.1132 9.60174 7.14737 9.51573 7.14737Z" fill="black"/>
<path d="M10.9942 9.21068C10.9082 9.21068 10.8257 9.17651 10.7649 9.11568C10.7041 9.05486 10.6699 8.97237 10.6699 8.88635V8.27305C10.6699 8.18704 10.7041 8.10455 10.7649 8.04372C10.8257 7.9829 10.9082 7.94873 10.9942 7.94873C11.0803 7.94873 11.1627 7.9829 11.2236 8.04372C11.2844 8.10455 11.3186 8.18704 11.3186 8.27305V8.88635C11.3186 8.97237 11.2844 9.05486 11.2236 9.11568C11.1627 9.17651 11.0803 9.21068 10.9942 9.21068Z" fill="black"/>
<path d="M9.51573 9.58682C9.42971 9.58682 9.34722 9.55265 9.2864 9.49183C9.22558 9.43101 9.19141 9.34851 9.19141 9.2625V8.6505C9.19141 8.56448 9.22558 8.48199 9.2864 8.42116C9.34722 8.36034 9.42971 8.32617 9.51573 8.32617C9.60174 8.32617 9.68424 8.36034 9.74506 8.42116C9.80588 8.48199 9.84005 8.56448 9.84005 8.6505V9.2625C9.84005 9.34851 9.80588 9.43101 9.74506 9.49183C9.68424 9.55265 9.60174 9.58682 9.51573 9.58682Z" fill="black"/>
<path d="M10.9942 11.6488C10.9082 11.6488 10.8257 11.6147 10.7649 11.5538C10.7041 11.493 10.6699 11.4105 10.6699 11.3245V10.7125C10.6699 10.6265 10.7041 10.544 10.7649 10.4832C10.8257 10.4224 10.9082 10.3882 10.9942 10.3882C11.0803 10.3882 11.1627 10.4224 11.2236 10.4832C11.2844 10.544 11.3186 10.6265 11.3186 10.7125V11.3245C11.3186 11.4105 11.2844 11.493 11.2236 11.5538C11.1627 11.6147 11.0803 11.6488 10.9942 11.6488Z" fill="black"/>
<path d="M9.51573 12.0258C9.42971 12.0258 9.34722 11.9916 9.2864 11.9308C9.22558 11.87 9.19141 11.7875 9.19141 11.7015V11.0895C9.19141 11.0034 9.22558 10.9209 9.2864 10.8601C9.34722 10.7993 9.42971 10.7651 9.51573 10.7651C9.60174 10.7651 9.68424 10.7993 9.74506 10.8601C9.80588 10.9209 9.84005 11.0034 9.84005 11.0895V11.7015C9.84005 11.7875 9.80588 11.87 9.74506 11.9308C9.68424 11.9916 9.60174 12.0258 9.51573 12.0258Z" fill="black"/>
<path d="M10.9942 14.0883C10.9082 14.0883 10.8257 14.0541 10.7649 13.9933C10.7041 13.9325 10.6699 13.85 10.6699 13.764V13.152C10.6699 13.0659 10.7041 12.9835 10.7649 12.9226C10.8257 12.8618 10.9082 12.8276 10.9942 12.8276C11.0803 12.8276 11.1627 12.8618 11.2236 12.9226C11.2844 12.9835 11.3186 13.0659 11.3186 13.152V13.764C11.3186 13.85 11.2844 13.9325 11.2236 13.9933C11.1627 14.0541 11.0803 14.0883 10.9942 14.0883Z" fill="black"/>
<path d="M9.51573 14.4651C9.42971 14.4651 9.34722 14.4309 9.2864 14.3701C9.22558 14.3093 9.19141 14.2268 9.19141 14.1408V13.5294C9.19141 13.4434 9.22558 13.3609 9.2864 13.3001C9.34722 13.2392 9.42971 13.2051 9.51573 13.2051C9.60174 13.2051 9.68424 13.2392 9.74506 13.3001C9.80588 13.3609 9.84005 13.4434 9.84005 13.5294V14.1408C9.84005 14.2268 9.80588 14.3093 9.74506 14.3701C9.68424 14.4309 9.60174 14.4651 9.51573 14.4651Z" fill="black"/>
<path d="M10.9942 16.5277C10.9082 16.5277 10.8257 16.4936 10.7649 16.4327C10.7041 16.3719 10.6699 16.2894 10.6699 16.2034V15.5914C10.6699 15.5054 10.7041 15.4229 10.7649 15.3621C10.8257 15.3013 10.9082 15.2671 10.9942 15.2671C11.0803 15.2671 11.1627 15.3013 11.2236 15.3621C11.2844 15.4229 11.3186 15.5054 11.3186 15.5914V16.2034C11.3186 16.2894 11.2844 16.3719 11.2236 16.4327C11.1627 16.4936 11.0803 16.5277 10.9942 16.5277Z" fill="black"/>
<path d="M9.51573 16.9052C9.42971 16.9052 9.34722 16.871 9.2864 16.8102C9.22558 16.7494 9.19141 16.6669 9.19141 16.5809V15.9689C9.19141 15.8828 9.22558 15.8003 9.2864 15.7395C9.34722 15.6787 9.42971 15.6445 9.51573 15.6445C9.60174 15.6445 9.68424 15.6787 9.74506 15.7395C9.80588 15.8003 9.84005 15.8828 9.84005 15.9689V16.5809C9.84005 16.6669 9.80588 16.7494 9.74506 16.8102C9.68424 16.871 9.60174 16.9052 9.51573 16.9052Z" fill="black"/>
<path d="M10.9942 18.967C10.9082 18.967 10.8257 18.9329 10.7649 18.872C10.7041 18.8112 10.6699 18.7287 10.6699 18.6427V18.0323C10.6699 17.9463 10.7041 17.8638 10.7649 17.803C10.8257 17.7422 10.9082 17.708 10.9942 17.708C11.0803 17.708 11.1627 17.7422 11.2236 17.803C11.2844 17.8638 11.3186 17.9463 11.3186 18.0323V18.6443C11.3181 18.7301 11.2838 18.8121 11.223 18.8726C11.1622 18.9331 11.08 18.967 10.9942 18.967Z" fill="black"/>
<path d="M9.51573 19.3445C9.42971 19.3445 9.34722 19.3103 9.2864 19.2495C9.22558 19.1887 9.19141 19.1062 9.19141 19.0201V18.4078C9.19141 18.3218 9.22558 18.2393 9.2864 18.1785C9.34722 18.1177 9.42971 18.0835 9.51573 18.0835C9.60174 18.0835 9.68424 18.1177 9.74506 18.1785C9.80588 18.2393 9.84005 18.3218 9.84005 18.4078V19.0198C9.84009 19.0624 9.83174 19.1046 9.81546 19.144C9.79918 19.1834 9.77529 19.2192 9.74517 19.2494C9.71505 19.2795 9.67929 19.3034 9.63992 19.3197C9.60055 19.3361 9.55835 19.3445 9.51573 19.3445Z" fill="black"/>
<path d="M13.2325 4.02172C13.1465 4.02172 13.064 3.98755 13.0032 3.92673C12.9424 3.86591 12.9082 3.78341 12.9082 3.6974V3.08604C12.9082 3.00003 12.9424 2.91753 13.0032 2.85671C13.064 2.79589 13.1465 2.76172 13.2325 2.76172C13.3185 2.76172 13.401 2.79589 13.4619 2.85671C13.5227 2.91753 13.5569 3.00003 13.5569 3.08604V3.6974C13.5569 3.78341 13.5227 3.86591 13.4619 3.92673C13.401 3.98755 13.3185 4.02172 13.2325 4.02172Z" fill="black"/>
<path d="M14.3277 4.43513C14.2417 4.43513 14.1592 4.40096 14.0984 4.34014C14.0376 4.27931 14.0034 4.19682 14.0034 4.1108V3.49913C14.0034 3.41311 14.0376 3.33062 14.0984 3.2698C14.1592 3.20897 14.2417 3.1748 14.3277 3.1748C14.4138 3.1748 14.4963 3.20897 14.5571 3.2698C14.6179 3.33062 14.6521 3.41311 14.6521 3.49913V4.11113C14.652 4.19709 14.6178 4.2795 14.557 4.34025C14.4962 4.401 14.4137 4.43513 14.3277 4.43513Z" fill="black"/>
<path d="M15.422 4.84822C15.336 4.84822 15.2535 4.81405 15.1927 4.75322C15.1318 4.6924 15.0977 4.60991 15.0977 4.52389V3.91221C15.0977 3.8262 15.1318 3.74371 15.1927 3.68288C15.2535 3.62206 15.336 3.58789 15.422 3.58789C15.508 3.58789 15.5905 3.62206 15.6513 3.68288C15.7121 3.74371 15.7463 3.8262 15.7463 3.91221V4.52421C15.7462 4.61017 15.712 4.69258 15.6512 4.75334C15.5904 4.81409 15.5079 4.84822 15.422 4.84822Z" fill="black"/>
<path d="M13.2325 6.45401C13.1465 6.45401 13.064 6.41984 13.0032 6.35902C12.9424 6.2982 12.9082 6.2157 12.9082 6.12969V5.51671C12.9082 5.43069 12.9424 5.3482 13.0032 5.28738C13.064 5.22655 13.1465 5.19238 13.2325 5.19238C13.3185 5.19238 13.401 5.22655 13.4619 5.28738C13.5227 5.3482 13.5569 5.43069 13.5569 5.51671V6.12969C13.5569 6.2157 13.5227 6.2982 13.4619 6.35902C13.401 6.41984 13.3185 6.45401 13.2325 6.45401Z" fill="black"/>
<path d="M14.3277 6.86628C14.2417 6.86628 14.1592 6.83211 14.0984 6.77129C14.0376 6.71047 14.0034 6.62797 14.0034 6.54196V5.93028C14.0034 5.84427 14.0376 5.76177 14.0984 5.70095C14.1592 5.64013 14.2417 5.60596 14.3277 5.60596C14.4138 5.60596 14.4963 5.64013 14.5571 5.70095C14.6179 5.76177 14.6521 5.84427 14.6521 5.93028V6.54196C14.6521 6.62797 14.6179 6.71047 14.5571 6.77129C14.4963 6.83211 14.4138 6.86628 14.3277 6.86628Z" fill="black"/>
<path d="M15.422 7.27888C15.336 7.27888 15.2535 7.24471 15.1927 7.18389C15.1318 7.12306 15.0977 7.04057 15.0977 6.95455V6.34288C15.0977 6.25686 15.1318 6.17437 15.1927 6.11355C15.2535 6.05272 15.336 6.01855 15.422 6.01855C15.508 6.01855 15.5905 6.05272 15.6513 6.11355C15.7121 6.17437 15.7463 6.25686 15.7463 6.34288V6.95488C15.7462 7.04084 15.712 7.12325 15.6512 7.184C15.5904 7.24475 15.5079 7.27888 15.422 7.27888Z" fill="black"/>
<path d="M13.2325 8.88385C13.1465 8.88385 13.064 8.84968 13.0032 8.78886C12.9424 8.72804 12.9082 8.64554 12.9082 8.55953V7.94591C12.9082 7.85989 12.9424 7.7774 13.0032 7.71657C13.064 7.65575 13.1465 7.62158 13.2325 7.62158C13.3185 7.62158 13.401 7.65575 13.4619 7.71657C13.5227 7.7774 13.5569 7.85989 13.5569 7.94591V8.55791C13.5571 8.60063 13.5488 8.64298 13.5326 8.68252C13.5164 8.72205 13.4926 8.758 13.4624 8.78829C13.4323 8.81858 13.3965 8.84261 13.357 8.85901C13.3176 8.87541 13.2753 8.88385 13.2325 8.88385Z" fill="black"/>
<path d="M14.3277 9.29727C14.2417 9.29727 14.1592 9.2631 14.0984 9.20228C14.0376 9.14145 14.0034 9.05896 14.0034 8.97295V8.36095C14.0034 8.27493 14.0376 8.19244 14.0984 8.13161C14.1592 8.07079 14.2417 8.03662 14.3277 8.03662C14.4138 8.03662 14.4963 8.07079 14.5571 8.13161C14.6179 8.19244 14.6521 8.27493 14.6521 8.36095V8.97295C14.6521 9.05896 14.6179 9.14145 14.5571 9.20228C14.4963 9.2631 14.4138 9.29727 14.3277 9.29727Z" fill="black"/>
<path d="M15.422 9.70954C15.336 9.70954 15.2535 9.67537 15.1927 9.61455C15.1318 9.55373 15.0977 9.47124 15.0977 9.38522V8.77354C15.0977 8.68753 15.1318 8.60503 15.1927 8.54421C15.2535 8.48339 15.336 8.44922 15.422 8.44922C15.508 8.44922 15.5905 8.48339 15.6513 8.54421C15.7121 8.60503 15.7463 8.68753 15.7463 8.77354V9.38554C15.7462 9.4715 15.712 9.55391 15.6512 9.61467C15.5904 9.67542 15.5079 9.70954 15.422 9.70954Z" fill="black"/>
<path d="M13.2325 11.3148C13.1465 11.3148 13.064 11.2807 13.0032 11.2199C12.9424 11.159 12.9082 11.0765 12.9082 10.9905V10.3785C12.9082 10.2925 12.9424 10.21 13.0032 10.1492C13.064 10.0884 13.1465 10.0542 13.2325 10.0542C13.3185 10.0542 13.401 10.0884 13.4619 10.1492C13.5227 10.21 13.5569 10.2925 13.5569 10.3785V10.9905C13.5569 11.0765 13.5227 11.159 13.4619 11.2199C13.401 11.2807 13.3185 11.3148 13.2325 11.3148Z" fill="black"/>
<path d="M14.3277 11.7279C14.2417 11.7279 14.1592 11.6938 14.0984 11.6329C14.0376 11.5721 14.0034 11.4896 14.0034 11.4036V10.7916C14.0034 10.7056 14.0376 10.6231 14.0984 10.5623C14.1592 10.5015 14.2417 10.4673 14.3277 10.4673C14.4138 10.4673 14.4963 10.5015 14.5571 10.5623C14.6179 10.6231 14.6521 10.7056 14.6521 10.7916V11.4036C14.6521 11.4896 14.6179 11.5721 14.5571 11.6329C14.4963 11.6938 14.4138 11.7279 14.3277 11.7279Z" fill="black"/>
<path d="M15.422 12.141C15.336 12.141 15.2535 12.1068 15.1927 12.046C15.1318 11.9852 15.0977 11.9027 15.0977 11.8167V11.2047C15.0977 11.1187 15.1318 11.0362 15.1927 10.9754C15.2535 10.9145 15.336 10.8804 15.422 10.8804C15.508 10.8804 15.5905 10.9145 15.6513 10.9754C15.7121 11.0362 15.7463 11.1187 15.7463 11.2047V11.8167C15.7463 11.9027 15.7121 11.9852 15.6513 12.046C15.5905 12.1068 15.508 12.141 15.422 12.141Z" fill="black"/>
<path d="M13.2325 13.7454C13.1465 13.7454 13.064 13.7112 13.0032 13.6504C12.9424 13.5895 12.9082 13.507 12.9082 13.421V12.8107C12.9082 12.7246 12.9424 12.6421 13.0032 12.5813C13.064 12.5205 13.1465 12.4863 13.2325 12.4863C13.3185 12.4863 13.401 12.5205 13.4619 12.5813C13.5227 12.6421 13.5569 12.7246 13.5569 12.8107V13.4227C13.5564 13.5084 13.5221 13.5905 13.4613 13.6509C13.4005 13.7114 13.3183 13.7454 13.2325 13.7454Z" fill="black"/>
<path d="M14.3277 14.1586C14.2417 14.1586 14.1592 14.1244 14.0984 14.0636C14.0376 14.0028 14.0034 13.9203 14.0034 13.8343V13.2223C14.0034 13.1363 14.0376 13.0538 14.0984 12.9929C14.1592 12.9321 14.2417 12.8979 14.3277 12.8979C14.4138 12.8979 14.4963 12.9321 14.5571 12.9929C14.6179 13.0538 14.6521 13.1363 14.6521 13.2223V13.8343C14.6521 13.9203 14.6179 14.0028 14.5571 14.0636C14.4963 14.1244 14.4138 14.1586 14.3277 14.1586Z" fill="black"/>
<path d="M15.422 14.5717C15.336 14.5717 15.2535 14.5375 15.1927 14.4767C15.1318 14.4159 15.0977 14.3334 15.0977 14.2474V13.6354C15.0977 13.5493 15.1318 13.4668 15.1927 13.406C15.2535 13.3452 15.336 13.311 15.422 13.311C15.508 13.311 15.5905 13.3452 15.6513 13.406C15.7121 13.4668 15.7463 13.5493 15.7463 13.6354V14.2474C15.7463 14.3334 15.7121 14.4159 15.6513 14.4767C15.5905 14.5375 15.508 14.5717 15.422 14.5717Z" fill="black"/>
<path d="M13.2325 16.1762C13.1465 16.1762 13.064 16.142 13.0032 16.0812C12.9424 16.0204 12.9082 15.9379 12.9082 15.8519V15.2399C12.9082 15.1538 12.9424 15.0713 13.0032 15.0105C13.064 14.9497 13.1465 14.9155 13.2325 14.9155C13.3185 14.9155 13.401 14.9497 13.4619 15.0105C13.5227 15.0713 13.5569 15.1538 13.5569 15.2399V15.8519C13.5569 15.9379 13.5227 16.0204 13.4619 16.0812C13.401 16.142 13.3185 16.1762 13.2325 16.1762Z" fill="black"/>
<path d="M14.3277 16.5898C14.2417 16.5898 14.1592 16.5556 14.0984 16.4948C14.0376 16.4339 14.0034 16.3514 14.0034 16.2654V15.6534C14.0034 15.5674 14.0376 15.4849 14.0984 15.4241C14.1592 15.3633 14.2417 15.3291 14.3277 15.3291C14.4138 15.3291 14.4963 15.3633 14.5571 15.4241C14.6179 15.4849 14.6521 15.5674 14.6521 15.6534V16.2654C14.6521 16.3514 14.6179 16.4339 14.5571 16.4948C14.4963 16.5556 14.4138 16.5898 14.3277 16.5898Z" fill="black"/>
<path d="M15.422 17.0028C15.336 17.0028 15.2535 16.9687 15.1927 16.9078C15.1318 16.847 15.0977 16.7645 15.0977 16.6785V16.0665C15.0977 15.9805 15.1318 15.898 15.1927 15.8372C15.2535 15.7764 15.336 15.7422 15.422 15.7422C15.508 15.7422 15.5905 15.7764 15.6513 15.8372C15.7121 15.898 15.7463 15.9805 15.7463 16.0665V16.6785C15.7463 16.7645 15.7121 16.847 15.6513 16.9078C15.5905 16.9687 15.508 17.0028 15.422 17.0028Z" fill="black"/>
<path d="M13.2325 18.6068C13.1465 18.6068 13.064 18.5727 13.0032 18.5118C12.9424 18.451 12.9082 18.3685 12.9082 18.2825V17.6705C12.9082 17.5845 12.9424 17.502 13.0032 17.4412C13.064 17.3804 13.1465 17.3462 13.2325 17.3462C13.3185 17.3462 13.401 17.3804 13.4619 17.4412C13.5227 17.502 13.5569 17.5845 13.5569 17.6705V18.2825C13.5569 18.3685 13.5227 18.451 13.4619 18.5118C13.401 18.5727 13.3185 18.6068 13.2325 18.6068Z" fill="black"/>
<path d="M14.3277 19.0204C14.2417 19.0204 14.1592 18.9862 14.0984 18.9254C14.0376 18.8646 14.0034 18.7821 14.0034 18.6961V18.0841C14.0034 17.9981 14.0376 17.9156 14.0984 17.8548C14.1592 17.7939 14.2417 17.7598 14.3277 17.7598C14.4138 17.7598 14.4963 17.7939 14.5571 17.8548C14.6179 17.9156 14.6521 17.9981 14.6521 18.0841V18.6961C14.6521 18.7821 14.6179 18.8646 14.5571 18.9254C14.4963 18.9862 14.4138 19.0204 14.3277 19.0204Z" fill="black"/>
<path d="M15.422 19.4335C15.336 19.4335 15.2535 19.3993 15.1927 19.3385C15.1318 19.2777 15.0977 19.1952 15.0977 19.1092V18.4972C15.0977 18.4112 15.1318 18.3287 15.1927 18.2678C15.2535 18.207 15.336 18.1729 15.422 18.1729C15.508 18.1729 15.5905 18.207 15.6513 18.2678C15.7121 18.3287 15.7463 18.4112 15.7463 18.4972V19.1092C15.7463 19.1952 15.7121 19.2777 15.6513 19.3385C15.5905 19.3993 15.508 19.4335 15.422 19.4335Z" fill="black"/>
<path d="M19.5245 10.9136C19.4385 10.9136 19.356 10.8794 19.2952 10.8186C19.2344 10.7577 19.2002 10.6752 19.2002 10.5892V10.2613C19.2002 10.1753 19.2344 10.0928 19.2952 10.032C19.356 9.97118 19.4385 9.93701 19.5245 9.93701C19.6105 9.93701 19.693 9.97118 19.7539 10.032C19.8147 10.0928 19.8489 10.1753 19.8489 10.2613V10.5892C19.8489 10.6752 19.8147 10.7577 19.7539 10.8186C19.693 10.8794 19.6105 10.9136 19.5245 10.9136Z" fill="black"/>
<path d="M20.6173 11.6006C20.5313 11.6006 20.4488 11.5664 20.388 11.5056C20.3271 11.4447 20.293 11.3623 20.293 11.2762V10.9483C20.293 10.8623 20.3271 10.7798 20.388 10.719C20.4488 10.6582 20.5313 10.624 20.6173 10.624C20.7033 10.624 20.7858 10.6582 20.8466 10.719C20.9075 10.7798 20.9416 10.8623 20.9416 10.9483V11.2762C20.9416 11.3623 20.9075 11.4447 20.8466 11.5056C20.7858 11.5664 20.7033 11.6006 20.6173 11.6006Z" fill="black"/>
<path d="M19.5245 12.5153C19.4385 12.5153 19.356 12.4811 19.2952 12.4203C19.2344 12.3595 19.2002 12.277 19.2002 12.191V11.8634C19.2002 11.7774 19.2344 11.6949 19.2952 11.6341C19.356 11.5732 19.4385 11.5391 19.5245 11.5391C19.6105 11.5391 19.693 11.5732 19.7539 11.6341C19.8147 11.6949 19.8489 11.7774 19.8489 11.8634V12.1913C19.8488 12.2772 19.8146 12.3596 19.7537 12.4204C19.6929 12.4812 19.6105 12.5153 19.5245 12.5153Z" fill="black"/>
<path d="M20.6173 13.202C20.5313 13.202 20.4488 13.1678 20.388 13.107C20.3271 13.0462 20.293 12.9637 20.293 12.8776V12.5514C20.293 12.4654 20.3271 12.3829 20.388 12.322C20.4488 12.2612 20.5313 12.2271 20.6173 12.2271C20.7033 12.2271 20.7858 12.2612 20.8466 12.322C20.9075 12.3829 20.9416 12.4654 20.9416 12.5514V12.8793C20.9412 12.965 20.9068 13.0471 20.8461 13.1076C20.7853 13.168 20.703 13.202 20.6173 13.202Z" fill="black"/>
<path d="M19.5245 14.1167C19.4385 14.1167 19.356 14.0825 19.2952 14.0217C19.2344 13.9609 19.2002 13.8784 19.2002 13.7924V13.4645C19.2002 13.3784 19.2344 13.296 19.2952 13.2351C19.356 13.1743 19.4385 13.1401 19.5245 13.1401C19.6105 13.1401 19.693 13.1743 19.7539 13.2351C19.8147 13.296 19.8489 13.3784 19.8489 13.4645V13.7924C19.8489 13.8784 19.8147 13.9609 19.7539 14.0217C19.693 14.0825 19.6105 14.1167 19.5245 14.1167Z" fill="black"/>
<path d="M20.6173 14.8042C20.5313 14.8042 20.4488 14.77 20.388 14.7092C20.3271 14.6484 20.293 14.5659 20.293 14.4799V14.152C20.293 14.0659 20.3271 13.9835 20.388 13.9226C20.4488 13.8618 20.5313 13.8276 20.6173 13.8276C20.7033 13.8276 20.7858 13.8618 20.8466 13.9226C20.9075 13.9835 20.9416 14.0659 20.9416 14.152V14.4799C20.9416 14.5659 20.9075 14.6484 20.8466 14.7092C20.7858 14.77 20.7033 14.8042 20.6173 14.8042Z" fill="black"/>
<path d="M19.5245 15.7187C19.4385 15.7187 19.356 15.6846 19.2952 15.6237C19.2344 15.5629 19.2002 15.4804 19.2002 15.3944V15.0665C19.2002 14.9805 19.2344 14.898 19.2952 14.8372C19.356 14.7764 19.4385 14.7422 19.5245 14.7422C19.6105 14.7422 19.693 14.7764 19.7539 14.8372C19.8147 14.898 19.8489 14.9805 19.8489 15.0665V15.3944C19.8489 15.4804 19.8147 15.5629 19.7539 15.6237C19.693 15.6846 19.6105 15.7187 19.5245 15.7187Z" fill="black"/>
<path d="M20.6173 16.4053C20.5313 16.4053 20.4488 16.3711 20.388 16.3103C20.3271 16.2494 20.293 16.1669 20.293 16.0809V15.753C20.293 15.667 20.3271 15.5845 20.388 15.5237C20.4488 15.4629 20.5313 15.4287 20.6173 15.4287C20.7033 15.4287 20.7858 15.4629 20.8466 15.5237C20.9075 15.5845 20.9416 15.667 20.9416 15.753V16.0809C20.9416 16.1669 20.9075 16.2494 20.8466 16.3103C20.7858 16.3711 20.7033 16.4053 20.6173 16.4053Z" fill="black"/>
<path d="M19.5245 17.319C19.4385 17.319 19.356 17.2848 19.2952 17.224C19.2344 17.1632 19.2002 17.0807 19.2002 16.9947V16.6681C19.2002 16.5821 19.2344 16.4996 19.2952 16.4387C19.356 16.3779 19.4385 16.3438 19.5245 16.3438C19.6105 16.3438 19.693 16.3779 19.7539 16.4387C19.8147 16.4996 19.8489 16.5821 19.8489 16.6681V16.9947C19.8489 17.0807 19.8147 17.1632 19.7539 17.224C19.693 17.2848 19.6105 17.319 19.5245 17.319Z" fill="black"/>
<path d="M20.6173 18.0073C20.5313 18.0073 20.4488 17.9731 20.388 17.9123C20.3271 17.8515 20.293 17.769 20.293 17.683V17.3551C20.293 17.2691 20.3271 17.1866 20.388 17.1258C20.4488 17.0649 20.5313 17.0308 20.6173 17.0308C20.7033 17.0308 20.7858 17.0649 20.8466 17.1258C20.9075 17.1866 20.9416 17.2691 20.9416 17.3551V17.683C20.9416 17.769 20.9075 17.8515 20.8466 17.9123C20.7858 17.9731 20.7033 18.0073 20.6173 18.0073Z" fill="black"/>
<path d="M19.5245 18.9223C19.4385 18.9223 19.356 18.8882 19.2952 18.8273C19.2344 18.7665 19.2002 18.684 19.2002 18.598V18.2701C19.2002 18.1841 19.2344 18.1016 19.2952 18.0408C19.356 17.98 19.4385 17.9458 19.5245 17.9458C19.6105 17.9458 19.693 17.98 19.7539 18.0408C19.8147 18.1016 19.8489 18.1841 19.8489 18.2701V18.598C19.8489 18.684 19.8147 18.7665 19.7539 18.8273C19.693 18.8882 19.6105 18.9223 19.5245 18.9223Z" fill="black"/>
<path d="M20.6173 19.6089C20.5313 19.6089 20.4488 19.5747 20.388 19.5139C20.3271 19.453 20.293 19.3706 20.293 19.2845V18.9566C20.293 18.8706 20.3271 18.7881 20.388 18.7273C20.4488 18.6665 20.5313 18.6323 20.6173 18.6323C20.7033 18.6323 20.7858 18.6665 20.8466 18.7273C20.9075 18.7881 20.9416 18.8706 20.9416 18.9566V19.2845C20.9416 19.3706 20.9075 19.453 20.8466 19.5139C20.7858 19.5747 20.7033 19.6089 20.6173 19.6089Z" fill="black"/>
<path d="M22.7773 20.778H0.72325C0.637234 20.778 0.554741 20.7439 0.493918 20.683C0.433096 20.6222 0.398926 20.5397 0.398926 20.4537C0.398926 20.3677 0.433096 20.2852 0.493918 20.2244C0.554741 20.1636 0.637234 20.1294 0.72325 20.1294H22.7773C22.8633 20.1294 22.9458 20.1636 23.0066 20.2244C23.0675 20.2852 23.1016 20.3677 23.1016 20.4537C23.1016 20.5397 23.0675 20.6222 23.0066 20.683C22.9458 20.7439 22.8633 20.778 22.7773 20.778Z" fill="black"/>
</svg>
