<svg width="15" height="15" viewBox="0 0 15 15" fill="none" xmlns="http://www.w3.org/2000/svg">
<path fill-rule="evenodd" clip-rule="evenodd" d="M9.44199 0.258723C11.3766 0.777101 12.9935 2.01779 13.9949 3.75232C14.9029 5.32491 15.2095 7.17106 14.8583 8.95052C14.5104 10.713 13.5445 12.2914 12.1385 13.3949C12.0112 13.4948 11.827 13.4726 11.7272 13.3453C11.6272 13.218 11.6495 13.0339 11.7767 12.934C13.7242 11.4055 14.6456 8.97478 14.3524 6.62502C14.3129 6.79345 14.2302 6.94538 14.1102 7.06547L13.9206 7.25505C13.8651 7.3106 13.7903 7.34086 13.7135 7.34086C13.6924 7.34086 13.6711 7.33858 13.65 7.33392C13.5523 7.31224 13.4724 7.24216 13.4382 7.14806L13.0399 6.05285C13.0338 6.03595 13.0248 6.02054 13.0131 6.00692L12.6522 5.58437C12.6238 5.55109 12.5824 5.53201 12.5387 5.53201H12.3988L12.4144 5.55542C12.4919 5.67164 12.4765 5.8263 12.3778 5.92506C11.9913 6.31149 11.5159 6.61573 11.0031 6.80488L10.7824 6.88626C10.6442 6.93736 10.4895 6.87765 10.4213 6.74698L9.66321 5.29483C9.64136 5.25296 9.62993 5.20644 9.62993 5.15924V4.95393L9.22089 4.56349L8.78952 4.41188C8.63688 4.35823 8.55664 4.19104 8.61028 4.03837C8.66389 3.88576 8.83106 3.8054 8.98379 3.85913L9.47466 4.03163C9.51389 4.04543 9.54974 4.0674 9.57983 4.09612L10.1251 4.61669C10.1831 4.67192 10.2158 4.74853 10.2158 4.82857V5.08735L10.8214 6.2473C11.1729 6.11482 11.5031 5.91838 11.7886 5.6729L11.7439 5.60578C11.6569 5.47535 11.6488 5.30842 11.7228 5.1702C11.7968 5.032 11.9401 4.94611 12.0969 4.94611H12.5387C12.754 4.94611 12.9578 5.04 13.0977 5.2038L13.4586 5.62635C13.516 5.69347 13.5604 5.76961 13.5905 5.85264L13.7928 6.40904L13.793 6.40198C13.7966 6.18487 13.8916 5.97741 14.0537 5.83278L14.1779 5.72203C14.0258 5.14509 13.7969 4.58101 13.4876 4.0452C12.3262 2.03362 10.2995 0.826408 8.14631 0.621594L7.30364 1.6786C7.26928 1.72169 7.22346 1.75421 7.17148 1.77243L5.27589 2.437L4.84598 3.47906L5.28295 4.09116C5.52257 3.70442 5.9501 3.4587 6.41697 3.4587H6.58352C6.74527 3.4587 6.87646 3.58989 6.87646 3.75164C6.87646 3.91339 6.74527 4.04458 6.58352 4.04458H6.41697C6.1025 4.04458 5.81984 4.24345 5.71361 4.53944L5.7064 4.55953C5.84636 4.54383 5.9878 4.53873 6.11577 4.53419C6.19724 4.53132 6.27427 4.5286 6.33514 4.5235C6.44231 4.51439 6.98556 4.48729 7.14922 4.83346C7.17822 4.89481 7.20591 4.99304 7.17532 5.11544L7.18097 5.11922C7.27174 5.17972 7.41922 5.27801 7.52647 5.32948C7.55823 5.25202 7.61246 5.20383 7.63077 5.18915C7.70009 5.13361 7.79343 5.09496 7.94305 5.05989C7.99889 5.04677 8.05742 5.05037 8.11136 5.07029C8.17572 5.09405 8.27331 5.12048 8.3767 5.14846L8.37692 5.14852L8.37693 5.14852L8.37694 5.14852C8.68429 5.23177 9.03259 5.32611 9.21737 5.52191C9.42297 5.73984 9.54376 6.05246 9.65033 6.32829L9.65038 6.32842C9.69066 6.43266 9.72872 6.53112 9.7668 6.61251C9.78766 6.65706 9.80824 6.70293 9.82909 6.7494L9.82928 6.74981L9.82942 6.75014L9.83058 6.75273L9.8306 6.75276C9.93785 6.99196 10.0487 7.23927 10.23 7.35777C10.271 7.38459 10.3999 7.40438 10.4853 7.4175L10.4857 7.41756C10.7021 7.45072 10.9714 7.49203 11.0774 7.73783C11.1855 7.98851 11.0108 8.2414 10.9534 8.32457L10.9534 8.32459C10.8221 8.51455 10.6524 8.67264 10.4882 8.82554C10.1095 9.17824 9.95281 9.36305 10.0424 9.652C10.1488 9.99542 10.2493 10.3198 9.85909 10.7444C9.83603 10.7694 9.81456 10.7924 9.7944 10.8138L9.79414 10.8141C9.6786 10.9371 9.64366 10.9743 9.59559 11.1257C9.53231 11.3251 9.43459 11.4352 9.35607 11.5236L9.35598 11.5237L9.35585 11.5238C9.31686 11.5678 9.28605 11.6025 9.25988 11.6473C9.24282 11.6765 9.23386 11.7211 9.22251 11.7777L9.22241 11.7782C9.19956 11.8923 9.16824 12.0486 9.04109 12.2047C8.83865 12.4533 8.39797 12.8454 7.97565 12.8455C7.88888 12.8455 7.80298 12.8289 7.71998 12.7912C7.56151 12.7191 7.36405 12.5401 7.10064 11.7585C7.06794 11.6614 7.01804 11.5515 6.96517 11.4351L6.96517 11.4351L6.96516 11.435L6.96506 11.4348C6.80217 11.076 6.61754 10.6693 6.74999 10.2593C6.75764 10.2355 6.76525 10.2123 6.77272 10.1896C6.85991 9.92388 6.8997 9.80262 6.80832 9.58365C6.79393 9.54917 6.74724 9.49779 6.70209 9.44813L6.70207 9.4481C6.61125 9.34815 6.49821 9.22373 6.45447 9.04371C6.42717 8.93118 6.42778 8.83263 6.42834 8.75341C6.42913 8.62893 6.42553 8.62198 6.38633 8.58528C6.30576 8.50986 6.22619 8.51608 5.97503 8.57821C5.88394 8.60077 5.78981 8.62406 5.68886 8.6359C5.06917 8.70879 4.48856 8.45971 4.13639 7.96972C3.77217 7.46294 3.71665 6.78671 3.99151 6.2049C4.11652 5.94041 4.29248 5.74239 4.46266 5.55094C4.49518 5.51438 4.528 5.47746 4.56078 5.43967C4.59847 5.39627 4.65299 5.31889 4.71073 5.23693L4.71081 5.23682C4.84256 5.04985 4.95286 4.89926 5.06618 4.79587L4.27493 3.68751C4.21631 3.60536 4.20409 3.4989 4.24256 3.40559L4.78432 2.09227C4.81613 2.0151 4.87941 1.95516 4.95819 1.92756L6.89808 1.24749L7.42121 0.591271C6.27163 0.602668 5.10983 0.900529 4.04524 1.51518C3.75509 1.68267 3.48207 1.86853 3.22601 2.06983C3.46244 2.21716 3.65146 2.43577 3.75969 2.69836C3.94314 3.14356 3.84939 3.65868 3.52089 4.01077L3.19941 4.35525L2.40186 5.74758C2.38092 5.78414 2.35232 5.81575 2.31805 5.84028L1.80353 6.20819L2.16274 6.73506C2.21902 6.81762 2.22936 6.92312 2.19016 7.01499C2.15097 7.10684 2.06767 7.17246 1.96915 7.18896C1.96672 7.18937 1.72086 7.23053 1.47371 7.26706C1.21311 7.30556 1.05529 7.3268 0.94868 7.32683C0.832665 7.32683 0.777411 7.30163 0.716415 7.24609C0.695204 7.22675 0.677098 7.20443 0.662479 7.18008C0.650672 7.16783 0.631483 7.14917 0.60201 7.12172C0.586952 7.38738 0.587186 7.65446 0.603036 7.92161L1.34999 7.67898C1.44134 7.64933 1.54139 7.66629 1.61782 7.72442L2.89364 8.69444L3.55487 8.82363C3.81125 8.87376 4.03405 9.03176 4.16621 9.25708C4.29837 9.48243 4.32746 9.75399 4.24604 10.0022C4.22439 10.0682 4.22428 10.1381 4.24575 10.2042L4.33856 10.4898C4.49378 10.9678 4.23128 11.4829 3.75336 11.6382L3.62688 11.6793L3.36441 13.0493C5.21313 14.437 7.68761 14.8362 9.97335 13.9576C10.1243 13.8995 10.2938 13.9749 10.3519 14.126C10.41 14.277 10.3346 14.4465 10.1836 14.5045C9.32486 14.8345 8.4164 14.9999 7.50629 14.9999C6.66925 14.9999 5.83092 14.8601 5.02786 14.5799C3.33374 13.9888 1.90604 12.8063 1.00777 11.2504C0.00637552 9.51595 -0.25964 7.49526 0.25871 5.5607C0.777059 3.62613 2.01778 2.00918 3.75227 1.00779C5.4868 0.00638857 7.50746 -0.259656 9.44199 0.258723ZM2.59317 9.20203L1.38518 8.28354L0.664062 8.51783C0.787402 9.35443 1.06725 10.1818 1.51514 10.9575C1.88226 11.5934 2.33454 12.1506 2.84967 12.6221L3.08398 11.399C3.10405 11.2941 3.17958 11.2085 3.28115 11.1755L3.57228 11.0809C3.74293 11.0254 3.83674 10.8414 3.78128 10.6707L3.68847 10.3851C3.62832 10.2001 3.62861 10.0045 3.68926 9.81952C3.71873 9.72954 3.70865 9.63506 3.66075 9.55341C3.61285 9.47173 3.53533 9.41677 3.4424 9.39861L2.71432 9.25634C2.67031 9.24776 2.62889 9.22918 2.59317 9.20203ZM3.09268 3.61103L2.74806 3.98026C2.73268 3.99675 2.71923 4.01498 2.70801 4.03455L1.92543 5.40084L1.22989 5.89818C1.10034 5.99082 1.06853 6.16991 1.15823 6.30151L1.41836 6.68307C1.26842 6.7054 1.13386 6.72379 1.04438 6.73355C1.02719 6.71706 1.0092 6.70033 0.990596 6.68304C0.920957 6.61836 0.824189 6.53196 0.679932 6.40572C0.917852 4.93317 1.62742 3.5459 2.7434 2.48697C2.95709 2.55426 3.13246 2.71367 3.21812 2.92159C3.31451 3.15544 3.26523 3.42608 3.09268 3.61103ZM6.1364 5.11975C5.91497 5.1276 5.6117 5.13835 5.48104 5.21188C5.41692 5.25177 5.26926 5.46134 5.18987 5.57403L5.18975 5.5742C5.12327 5.66862 5.0604 5.7578 5.00327 5.82366C4.97034 5.86159 4.93741 5.89866 4.90476 5.93541L4.90059 5.94012C4.74484 6.11531 4.61034 6.26669 4.52131 6.4551C4.33738 6.84445 4.37222 7.29378 4.61219 7.62768C4.84158 7.94689 5.20902 8.10217 5.62059 8.05394C5.68452 8.04643 5.75661 8.02862 5.83292 8.00977L5.83436 8.00941C6.08456 7.94754 6.46261 7.85405 6.78681 8.15751C7.01674 8.37282 7.01523 8.6041 7.01424 8.75718V8.75722C7.01386 8.81396 7.01354 8.86298 7.02385 8.90543C7.03231 8.94023 7.08725 9.0007 7.13573 9.05405L7.1361 9.05446C7.21092 9.13686 7.29572 9.23025 7.34901 9.35798C7.52433 9.7781 7.4297 10.0666 7.32944 10.3722L7.3075 10.4394C7.24475 10.6336 7.37374 10.9178 7.49852 11.1926L7.49856 11.1927C7.55515 11.3173 7.61366 11.4462 7.65584 11.5714C7.82693 12.0792 7.94017 12.226 7.97143 12.2595C7.99882 12.2611 8.07921 12.2492 8.2169 12.1617C8.36506 12.0676 8.50937 11.9297 8.58675 11.8347C8.62073 11.793 8.63058 11.7495 8.64795 11.663C8.66556 11.575 8.68753 11.4655 8.75397 11.3517C8.80943 11.2568 8.86956 11.1891 8.91784 11.1347L8.91786 11.1347C8.97824 11.0667 9.01149 11.0293 9.03716 10.9485C9.12551 10.6702 9.23223 10.5566 9.36734 10.4127L9.36736 10.4127C9.38614 10.3927 9.40618 10.3714 9.42768 10.348C9.58545 10.1764 9.58088 10.1421 9.48276 9.8255C9.2749 9.15492 9.72625 8.73457 10.0889 8.39684L10.0892 8.3966C10.2314 8.26411 10.3661 8.13874 10.4606 8.00681C10.4382 8.00311 10.4161 7.99972 10.3968 7.99676L10.3966 7.99672C10.2372 7.97227 10.0566 7.94456 9.90933 7.84825C9.58428 7.63579 9.43105 7.29401 9.29588 6.99249L9.29145 6.98261C9.27293 6.94134 9.25464 6.90059 9.23608 6.86095C9.18941 6.76119 9.14781 6.65361 9.10378 6.53962L9.10365 6.53929C9.01653 6.31382 8.9178 6.05832 8.79115 5.92406C8.71981 5.84848 8.39693 5.76105 8.22347 5.71409L8.21973 5.71308C8.17058 5.69975 8.12264 5.68675 8.07695 5.67369C8.05621 5.71292 8.02832 5.74544 7.99855 5.7697C7.99551 5.77251 7.99259 5.77551 7.98962 5.77858C7.98847 5.77976 7.98731 5.78096 7.98613 5.78215L7.98565 5.78264C7.93254 5.83673 7.80924 5.96228 7.58819 5.94794C7.34438 5.93241 7.08484 5.75941 6.85589 5.60678L6.85588 5.60677C6.7749 5.55278 6.69841 5.50178 6.64346 5.47236C6.56236 5.42897 6.50632 5.35002 6.49223 5.25911C6.4842 5.20743 6.4902 5.15534 6.50869 5.10788C6.46729 5.10466 6.42341 5.10404 6.38389 5.10735C6.309 5.11362 6.22516 5.11661 6.13642 5.11975H6.1364Z" fill="#202F44"/>
</svg>
