<svg xmlns="http://www.w3.org/2000/svg" width="20" height="14" viewBox="0 0 20 14">
    <g fill="none" fill-rule="evenodd">
        <g>
            <g>
                <path d="M0 0L20 0 20 20 0 20z" transform="translate(-334 -534) translate(334 531)"/>
                <path fill="#BBBEC9" fill-rule="nonzero" d="M10 3.75C5.833 3.75 2.275 6.342.833 10c1.442 3.658 5 6.25 9.167 6.25s7.725-2.592 9.167-6.25c-1.442-3.658-5-6.25-9.167-6.25zm0 10.417c-2.3 0-4.167-1.867-4.167-4.167S7.7 5.833 10 5.833 14.167 7.7 14.167 10 12.3 14.167 10 14.167zM10 7.5c-1.383 0-2.5 1.117-2.5 2.5s1.117 2.5 2.5 2.5 2.5-1.117 2.5-2.5-1.117-2.5-2.5-2.5z" transform="translate(-334 -534) translate(334 531)"/>
            </g>
        </g>
    </g>
</svg>
